<?xml version="1.0" encoding="iso-8859-1"?>
<!-- Generator: Adobe Illustrator 19.0.0, SVG Export Plug-In . SVG Version: 6.00 Build 0)  -->
<svg version="1.1" id="Capa_1" xmlns="http://www.w3.org/2000/svg" xmlns:xlink="http://www.w3.org/1999/xlink" x="0px" y="0px"
	 viewBox="0 0 511.999 511.999" style="enable-background:new 0 0 511.999 511.999;" xml:space="preserve">
<g>
	<g>
		<path d="M390.725,104.1c-1.86-1.86-4.44-2.93-7.069-2.93s-5.21,1.07-7.069,2.93c-1.86,1.86-2.93,4.44-2.93,7.069
			c0,2.64,1.07,5.21,2.93,7.079c1.86,1.86,4.439,2.92,7.069,2.92c2.63,0,5.21-1.06,7.069-2.92c1.86-1.87,2.93-4.44,2.93-7.079
			C393.654,108.539,392.584,105.96,390.725,104.1z"/>
	</g>
</g>
<g>
	<g>
		<path d="M135.747,104.1c-1.86-1.86-4.44-2.93-7.069-2.93c-2.63,0-5.21,1.07-7.069,2.93c-1.86,1.86-2.93,4.44-2.93,7.069
			c0,2.64,1.07,5.21,2.93,7.079c1.86,1.86,4.44,2.92,7.069,2.92c2.63,0,5.21-1.06,7.069-2.92c1.86-1.87,2.93-4.44,2.93-7.079
			C138.677,108.539,137.607,105.96,135.747,104.1z"/>
	</g>
</g>
<g>
	<g>
		<path d="M248.396,317.771c-1.869-1.86-4.439-2.93-7.069-2.93c-2.64,0-5.22,1.07-7.079,2.93c-1.86,1.86-2.92,4.44-2.92,7.069
			s1.06,5.21,2.92,7.069c1.87,1.86,4.44,2.93,7.079,2.93c2.63,0,5.2-1.07,7.069-2.93c1.86-1.86,2.92-4.44,2.92-7.069
			S250.256,319.63,248.396,317.771z"/>
	</g>
</g>
<g>
	<g>
		<path d="M240.191,220.361c-4.438-3.287-10.7-2.355-13.987,2.083c-0.002,0.003-0.063,0.085-0.066,0.089
			c-15.987,21.637-19.971,49.616-10.659,74.843c1.491,4.04,5.314,6.539,9.381,6.539c1.15,0,2.32-0.2,3.462-0.622
			c5.18-1.913,7.829-7.662,5.917-12.843c-6.971-18.886-3.988-39.833,7.975-56.024l0.059-0.079
			C245.561,229.911,244.628,223.649,240.191,220.361z"/>
	</g>
</g>
<g>
	<g>
		<path d="M508.337,347.236c-1.369-2.371-3.282-4.74-5.922-6.861c-0.02-0.017-0.037-0.035-0.057-0.052
			c-39.413-32.447-75.499-73.565-96.531-109.992l-5.644-9.776c4.092,1.19,8.287,1.792,12.477,1.792c8.17,0,16.31-2.254,23.572-6.724
			c13.411-8.255,21.417-22.586,21.417-38.335V45.059c0-15.749-8.006-30.078-21.416-38.334c-13.411-8.257-29.812-8.951-43.872-1.859
			l-109.24,55.099c-8.055-4.627-17.376-7.287-27.313-7.287c-9.99,0-19.359,2.69-27.445,7.362L118.972,4.866
			C104.911-2.226,88.51-1.532,75.1,6.725c-13.409,8.256-21.415,22.587-21.415,38.335v132.228c0,15.749,8.006,30.079,21.417,38.335
			c7.262,4.471,15.402,6.724,23.572,6.724c4.272,0,8.551-0.62,12.72-1.858l-4.246,7.353C85.92,264.609,49.325,306.254,9.256,339.241
			c-0.016,0.013-0.029,0.027-0.044,0.04c-2.439,2.045-4.228,4.301-5.531,6.557c-5.851,10.135-6.86,28.691,21.562,59.543
			c19.629,21.308,48.929,43.716,82.499,63.098c41.717,24.086,90.928,43.52,124.182,43.52c10.065,0,18.661-1.788,25.154-5.758
			c5.503,3.373,13.459,5.73,24.955,5.729c7.689,0,16.961-1.054,28.138-3.564c28.016-6.289,61.765-20.331,95.033-39.538
			s62.303-41.414,81.758-62.532C515.159,375.729,514.149,357.304,508.337,347.236z M345.324,101.175h-34.889
			c-1.2-10.091-5.138-19.349-11.052-27.014l101.983-51.439c7.814-3.943,16.93-3.556,24.382,1.033
			c7.453,4.588,11.902,12.552,11.902,21.304v132.228c0,8.752-4.45,16.717-11.903,21.305c-7.452,4.588-16.568,4.975-24.382,1.033
			l-26.393-13.312c-21.32-20.515-49.686-32.584-79.641-33.442c8.158-8.432,13.648-19.451,15.104-31.698h34.889
			c5.523,0,9.999-4.477,9.999-9.999S350.846,101.175,345.324,101.175z M220.776,107.709c-0.001-19.317,15.715-35.033,35.032-35.033
			c19.316,0,35.032,15.716,35.032,35.033v6.928c0,19.317-15.716,35.033-35.032,35.033c-19.316,0-35.032-15.716-35.032-35.033
			V107.709z M109.968,199.625c-7.814,3.941-16.93,3.555-24.382-1.033c-7.453-4.589-11.903-12.553-11.903-21.305V45.059
			c0-8.752,4.45-16.716,11.902-21.304c7.453-4.588,16.568-4.975,24.382-1.033l102.184,51.539
			c-5.871,7.645-9.777,16.866-10.972,26.913h-32.504c-5.523,0-9.999,4.477-9.999,9.999c0,5.522,4.477,9.999,9.999,9.999h32.504
			c1.293,10.873,5.76,20.782,12.459,28.77c-30.182,2.109-58.434,15.502-79.17,37.325L109.968,199.625z M124.466,237.842
			l10.251-17.755c3.52-6.095,7.624-11.713,12.198-16.826c1.186-0.828,2.149-1.878,2.857-3.069
			c20.691-21.277,50.057-32.656,80.376-30.216c-13.395,8.049-25.239,18.697-34.677,31.471l-0.09,0.122
			c-28.344,38.364-31.249,89.844-7.399,131.152l10.387,17.991c12.07,20.906,22.761,45.816,31.287,72.438
			c-2.108-1.916-4.284-3.842-6.545-5.779c-17.336-14.854-38.496-29.63-61.188-42.732c-33.571-19.382-67.626-33.551-95.893-39.896
			c-6.692-1.503-12.695-2.48-18.099-3.033C79.288,301.981,106.837,268.376,124.466,237.842z M158.553,416.704
			c-2.42,4.191-6.326,7.188-11,8.44c-4.675,1.252-9.556,0.61-13.747-1.81c-4.191-2.42-7.188-6.326-8.44-11
			c-1.252-4.675-0.61-9.556,1.81-13.747c2.42-4.191,6.326-7.188,11-8.44c1.562-0.418,3.145-0.625,4.719-0.625
			c3.139,0,6.237,0.823,9.028,2.435C160.573,396.951,163.548,408.052,158.553,416.704z M205.109,488.185
			c-25.783-6.232-56.811-19.381-87.368-37.024C44.088,408.638,15.199,365.885,21,355.838c1.893-3.28,12.825-7.831,40.647-1.585
			c17.959,4.032,38.574,11.542,59.971,21.738c-4.778,3.201-8.801,7.47-11.76,12.597c-5.091,8.816-6.442,19.087-3.808,28.921
			c2.635,9.834,8.941,18.053,17.758,23.143c5.873,3.391,12.391,5.123,18.995,5.123c3.311,0,6.643-0.436,9.926-1.315
			c9.834-2.635,18.053-8.941,23.143-17.758c3.008-5.211,4.637-10.843,5.01-16.476c10.575,7.281,20.43,14.801,29.216,22.329
			c13.196,11.306,23.802,22.472,30.671,32.29c0.052,0.074,0.111,0.139,0.164,0.211c1.535,6.983,2.909,14.001,4.106,21.016
			c0.068,1.301,0.218,2.537,0.445,3.705C240.092,492.243,227.733,493.653,205.109,488.185z M215.688,340.713l-10.387-17.991
			c-19.87-34.416-17.45-77.306,6.167-109.272l0.09-0.122c16.448-22.261,41.655-36.802,69.16-39.892
			c39.456-4.438,77.78,14.917,97.634,49.304l10.156,17.591c17.489,30.295,44.726,63.551,75.661,92.884
			c-5.296,0.553-11.17,1.516-17.703,2.983c-28.015,6.289-61.765,20.331-95.033,39.538c-33.268,19.207-62.303,41.414-81.758,62.532
			c-4.45,4.831-8.169,9.355-11.26,13.594C248.629,411.06,233.616,371.764,215.688,340.713z M387.607,413.139
			c-1.235,4.607-4.189,8.457-8.319,10.842c-4.13,2.385-8.943,3.019-13.55,1.784c-4.607-1.235-8.457-4.189-10.842-8.319
			c-2.385-4.131-3.019-8.942-1.784-13.55c1.235-4.608,4.189-8.457,8.319-10.842c2.753-1.589,5.805-2.4,8.9-2.4
			c1.551,0,3.112,0.204,4.65,0.616c4.607,1.234,8.457,4.189,10.842,8.319C388.208,403.72,388.842,408.531,387.607,413.139z
			 M472.254,392.787c-18.121,19.67-45.484,40.539-77.049,58.764c-31.564,18.223-63.319,31.486-89.415,37.345
			c-27.511,6.176-38.307,1.703-40.171-1.526c-1.864-3.229-0.341-14.814,18.764-35.552c12.322-13.376,28.924-27.304,48.209-40.579
			c0.402,5.641,2.075,11.164,4.986,16.207c5.056,8.756,13.219,15.02,22.985,17.637c3.262,0.874,6.57,1.306,9.859,1.306
			c6.559,0,13.033-1.721,18.865-5.088c8.756-5.056,15.02-13.219,17.637-22.985c2.618-9.766,1.274-19.968-3.782-28.724
			c-2.911-5.043-6.857-9.252-11.542-12.421c21.139-10.062,41.502-17.476,59.247-21.46c10.013-2.248,17.811-3.085,23.77-3.085
			c10.416,0,15.215,2.558,16.401,4.612C492.882,360.464,491.359,372.05,472.254,392.787z"/>
	</g>
</g>
<g>
</g>
<g>
</g>
<g>
</g>
<g>
</g>
<g>
</g>
<g>
</g>
<g>
</g>
<g>
</g>
<g>
</g>
<g>
</g>
<g>
</g>
<g>
</g>
<g>
</g>
<g>
</g>
<g>
</g>
</svg>
