<svg height="480pt" viewBox="0 0 480 480" width="480pt" xmlns="http://www.w3.org/2000/svg"><path d="m136 120c-4.417969 0-8-3.582031-8-8v-104c0-4.417969 3.582031-8 8-8s8 3.582031 8 8v104c0 4.417969-3.582031 8-8 8zm0 0" fill="#1f6c8c"/><path d="m152 32h-32c-4.417969 0-8-3.582031-8-8s3.582031-8 8-8h32c4.417969 0 8 3.582031 8 8s-3.582031 8-8 8zm0 0" fill="#1f6c8c"/><path d="m56 376h328v96h-328zm0 0" fill="#c1ac8e"/><path d="m384 376h-328l80-104h192l56 74.289062zm0 0" fill="#dbdbdb"/><path d="m384 376v-32l-56-72h-168l64 72v32zm0 0" fill="#e4e4e2"/><path d="m160 300.359375v-140.359375h-48v143.199219l-56 72.800781v96h168v-96zm0 0" fill="#ae9b80"/><path d="m136 48-24 112h48zm0 0" fill="#3b869e"/><path d="m160 472h-48v-40c0-13.253906 10.746094-24 24-24s24 10.746094 24 24zm0 0" fill="#3b869e"/><path d="m352 440h-32v-16c0-8.835938 7.164062-16 16-16s16 7.164062 16 16zm0 0" fill="#aedee2"/><path d="m288 440h-32v-16c0-8.835938 7.164062-16 16-16s16 7.164062 16 16zm0 0" fill="#aedee2"/><path d="m112 160h48v48h-48zm0 0" fill="#ae9b80"/><path d="m169.335938 216h-66.671876c-3.855468-.714844-6.65625-4.078125-6.65625-8s2.800782-7.285156 6.65625-8h66.671876c3.855468.714844 6.65625 4.078125 6.65625 8s-2.800782 7.285156-6.65625 8zm0 0" fill="#5d9aa4"/><path d="m169.335938 248h-66.671876c-3.855468-.714844-6.65625-4.078125-6.65625-8s2.800782-7.285156 6.65625-8h66.671876c3.855468.714844 6.65625 4.078125 6.65625 8s-2.800782 7.285156-6.65625 8zm0 0" fill="#5d9aa4"/><path d="m440 456c-3.902344.4375-7.445312-2.304688-8-6.191406v-27.617188c.945312-3.644531 4.234375-6.191406 8-6.191406s7.054688 2.546875 8 6.191406v27.617188c-.554688 3.886718-4.097656 6.628906-8 6.191406zm0 0" fill="#a88e74"/><path d="m416 432h48l-24-72zm0 0" fill="#5e8569"/><path d="m416 392h48l-24-72zm0 0" fill="#6b9777"/><path d="m384 480h-384v-16h381.601562l21.984376-14.65625c1.308593-.871094 2.84375-1.335938 4.414062-1.34375h72v32zm0 0" fill="#e4e4e2"/><path d="m152 328c0 8.835938-7.164062 16-16 16s-16-7.164062-16-16 7.164062-16 16-16 16 7.164062 16 16zm0 0" fill="#8aced8"/><path d="m224 344h160c8.835938 0 16 7.164062 16 16s-7.164062 16-16 16h-160c-8.835938 0-16-7.164062-16-16s7.164062-16 16-16zm0 0" fill="#eaeae8"/></svg>