<svg id="church2" enable-background="new 0 0 300 300" height="512" viewBox="0 0 300 300" width="512" xmlns="http://www.w3.org/2000/svg"><path d="m136 156.17h28c2.209 0 4-1.791 4-4v-30.17c0-9.925-8.075-18-18-18s-18 8.075-18 18v30.17c0 2.209 1.791 4 4 4zm4-34.17c0-5.514 4.486-10 10-10s10 4.486 10 10v26.17h-20z"/><path d="m263.458 166.024.015-.008-16-28c-.712-1.246-2.037-2.016-3.473-2.016h-40v-26.639c0-1.164-.507-2.271-1.389-3.03l-46.611-40.165v-18.166h5.605c2.209 0 4-1.791 4-4s-1.791-4-4-4h-5.605v-8c0-2.209-1.791-4-4-4s-4 1.791-4 4v8h-5.605c-2.209 0-4 1.791-4 4s1.791 4 4 4h5.605v18.126l-46.561 38.801c-.912.761-1.439 1.885-1.439 3.073v28h-36c-1.168 0-2.277.511-3.037 1.396l-24 28 .014.012c-.6.7-.977 1.598-.977 2.592v100c0 2.209 1.791 4 4 4h36 184c2.209 0 4-1.791 4-4v-100c0-.723-.207-1.391-.542-1.976zm-21.779-22.024 11.429 20h-27.892l-21.216-14.22v-5.78zm-133.679 8v-42.127l43.957-36.63 44.043 37.951v40.721c0 1.334.665 2.58 1.773 3.322l22.227 14.898v93.865h-48v-50c0-12.131-9.869-22-22-22s-22 9.869-22 22v50h-48.327l.319-93.674 25.992-14.854c1.246-.711 2.016-2.036 2.016-3.472zm-42.16-8h34.16v5.679l-25.062 14.321h-26.241zm-21.84 28h27.986l-.313 92h-27.673zm92 92v-50c0-7.72 6.28-14 14-14s14 6.28 14 14v50zm120 0h-28v-92h28z"/></svg>