<?xml version="1.0" encoding="iso-8859-1"?>
<!-- Generator: Adobe Illustrator 19.0.0, SVG Export Plug-In . SVG Version: 6.00 Build 0)  -->
<svg version="1.1" id="Capa_1" xmlns="http://www.w3.org/2000/svg" xmlns:xlink="http://www.w3.org/1999/xlink" x="0px" y="0px"
	 viewBox="0 0 373.23 373.23" style="enable-background:new 0 0 373.23 373.23;" xml:space="preserve">
<polygon style="fill:#48C7FF;" points="318,77.015 318,38.615 7.6,38.615 7.6,238.615 54.4,238.615 "/>
<polygon style="fill:#FFD517;" points="55.6,77.015 55.6,277.415 102,277.415 102,334.615 185.2,277.415 366,277.415 366,77.015 "/>
<g>
	<path style="fill:#210B20;" d="M366,69.815h-40.4v-31.2c0-4-3.2-7.6-7.6-7.6H7.6c-4,0-7.6,3.2-7.6,7.6v200c0,4,3.2,7.6,7.6,7.6H48
		v31.2c0,4,3.2,7.6,7.6,7.6h38.8v49.6c0,2.8,1.6,5.2,4,6.8c1.2,0.4,2.4,0.8,3.6,0.8c1.6,0,3.2-0.4,4.4-1.2l81.2-56h178
		c4,0,7.6-3.2,7.6-7.6v-200.4C373.6,73.015,370,69.815,366,69.815z M15.2,231.015v-185.2h295.2v23.6H55.6c-4,0-7.6,3.2-7.6,7.6v154
		L15.2,231.015L15.2,231.015z M358.4,269.815H185.2c-1.6,0-3.2,0.4-4.4,1.2l-71.2,49.2v-42.8c0-4-3.2-7.6-7.6-7.6H63.2v-185.2h295.2
		V269.815z"/>
	<path style="fill:#210B20;" d="M304.4,118.615H116.8c-4,0-7.6,3.2-7.6,7.6c0,4,3.2,7.6,7.6,7.6h187.6c4,0,7.6-3.2,7.6-7.6
		C312,121.815,308.8,118.615,304.4,118.615z"/>
	<path style="fill:#210B20;" d="M304.4,166.615H116.8c-4,0-7.6,3.2-7.6,7.6c0,4,3.2,7.6,7.6,7.6h187.6c4,0,7.6-3.2,7.6-7.6
		S308.8,166.615,304.4,166.615z"/>
	<path style="fill:#210B20;" d="M222,214.215H116.8c-4,0-7.6,3.2-7.6,7.6c0,4,3.2,7.6,7.6,7.6H222c4,0,7.6-3.2,7.6-7.6
		C229.6,217.815,226.4,214.215,222,214.215z"/>
</g>
<g>
</g>
<g>
</g>
<g>
</g>
<g>
</g>
<g>
</g>
<g>
</g>
<g>
</g>
<g>
</g>
<g>
</g>
<g>
</g>
<g>
</g>
<g>
</g>
<g>
</g>
<g>
</g>
<g>
</g>
</svg>
