<?xml version="1.0"?>
<svg xmlns="http://www.w3.org/2000/svg" id="Capa_1" enable-background="new 0 0 512 512" height="512px" viewBox="0 0 512 512" width="512px" class=""><g><g><path d="m473.643 326.786c-39.482-13.545-68.604-48.964-80.111-89.157-9.718-33.945-9.558-69.712-6.541-105.061h-64.221c-1.748 38.893-1.535 77.907 7.121 115.723 9.517 41.582 30.723 82.143 64.052 108.001 9.062 7.03 22.111 5.365 29.211-3.642 1.015-1.288 2.038-2.581 3.072-3.884 9.277 3.865 21.275 5.543 30.292 1.104 8.566-4.216 15.26-12.061 18.133-21.159.254-.803-.211-1.652-1.008-1.925z" fill="#f7f3f1" data-original="#F7F3F1" class="active-path" style="fill:#F7F3F1" data-old_color="#f7f3f1"/><path d="m386.991 132.567h-64.221c-1.748 38.893-1.535 77.907 7.121 115.723 2.092 9.141 4.75 18.233 7.977 27.13 2.606-16.61 9.969-32.46 21.057-45.104 7.942-9.057 17.77-16.428 28.63-21.636-3.403-25.032-2.734-50.679-.564-76.113z" fill="#ebe1dc" data-original="#EBE1DC" class=""/><path d="m38.357 326.786c39.482-13.545 68.604-48.964 80.111-89.157 9.718-33.945 9.558-69.712 6.541-105.061h64.221c1.748 38.893 1.535 77.907-7.121 115.723-9.517 41.582-30.723 82.143-64.052 108.001-9.062 7.03-22.111 5.365-29.211-3.642-1.015-1.288-2.038-2.581-3.072-3.884-9.277 3.865-21.275 5.543-30.292 1.104-8.566-4.216-15.26-12.061-18.133-21.159-.254-.803.211-1.652 1.008-1.925z" fill="#f7f3f1" data-original="#F7F3F1" class="active-path" style="fill:#F7F3F1" data-old_color="#f7f3f1"/><path d="m125.009 132.567h64.221c1.748 38.893 1.535 77.907-7.121 115.723-2.092 9.141-4.75 18.233-7.977 27.13-2.606-16.61-9.969-32.46-21.057-45.104-7.942-9.057-17.77-16.428-28.63-21.636 3.403-25.032 2.734-50.679.564-76.113z" fill="#ebe1dc" data-original="#EBE1DC" class=""/><path d="m285.219 0h-58.438c-3.937 0-7.129 3.192-7.129 7.129v497.742c0 3.937 3.192 7.129 7.129 7.129h58.438c3.937 0 7.129-3.192 7.129-7.129v-497.742c0-3.937-3.192-7.129-7.129-7.129z" fill="#c77e67" data-original="#C77E67" class=""/><path d="m219.652 176.734v74.64c11.506 3.478 23.707 5.353 36.348 5.353s24.843-1.875 36.348-5.353v-74.64c-9.959 7.976-22.595 12.749-36.348 12.749s-26.389-4.773-36.348-12.749z" fill="#ac583e" data-original="#AC583E" class="" style="fill:#AC583E"/><path d="m219.652 92.049h72.696v56.558h-72.696z" fill="#ac583e" data-original="#AC583E" class="" style="fill:#AC583E"/><path d="m70.133 121.884v58.438c0 3.937 3.192 7.129 7.129 7.129h357.476c3.937 0 7.129-3.192 7.129-7.129v-58.438c0-3.937-3.192-7.129-7.129-7.129h-56.048c-20.943 9.439-41.635 9.681-62.056 0h-120.97c-21.287 13.123-42.143 12.184-62.652 0h-55.75c-3.937 0-7.129 3.192-7.129 7.129z" fill="#c77e67" data-original="#C77E67" class=""/><path d="m313.573 114.755c-4.138 28.089-28.335 49.65-57.573 49.65s-53.435-21.561-57.573-49.65h-67.579c4.398 65.292 58.745 116.894 125.152 116.894s120.754-51.601 125.152-116.894z" fill="#f7f3f1" data-original="#F7F3F1" class="active-path" style="fill:#F7F3F1" data-old_color="#f7f3f1"/><g fill="#ebe1dc"><path d="m256 195.704c-38.465 0-73.216-31.698-89.049-80.949h-15.842c0 .749.108 1.511.339 2.264 17.517 57.187 58.556 94.138 104.552 94.138 23.908 0 46.733-9.868 66.009-28.537 3.065-2.968 3.143-7.86.175-10.925s-7.86-3.144-10.925-.175c-16.336 15.822-35.444 24.184-55.259 24.184z" data-original="#EBE1DC" class=""/><path d="m345.255 152.472c6.267-10.846 11.414-22.774 15.298-35.453.231-.754.339-1.515.339-2.264h-15.84c-3.448 10.715-7.867 20.797-13.176 29.986-2.135 3.695-.871 8.421 2.824 10.555 1.217.704 2.547 1.038 3.859 1.038 2.668 0 5.264-1.385 6.696-3.862z" data-original="#EBE1DC" class=""/></g></g></g> </svg>
