<svg height="512" viewBox="0 0 128 128" width="512" xmlns="http://www.w3.org/2000/svg"><g><path d="m122.682 50.8c-3.209-2.936-9.161-7.58-14.358-7.174-7.792-8.506-18.84-10.68-29.324-5.843a141.206 141.206 0 0 0 -11.068-12.6c-6.379-6.688-11.887-12.464-13.7-19.139a1.75 1.75 0 0 0 -3.256-.321c-3.45 6.941-7.152 15.1-9.142 23.739-6.278-3.763-11.549-7.379-14.53-12.3a1.75 1.75 0 0 0 -3.218.592c-4.086 22.282-5.718 45.613 19.737 66.156-12.508 14.5-26.8 13.392-36.728 9.8a1.75 1.75 0 0 0 -2.145 2.463c8.285 15.8 18.43 25.059 29.336 26.783a23.654 23.654 0 0 0 3.687.289c7.006 0 14.062-3.106 20.253-8.958 14.668-.088 32.648-6.054 38.166-19.147 2.23-5.289 3.4-11.427 4.525-17.364 3.1-16.315 5.745-26.2 20.317-23.957a1.75 1.75 0 0 0 1.448-3.02zm-70.352-39.869c2.77 5.869 7.796 11.142 13.07 16.669a142.94 142.94 0 0 1 10.459 11.831 41.57 41.57 0 0 0 -9.041 7.5c-6.465-6.614-14.184-11.131-21.066-15.158l-.752-.442a93.61 93.61 0 0 1 7.33-20.4zm45.149 66.192c-1.094 5.757-2.226 11.71-4.312 16.657-4.982 11.82-21.967 17.094-35.645 17.01-5.7-.049-10.7-1.015-14.072-2.722a1.75 1.75 0 1 0 -1.579 3.124 32.111 32.111 0 0 0 11.259 2.879c-4.6 3.581-10.879 6.6-18.3 5.427-8.915-1.408-17.4-8.713-24.71-21.206 9.525 2.372 23.929 2.4 36.471-12.238 1.484 1.1 3.026 2.2 4.677 3.282a1.75 1.75 0 1 0 1.921-2.925c-29.689-19.495-30.125-41.376-26.364-64.026 4.281 4.875 10.575 8.554 17.159 12.409 13.849 8.1 29.545 17.285 32.943 40.59a1.75 1.75 0 0 0 3.464-.5 48.653 48.653 0 0 0 -11.2-25.359 36.819 36.819 0 0 1 10.069-7.994c9.655-5.037 20.021-3.084 27.053 5.1a1.753 1.753 0 0 0 1.707.568c1.945-.43 4.867.625 8.121 2.842-13.659.772-16.199 14.124-18.662 27.082z"/><path d="m94.434 70.6a1.754 1.754 0 0 0 -2.064 1.366c-.28 1.374-.537 2.725-.787 4.045-1.035 5.447-2.105 11.08-3.942 15.438a1.75 1.75 0 0 0 3.226 1.36c1.98-4.7 3.086-10.518 4.157-16.157.246-1.293.5-2.629.776-3.988a1.75 1.75 0 0 0 -1.366-2.064z"/></g></svg>