<?xml version="1.0" encoding="iso-8859-1"?>
<!-- Generator: Adobe Illustrator 19.0.0, SVG Export Plug-In . SVG Version: 6.00 Build 0)  -->
<svg version="1.1" id="Layer_1" xmlns="http://www.w3.org/2000/svg" xmlns:xlink="http://www.w3.org/1999/xlink" x="0px" y="0px"
	 viewBox="0 0 512 512" style="enable-background:new 0 0 512 512;" xml:space="preserve">
<g>
	<g>
		<path d="M384.919,45.583C352.307,16.189,307.901,0,259.878,0S167.45,16.189,134.837,45.583
			c-33.66,30.338-52.198,72.792-52.198,119.54c0,71.702,68.926,182.281,135.561,247.763l2.217,2.178h7.1v33.27h-10.8v35.803
			c0,15.364,12.5,27.863,27.863,27.863h24.273c15.363,0,27.863-12.499,27.863-27.863v-35.803h-10.801v-33.27h1.441h11.982
			l2.217-2.178c66.636-65.482,135.561-176.062,135.561-247.763C437.117,118.374,418.58,75.921,384.919,45.583z M259.878,15.198
			c9.177,0,19.534,14.685,27.028,38.325c8.926,28.157,13.841,67.79,13.841,111.599c0,67.094-18.146,170.357-36.217,234.744h-9.306
			c-18.069-64.387-36.217-167.65-36.217-234.744c0-43.809,4.916-83.443,13.841-111.599
			C240.343,29.883,250.701,15.198,259.878,15.198z M270.719,415.064v33.27h-28.003v-33.27h1.073H270.719z M140.033,286.239
			c-27.21-46.912-42.195-89.925-42.195-121.118c0-63.309,38.227-115.077,95.59-137.672c-6.03,5.647-11.674,12.109-16.848,19.364
			c-21.508,30.156-33.353,72.172-33.353,118.307c0,63.602,35.342,158.335,73.372,224.37
			C188.721,359.819,161.362,323.011,140.033,286.239z M158.423,165.122c0-42.999,10.842-81.88,30.53-109.483
			c11.616-16.288,25.803-28.005,41.43-34.507c-4.2,6.941-8.281,16.002-12.02,27.799c-9.384,29.601-14.552,70.866-14.552,116.191
			c0,65.873,17.094,165.724,34.752,231.452C198.442,332.54,158.423,231.054,158.423,165.122z M281.519,484.137
			c0,6.984-5.681,12.665-12.665,12.665h-24.273c-6.984,0-12.665-5.681-12.665-12.665v-20.605h49.603V484.137z M281.194,396.576
			c17.658-65.728,34.752-165.58,34.752-231.454c0-45.325-5.168-86.59-14.552-116.191c-3.739-11.797-7.821-20.858-12.02-27.799
			c15.627,6.503,29.814,18.219,41.432,34.507c19.686,27.602,30.529,66.484,30.529,109.483
			C361.335,231.054,321.315,332.542,281.194,396.576z M303.161,389.49c38.029-66.035,73.371-160.767,73.371-224.368
			c0-46.136-11.845-88.151-33.353-118.308c-5.175-7.255-10.82-13.719-16.849-19.365c57.363,22.594,95.59,74.362,95.59,137.673
			c0,31.192-14.985,74.206-42.195,121.118C358.395,323.01,331.036,359.818,303.161,389.49z"/>
	</g>
</g>
<g>
	<g>
		<path d="M130.199,367.202h-16.2c-4.743,0-8.601-3.858-8.601-8.601c0-13.123-10.676-23.799-23.799-23.799H32.998
			C16.898,334.802,3.8,347.9,3.8,364.001S16.899,393.2,32.998,393.2h16.2c4.743,0,8.601,3.858,8.601,8.601
			c0,13.123,10.676,23.799,23.799,23.799h48.601c16.101,0,29.198-13.099,29.198-29.199C159.397,380.3,146.3,367.202,130.199,367.202
			z M130.199,410.402H81.598c-4.743,0-8.601-3.858-8.601-8.601c0-13.123-10.676-23.799-23.799-23.799h-16.2
			c-7.72,0-14-6.281-14-14.001S25.279,350,32.998,350h48.601c4.743,0,8.601,3.858,8.601,8.601c0,13.123,10.676,23.799,23.799,23.799
			h16.2c7.719,0,14,6.281,14,14.001C144.199,404.121,137.918,410.402,130.199,410.402z"/>
	</g>
</g>
<g>
	<g>
		<path d="M367.8,416.6h108.001c4.743,0,8.6,3.858,8.6,8.601c0,13.123,10.676,23.799,23.799,23.799v-15.198
			c-4.743,0-8.601-3.858-8.601-8.601c0-13.123-10.676-23.799-23.798-23.799H367.8c-16.101,0-29.198,13.099-29.198,29.199
			S351.7,459.8,367.8,459.8h75.6c4.743,0,8.601,3.858,8.601,8.601c0,13.123,10.676,23.799,23.799,23.799h32.4v-15.198h-32.4
			c-4.743,0-8.601-3.858-8.601-8.601c0-13.123-10.676-23.799-23.799-23.799h-75.6c-7.72,0-14-6.281-14-14.001
			C353.799,422.88,360.08,416.6,367.8,416.6z"/>
	</g>
</g>
<g>
</g>
<g>
</g>
<g>
</g>
<g>
</g>
<g>
</g>
<g>
</g>
<g>
</g>
<g>
</g>
<g>
</g>
<g>
</g>
<g>
</g>
<g>
</g>
<g>
</g>
<g>
</g>
<g>
</g>
</svg>
