<?xml version="1.0" encoding="utf-8"?>
<!-- Generator: Adobe Illustrator 24.0.0, SVG Export Plug-In . SVG Version: 6.00 Build 0)  -->
<svg version="1.1" id="Livello_1" xmlns="http://www.w3.org/2000/svg" xmlns:xlink="http://www.w3.org/1999/xlink" x="0px" y="0px"
	 viewBox="0 0 2000 2000" style="enable-background:new 0 0 2000 2000;" xml:space="preserve">
<style type="text/css">
	.st0{fill:#431009;}
</style>
<g transform="translate(0.000000,2000.000000) scale(0.100000,-0.100000)">
	<path class="st0" d="M12252,18233l-2-73h-82c-59-1-89-5-103-16c-18-14-7-15,126-8l146,7v-42c0-47,8-45-147-42c-47,1-101-3-120-8
		c-28-7-12-9,73-10c97-1,108-3,105-18c-1-10,1-24,5-30c5-7,5-18,1-24c-3-6-5-57-4-113c6-224,10-197-34-213c-22-7-48-21-59-31
		c-17-15-198-221-401-456c-39-45-124-144-191-221c-163-188-303-351-449-520c-235-273-389-451-459-527l-70-78l-46,41
		c-77,67-201,144-291,179c-146,57-253,110-308,151c-29,22-71,47-94,55c-49,17-210,19-241,3c-51-26-191-195-374-449
		c-53-74-116-157-138-185c-23-27-49-63-58-80c-8-16-26-40-40-53l-24-23l-64,48c-35,26-101,68-147,93c-222,121-280,159-275,180
		c9,32-19,24-60-18c-20-21-37-41-37-45s-24-37-54-73c-30-37-72-99-92-138c-21-39-45-82-54-96c-52-77-73-112-107-177
		c-70-133-112-202-214-355c-128-192-360-509-378-516c-3-1-26,40-50,90c-57,121-162,258-335,435c-77,79-142,143-145,143s-38,30-76,68
		c-148,141-636,537-774,626c-42,27-47,28-127,21c-62-5-90-12-113-29c-30-22-127-121-146-150c-5-8-50-67-100-133
		c-49-65-136-185-193-267s-131-183-165-224s-66-81-72-89c-21-30-336-353-345-353c-4,0-33-27-64-60c-32-33-61-60-65-60
		c-5,0-29-22-55-50c-26-27-49-50-53-50c-3,0-49-37-102-83c-118-102-263-219-441-357c-293-226-463-382-476-436c-8-34-53-132-70-154
		c-6-8-27-44-46-80s-46-83-59-105c-14-22-32-52-40-66c-20-37-64-115-99-174c-29-50-113-216-144-288c-10-21-16-50-14-65l3-27l25,26
		c14,14,30,28,37,30s105,94,219,204s218,208,233,217c14,10,62,30,106,44c81,27,114,45,172,95c17,15,60,36,95,48
		c79,27,108,51,148,126c63,117,182,288,292,420c90,108,296,312,363,360c63,46,234,140,240,133c3-2-9-51-24-109c-16-57-32-135-36-174
		c-4-38-13-101-19-140c-15-81-18-73-37,79c-7,55-19,124-29,155c-14,49-20,56-44,59c-23,3-45-14-154-125c-140-141-133-134-282-319
		c-106-133-122-163-199-376c-5-14-25-38-44-53c-40-32-182-108-282-150c-199-83-262-121-353-213c-83-83-142-174-142-218
		c0-8-5-24-11-35c-8-16-6-26,7-47c21-32,55-61,71-62c13,0,299,145,323,164c8,7,26,18,40,24c35,17,119,64,230,129
		c52,31,106,63,120,71c24,13,24,13,5-3c-11-9-54-42-96-73c-123-93-148-113-241-196c-148-130-146-157,13-127c57,11,147,25,199,31
		c104,11,181,23,250,39c25,6,59,10,76,11c29,0,32-3,38-39c9-59,33-83,86-83c74-1,159,31,207,79c61,60,135,221,176,379
		c19,71,61,228,95,349c54,194,98,400,109,505c22,214,69,458,88,452c14-4,9-115-9-192c-24-102-73-336-91-435c-9-49-22-124-30-165
		c-24-128-35-214-47-372c-10-140-14-158-43-213c-17-33-38-71-47-85c-74-112-106-440-43-440c15,0,62,51,129,140c27,36,65,81,85,101
		s41,45,47,55c17,29,63,59,74,48c5-5,5-31,0-69c-6-33-13-167-16-297l-7-238h40c62,0,73,33,103,311c50,464,114,643,356,1007
		c67,101,87,146,79,172c-6,18-12,20-33,15c-36-9-84-46-124-96c-18-23-47-58-64-78s-43-54-59-76s-40-53-54-70l-24-30l7,180
		c4,99,15,263,26,365c10,102,24,246,30,320c7,74,16,155,20,179c9,48-5,245-21,306c-6,22-18,47-26,57c-13,14-12,20,10,55
		c54,85,197,410,197,447c0,10,5,26,11,37c12,24,3,59-16,59s-101-93-185-211c-41-57-87-120-102-139s-57-72-93-117s-65-83-65-85
		c0-8-172-183-229-232c-60-53-239-176-326-225c-32-18-24-7,40,50c119,109,315,302,315,312c0,5,14,20,31,34c37,32,248,283,350,418
		c72,95,148,205,269,390c59,90,188,274,220,315l20,25l27-35c16-19,36-60,46-92s23-58,30-58c10,0,11-69,9-310c-4-312,2-460,19-460
		c5,0,9,33,9,73c0,39,5,92,11,117c13,54,15,192,6,355c-8,138-4,133,53-75c17-63,35-128,40-145c18-60,69-262,85-340
		c10-44,23-102,30-130c8-27,17-72,21-100c3-27,12-64,19-81s16-49,19-71c9-51,49-180,72-233c12-26,24-40,34-38c20,4,25,112,10,228
		c-7,47-16,117-20,155c-15,119-29,208-39,250c-30,121-22,120,39-4c33-68,60-127,60-132s26-74,59-152c32-78,87-218,121-312
		c34-93,66-179,71-190s13-33,19-50c5-16,23-68,40-115s40-114,50-150c11-35,44-136,74-225c81-242,149-460,202-650c7-27,30-106,50-175
		s42-150,49-180s20-84,29-120c60-254,87-422,68-434c-10-6-106,115-194,244c-25,36-65,93-89,128s-71,105-104,156
		c-63,97-94,142-239,339c-252,345-529,637-603,637c-16,0-20-14-30-98c-11-90-30-155-95-327c-35-91-91-189-221-383
		c-179-269-188-283-198-311c-17-42-4-68,43-85c32-11,100-16,263-19c198-4,230-7,318-31c116-31,172-68,233-154c62-86,178-166,284-194
		c89-24,270-49,425-59c117-8,177-16,193-27c24-16,96-12,114,6c6,6,15,55,21,109c18,174-17,435-91,673c-16,52-37,129-46,170
		c-21,95-275,886-332,1034c-6,16-4,18,12,12c43-17,140-27,167-17c32,13,35,38,11,120c-9,31-20,72-25,91s-25,89-45,155
		c-19,66-39,140-43,165c-5,25-17,84-27,132s-15,91-10,95c19,19,131-137,342-477c56-90,75-118,186-263c26-34,97-159,156-277
		c108-213,217-418,259-488c12-21,25-44,29-52c13-28,151-265,177-305c68-105,113-164,125-165c22,0-5,59-151,330
		c-48,89-192,378-235,470c-129,278-123,255-59,222c41-22,78-60,177-179c127-152,153-184,396-488c75-93,155-189,177-212
		c40-41,67-55,67-32c0,21-84,181-145,274c-17,28-49,79-71,115c-21,36-63,103-94,150c-30,47-84,132-120,188c-36,57-97,153-137,215
		c-168,261-203,318-268,422c-180,293-275,451-275,461c0,3,87,93,194,198c106,105,210,211,230,235c43,53,24,60,231-87
		c529-378,863-660,925-783c23-45,28-51,102-132c29-32,69-67,88-77c92-49,137-113,235-340c40-91,83-187,96-215c31-68,128-162,174-171
		c59-11,33-42,309,378c94,143,102,150,116,112c26-70,33-84,47-84c17,0,12,34-13,85c-8,16-19,61-25,99c-5,38-11,72-13,74
		c-16,15-129-90-324-301c-29-31-57-57-62-57c-4,0-10-4-12-9c-7-21-53-21-86-1c-35,21-89,99-98,140c-16,70-78,249-104,299
		c-35,66-68,94-150,126c-113,44-177,113-319,345c-46,74-93,151-106,170c-84,130-259,454-296,547c-8,21-5,23,41,29
		c73,10,67,46-17,106c-83,59-123,169-143,383c-6,66-13,129-16,140c-6,22-8,24,79-80c69-84,408-418,470-464c80-58,139-83,179-76
		c30,6,36,2,69-42c20-27,44-62,53-79c9-16,30-51,46-79c16-27,35-61,40-74c11-25,5-77-12-98c-13-16-1-50,20-58c9-4,50-9,90-12
		c61-5,75-3,93,13c22,19,19,55-6,84c-7,8-18,32-24,52c-7,20-19,42-27,48c-7,7-14,18-14,24c-1,25-114,189-410,589
		c-41,56-80,113-86,127c-21,47-5,77,150,281c161,213,288,369,298,369c18,0,123,52,134,66c9,12,15,4,32-38c12-29,30-89,42-133
		c20-75,28-97,80-207c39-83,132-164,375-324c66-44,137-96,157-116l38-36l10-122c10-113,9-127-10-188c-12-37-26-76-32-87
		c-6-10-17-42-24-70c-7-27-33-108-59-180c-42-119-46-136-42-204c2-40,9-76,15-80c7-4,26-28,44-53c47-65,93-101,118-93
		c27,8,21,42-23,135c-38,80-39,136-8,240l23,74l23-44c20-41,47-91,92-175c26-48,122-165,189-230c52-51,68-75,104-160
		c48-111,287-586,343-680c20-33,55-95,78-138c90-162,210-328,284-390c75-63,184-121,209-111c22,8,20,29-10,99c-14,33-30,75-36,94
		c-27,91-232,503-328,659c-25,40-52,86-60,102s-27,46-43,67c-36,50-77,113-77,119c0,2,33-17,73-43c209-136,239-159,258-194
		c31-61,148-172,256-243c56-36,115-83,130-104c39-49,73-132,73-176c0-100-55-239-140-351c-28-37-50-67-50-69c0-4-183-186-188-186
		c-2,0-28-20-58-44c-130-107-323-221-499-298c-296-129-416-297-361-506c40-149,193-284,396-350c121-39,178-46,335-42
		c332,9,402,5,515-25c203-54,423-165,618-312c58-43,111-82,119-88c8-5,60-56,115-112c172-174,258-310,258-410c0-48-2-53-36-74
		c-36-22-44-22-373-25c-262-1-374-6-506-22c-472-56-909-154-1191-268l-85-34l-42,29c-178,121-318,143-607,95c-194-32-320-34-410-5
		c-36,11-74,27-85,35c-11,9-24,16-28,16c-16,0,15-42,44-59l30-18l-38-31c-31-26-35-33-23-42c27-17,94-21,150-7l55,14l-37,17
		c-38,16-51,36-23,36c8,0,38-9,66-20c49-18,57-18,178-4c280,33,330,36,416,31c96-7,183-26,252-57c39-17,43-22,43-55c0-20-9-54-20-75
		c-11-22-16-40-11-40c18,0,40,31,47,65c6,32,9,34,33,28c35-8,108-59,122-84c6-11,16-18,24-16c12,5,35-10,35-23c0-4-17-12-38-18
		c-21-7-47-22-58-33l-19-22l37,6c45,7,48,1,48-104v-79l-92,3c-51,1-118-2-150-6c-52-8-57-7-63,12c-6,20-7,20-32,4
		c-37-24-119-22-235,6c-72,17-95,27-91,37c6,16,52,17,148,5c46-6,77-4,135,11c56,15,93,18,148,14c80-6,82-5,63,61c-9,29-6,33,46,78
		c30,26,53,48,51,50c-2,1-30-1-63-6c-54-7-110-3-196,17c-21,5-35-2-67-30c-27-25-49-36-71-36c-40,0-41,23-1,40c66,27,45,33-96,27
		c-132-6-452-41-461-51c-2-2,34-7,80-11l84-7l-10-40c-8-34-7-42,10-60c11-11,38-22,61-25c22-3,43-12,46-20c11-27-47-9-259,85
		c-49,22-116,45-147,52c-51,10-58,14-58,36c0,23,3,24,65,24c70,0,82,9,38,27c-134,55-260,115-268,127c-6,10-2,32,14,71
		c27,65,24,100-15,158c-13,20-27,52-30,70l-6,32l26-40c14-22,26-46,26-54s2-12,5-9c3,2-4,65-16,139c-23,150-27,319-9,364
		c6,17,20,40,32,52c18,19,19,26,9,73c-23,106-81,184-169,227c-50,24-69,28-149,28c-101,0-111-5-122-57l-7-33l-138-31
		c-76-17-142-36-147-41c-7-7,47-13,153-17c89-4,164-9,166-11c10-10-34-68-76-98l-48-36l-96,16l-95,16l-26,53l-26,53l-70-29
		c-39-17-80-30-92-30c-21,0-21,1-4,26c9,14,15,28,12,30c-2,2-26-8-52-23l-48-26l-23,26l-23,27l-26-31c-39-47-52-78-89-208
		c-39-136-60-186-87-205c-19-13-18-18,11-172c17-87,30-180,28-207c-2-26,0-47,4-47c14,0,48,54,48,76c0,30,12,30,58-1
		c62-43,80-32,97,58c6,33,4,38-26,56c-20,13-51,21-77,21c-37,0-44,3-53,28c-7,16-9,64-6,122c5,86,8,97,32,117c48,42,156,67,292,67
		c67,1,124-2,128-6c3-3-3-25-15-48l-21-42l20-22c11-11,41-66,66-121c39-82,48-96,55-80c10,27,37,49,44,36c3-5,2-21-4-36
		c-5-14-10-40-10-57v-30l55,31c30,17,56,31,58,31s10-19,17-42c7-24,21-55,32-70c23-33,8-37-33-7l-29,20v-34c0-44-16-90-52-148
		c-32-53-39-119-12-119c9,0,30,12,48,27c65,54,160,81,173,48c8-24-134-169-169-173c-32-4-35,4-12,30c16,16,15,18-2,24
		c-80,29-79,28-93,98c-11,54-18,70-37,78c-27,13-46,2-24-12c24-16-88-12-150,5c-71,19-68,20-72-13l-3-27h-120c-96,0-126-4-152-18
		c-42-23-42-39,4-146c20-47,37-103,38-124c1-42,16-57,49-50c17,4,15,1-9-16c-16-11-33-21-37-21c-17,0-39,52-54,121
		c-23,111-46,150-170,280c-62,65-122,136-133,158c-26,51-48,59-62,23c-26-69-50-312-30-312c7,0,11,21,11,54c0,56,7,70,27,58
		c13-8-3-152-17-152c-29,0-146,46-204,80c-37,22-72,40-77,40c-30,0-10-61,27-81c27-14,29-35,14-139c-5-36-14-132-20-214l-11-148
		l-33-32c-18-17-35-38-38-46c-4-13-7-13-21-1c-22,18-21,47,2,63c18,13,18,15-1,103c-24,110-57,327-51,338c2,4,15,7,28,7
		c14,0,25,7,27,18c3,9-24,75-59,145c-60,121-63,130-46,143c25,18,37,17,123-10c41-13,111-27,155-31l81-7l11,66c12,72,55,156,79,156
		c8,0,41-28,72-62c87-97,153-158,194-179c40-21,83-25,93-9c3,6-1,7-10,4c-30-12-61,6-109,62l-49,56l39-25c21-14,53-29,69-32
		c35-7,43-16-83,83c-77,60-135,128-171,199c-26,53-26,68,0,104c33,47,74,145,118,286c22,72,41,136,41,143c0,20-295-3-448-36l-73-16
		l41-45c23-24,40-46,38-48c-1-2-27,1-57,7c-42,7-56,7-62-4c-14-22-10-55,8-62c17-7,150,9,204,24c24,7,35,6,41-3c22-35,5-43-111-54
		l-74-6l29-24c16-13,53-31,83-39c54-16,55-16,73,6c22,27,38,83,38,136c0,45,37,91,64,81c23-9,19-26-9-39c-47-21-19-67,29-48
		c24,9,27,8,22-7c-3-10-10-38-16-63c-7-25-21-62-31-82c-22-44-35-47-194-51l-110-2l-3,28c-2,20-8,27-20,25c-24-3-72,11-72,21
		c0,5,12,19,26,30l27,21l-44,20c-24,11-58,20-75,20c-49,0-52,28-6,46c87,35,112,48,133,70c32,34,19,39-24,10c-35-24-39-24-71-11
		c-44,19-41,19-43-6c-2-18-28-48-43-49c-3,0-18,45-34,100c-16,56-33,103-38,106c-4,3-8-29-8-71v-76l-35-15c-39-16-180-20-170-4
		c3,6,21,10,38,10c46,0,78,11,74,24c-12,36-214,45-459,21c-201-20-194-18-209-62c-6-21-22-53-35-72l-23-35l37-32c20-17,33-36,29-41
		c-5-4-17,3-28,16s-21,22-24,20c-2-3-9-97-16-209c-10-193-12-206-34-230c-13-14-28-37-34-53c-12-31-29-39-156-73
		c-49-14-108-34-131-44c-22-11-52-20-67-20c-24,0-27,4-28,33v32l-12-35c-11-32-17-36-107-64c-55-18-102-39-112-51
		c-16-19-16-21,15-34c45-20,193-17,357,8c209,31,205,31,203-3c-4-60-46-79-231-101c-178-22-199-29-265-86c-39-35-57-58-57-74
		c0-34,14-38,53-15c57,34,234,88,440,134c26,6,13-31-25-70c-30-32-62-48-202-105c-53-22-92-45-118-72c-21-22-37-42-34-44
		c5-5,210,56,264,79c24,10,47,18,51,18c13,0,0-53-18-74c-38-43-190-96-325-114c-53-6-60-10-69-35c-5-16-7-30-4-33c2-3,38,7,80,21
		c88,29,133,31,185,9l37-17l-37-7c-88-16-99-40-117-239c-6-69-16-131-22-138c-7-8-33-13-65-13c-69,0-92-10-157-67
		c-30-26-67-58-81-70c-15-13-26-32-26-47c0-21,5-25,32-28l32-3l-28-15c-26-14-29-13-47,9c-10,13-19,37-19,53c0,25-4,29-22,26
		c-16-2-26-14-34-43l-12-40l-1,40c-1,22-4,85-8,140c-6,95-5,99,11,85c10-8,22-23,26-35c7-18,9-18,20,10c9,23,9,38,0,62
		c-15,44-3,63,21,32c22-29,24-11,5,36c-11,25-23,36-48,43c-31,8-33,11-36,56c-2,34,3,59,18,88c19,37,20,41,4,52c-22,17-12,76,20,113
		l24,28l-20,39l-20,39l63,208c58,192,78,235,92,197c8-23,71,56,91,113c10,30,32,78,48,108c25,45,28,58,19,77c-13,29,0,31,24,4
		c19-21,19-20,54,14c20,18,68,53,106,77c39,24,83,53,97,65c28,22,78,90,78,106c0,9-116-68-224-150l-58-45l-24,29
		c-30,37-74,123-74,145c0,17,3,16,45-2c49-22,126-23,133-1c2,6-3,12-12,12s-41,23-71,50c-30,28-57,50-60,50c-2,0-16-11-30-25
		c-30-30-31-58-9-155c8-38,14-84,12-102c-3-28-7-33-32-36s-28-1-21,15c4,10,10,83,14,163c6,133,8,149,33,190c31,53,181,200,203,200
		c16,0,47,58,39,72c-6,9-137-28-201-57c-29-13-55-20-58-15c-7,12,12,133,27,165c13,29,21,31,39,9c7-8,25-22,40-30c24-12,39-11,129,7
		c56,11,104,18,107,15s-9-17-26-32c-32-27-32-27-13-47c28-27,53-16,132,58c36,34,76,68,88,74c65,35,5,37-355,15c-72-5-103-3-103,4
		c0,16,28,28,76,34c27,4,69,25,130,66c169,113,236,136,404,136c63,0,160-3,215-7l100-8l-30,20c-93,63-406,77-599,26
		c-198-52-341-193-400-395c-43-144-50-223-50-576l-1-340l-53-52c-95-92-125-182-174-507c-27-188-31-246-38-550c-6-251-12-358-24-409
		c-19-85-46-265-45-297c1-13,5-1,10,27s35,113,68,190c33,76,65,168,72,203c12,64,12,64,30,42c24-30,58-121,75-205l15-69l-28-23
		c-20-16-33-20-45-13c-20,11-14,18-108-149c-64-113-79-124-80-57c0,22-3,26-9,15c-15-26-21-260-11-408c6-79,19-188,30-243
		c57-277,129-346,547-519l151-63v-106c1-134,16-206,102-466c80-247,100-340,100-481c0-116-13-191-170-999c-152-781-147-750-169-1122
		l-20-332l-48-42c-26-24-93-87-147-141c-55-54-103-98-107-98c-5,0-12-6-16-14s-52-60-105-115c-175-182-318-378-318-434
		c0-7-8-31-19-53c-10-21-22-55-26-74c-11-51-38-100-88-159c-24-28-59-80-77-114c-169-324-748-669-1680-1001c-102-37-207-75-235-85
		c-27-11-77-28-110-37c-33-10-167-53-298-96s-243-78-250-78c-6,0-41-9-77-20c-185-56-379-113-410-120c-47-10-445-114-595-155
		c-66-18-140-36-165-40s-79-18-120-30c-41-13-95-26-120-30s-133-28-240-55c-107-26-274-64-370-85c-96-20-186-41-200-45
		c-14-5-74-19-135-30C2,30,0,30,0,14C0,2,770,0,5240,0h5241l-12,23c-6,12-22,33-34,47c-28,31-64,135-76,220c-17,119-22,326-9,412
		c70,484,311,965,723,1448c88,104,325,350,360,375c8,6,66,54,128,109c450,390,1007,711,1619,934c176,64,408,138,490,156
		c36,7,155,34,265,59c196,45,359,72,620,102c72,8,173,21,225,29c93,14,575,124,635,145c17,6,102,34,190,62c182,59,389,138,518,198
		c49,23,91,41,93,41c11,0,248,131,372,205c115,68,371,275,464,373c88,94,164,196,227,307c56,97,131,279,131,317c0,13,7,59,15,103
		c33,184,4,462-70,675c-34,99-161,367-189,400c-7,8-16,23-19,33c-14,38-194,311-286,431c-93,124-234,289-288,337c-22,20-42,41-44,46
		c-8,18-224,216-325,297c-189,151-444,316-644,416c-47,23-115,57-151,76c-148,74-412,177-629,246c-52,16-135,43-185,58
		c-49,16-160,49-245,74c-140,40-199,60-420,141c-36,13-112,31-170,39c-134,20-434,46-525,46c-38,0-108,4-155,10c-47,5-173,14-280,20
		c-333,17-657,52-833,90c-140,31-227,78-227,123c0,91,302,250,558,293c196,33,334,52,462,64c74,6,212,26,306,44
		c139,27,187,41,255,74c162,78,265,179,337,329c33,69,37,88,40,174c10,251-123,498-446,829c-80,83-151,150-158,150c-6,0-14,6-17,14
		c-6,14-74,74-436,380c-180,154-191,161-276,181c-83,19-159,19-255,0c-91-17-101-21-313-102c-92-35-176-63-185-61c-21,5-19,34,7,91
		c10,23,44,104,76,179c60,145,140,302,202,396c87,131,232,258,341,298c118,43,175,76,231,132c138,138,179,371,102,582
		c-74,201-147,281-351,378c-47,22-116,51-155,64c-38,12-71,24-73,24c-6,3,41,130,62,168c13,23,46,77,75,121c28,44,51,83,51,87
		c0,13,108,172,139,206c17,18,31,41,31,52c0,10,34,74,77,142c42,68,156,254,253,413c97,160,194,316,214,348c20,31,40,65,43,75
		c4,9,21,37,39,62s43,65,56,90c14,25,50,84,81,132s57,90,57,93s32,56,71,117c39,62,74,119,78,128c10,25,83,139,119,183
		c18,23,44,67,58,97c75,162,106,215,217,362c65,87,92,112,53,49c-14-22-26-42-26-45c0-2-36-73-81-157c-45-85-106-201-136-259
		c-31-58-66-123-79-145c-34-57-184-368-184-381c0-3-13-32-29-64s-51-106-76-166c-26-60-60-136-75-169s-49-109-75-170
		c-26-60-58-132-70-160c-57-126-65-144-65-149c0-3-15-38-34-78c-76-163-78-170-71-204c8-43,17-48,58-30c43,18,199,171,262,258
		c27,37,50,66,53,64c2-2-1-12-7-23c-21-34-73-158-138-323c-152-389-134-459,120-460c152,0,177-16,177-112c0-41,12-47,46-24
		c31,22,42,71,69,318c27,241,32,263,89,376c23,46,47,119,66,200c16,70,41,159,55,197l25,70l-5-58c-3-32,2-142,10-246l15-187l-25-73
		c-13-41-29-79-34-85s-12-25-15-43c-4-17-14-37-22-44c-22-18-17-58,12-84c15-14,30-25,34-25c19,0,59,43,65,70c4,16,11,32,16,35
		c5,4,9,17,9,30s5,27,10,30c6,3,10,0,10-7c0-25,91-194,123-227c72-75,144-128,185-135c51-8,122,17,122,44c0,10,3,32,6,49
		c6,29,2,37-42,78l-49,45v67c1,36,7,138,14,226c12,140,18,174,53,275c60,173,111,278,143,290c38,15,39,14,101-40c63-55,88-65,137-56
		c40,7,99,67,117,116c6,19,14,87,17,150c5,111,4,120-26,209c-33,95-91,224-136,296c-13,22-27,47-31,55s-31,56-61,105
		c-30,50-58,97-63,105s-23,40-41,70c-31,54-81,204-100,305c-5,28-21,90-36,138c-19,63-23,91-15,99c7,7,16-9,31-58
		c11-38,32-109,46-159c15-49,36-121,47-160c49-169,106-251,203-295c153-69,193-91,199-113c11-40,6-50-41-94c-45-42-46-45-37-80
		c7-27,16-39,37-46c88-29,197,65,197,171c0,38-14,61-128,212c-66,89-158,177-211,205l-34,17l7,152c3,83,11,169,16,191s10,95,10,162
		v121l-34,12c-19,6-46,26-59,44c-42,54-106,207-113,271l-7,58l39-7c36-7,170-74,162-81c-2-2-22,2-45,8s-45,8-49,4
		c-10-10,15-97,35-126c41-58,109-210,121-271c9-42,13-134,12-263l-1-199l29-64c68-151,149-242,435-486c94-80,185-162,202-181
		c90-99,154-179,181-223c34-55,62-167,62-245c0-28,6-77,14-108s17-68,20-82c3-15,12-29,20-32c10-4,13,6,13,46c0,29,5,132,12,230
		c19,281,2,379-84,509c-55,81-115,207-189,398c-73,185-109,263-152,323c-19,26-34,49-34,51c0,3-22,51-49,108c-50,107-96,237-86,246
		c3,3,5,0,5-6c0-7,4-12,9-12c13,0,94-87,160-169c69-85,134-196,185-311c16-36,42-94,58-130c16-35,30-79,31-97c2-24,7-33,20-33
		c22,0,92-48,258-177c70-54,144-111,165-128c182-140,284-229,284-247c0-15,5-18,20-13c13,4,28-2,47-20c24-24,25-26,7-21
		c-19,6-23,0-33-41c-24-96-25-97-78-125c-71-36-173-107-179-123c-9-22,8-44,148-186c130-133,136-138,272-210c143-76,229-142,271-209
		c46-73,83-146,89-177c10-45,36-52,36-10c0,18,9,59,21,92c18,51,19,67,10,119c-15,93-31,228-31,269c0,20-9,54-20,74s-22,63-26,95
		s-11,61-15,64c-5,3-9,9-9,14s47-28,104-73s125-99,152-119c27-21,83-64,124-96c101-78,311-227,346-245c132-67,93-8-164,250
		c-233,232-656,643-747,725c-27,24-79,73-115,109c-36,35-157,152-269,259s-216,207-229,223c-14,15-28,27-32,27s-58,52-120,115
		c-63,63-117,115-120,115s-105,99-226,221c-120,122-254,247-297,280c-91,68-371,255-444,296c-28,15-86,49-129,75
		c-126,75-284,137-331,130c-12-2-26-15-32-30c-17-41-87-148-155-235c-33-43-83-106-109-140s-85-100-130-147s-104-120-131-162
		c-27-43-55-78-62-78c-20,0-115-147-121-188c-7-43-156-356-207-437c-20-30-36-58-36-60c0-3-16-20-35-37c-35-30-125-142-125-155
		c0-3-26-30-57-60c-42-39-65-53-86-53c-26,0-28-3-23-25c4-17-6-54-34-118c-22-52-40-97-40-100c0-16-125-273-184-377
		c-14-25-36-65-50-90c-35-66-137-219-235-354c-47-65-95-132-106-148c-29-43-127-78-222-78h-72l-57,98c-31,53-65,109-75,124
		c-11,15-19,30-19,33c0,15-149,269-191,325c-42,57-277,300-290,300c-9,0-529,524-529,533c0,23,57,115,96,154c24,25,44,47,44,49
		c0,6,232,276,292,341l48,52v-37c0-35,8-51,53-114c17-25,17-27-23-106c-22-45-40-85-40-90s-8-20-18-33s-23-36-30-51
		c-10-23-9-28,3-28c8,0,31,32,51,73c20,39,42,79,49,87c8,8,28,43,45,78c17,34,35,62,40,62c17,0,49-57,64-116c8-32,25-102,39-154
		c13-52,34-135,46-185c29-120,56-175,85-175c15,0,27,9,34,25c16,35,39,131,47,195c4,30,18,120,32,200c13,80,28,179,33,220
		c12,94,65,369,74,378c18,17,61-25,76-74c20-65,51-107,95-128c19-10,43-28,52-42c19-30,41-18,25,13c-6,11-14,43-18,72
		c-4,30-16,64-28,79c-36,45-46,80-45,160c1,125,12,180,42,210c23,22,30,25,54,16c27-9,28-13,35-99c4-50,3-128-2-175s-17-175-26-285
		c-28-351-63-543-133-736c-29-80-37-139-18-139c10,0,23,23,37,64c11,34,29,80,40,102c11,21,20,44,20,52c0,7,8,29,19,50
		c10,20,21,53,25,74c4,20,28,87,55,150c66,153,116,315,131,418c6,47,23,131,36,188s24,111,24,120c0,10,44,54,98,99
		c53,45,142,121,197,168c109,94,166,135,190,135c10,0,36-43,73-117c60-124,72-139,219-273c51-46,107-105,125-132c31-45,55-65,66-54
		c6,7-9,62-47,166c-28,78-37,91-113,167c-71,70-91,97-137,190c-148,295-375,568-561,670l-35,20l-3,207l-2,208l80-4c44-2,80,0,80,4
		c0,5,9,8,20,8s20,4,20,9c0,10-74,21-147,21c-35,0-52,4-48,11c5,7,39,8,102,3c71-5,94-4,89,5c-4,6-1,11,8,11c25,0,19,17-8,24
		c-13,3-62,9-110,12l-86,7v38c0,38-13,58-25,39c-5-7-12-5-21,7c-13,17-13,17-14-2c-1-18-2-17-16,5c-14,24-14,22-8-32c4-39,3-58-4-58
		s-13,30-15,73l-3,72L12252,18233z M12340,18190c0-16-4-30-10-30c-5,0-10,14-10,30c0,17,5,30,10,30
		C12336,18220,12340,18207,12340,18190z M12297,18178c-3-8-6-5-6,6c-1,11,2,17,5,13C12299,18194,12300,18185,12297,18178z
		 M12420,18129c-28-5-48-5-54,1c-7,7,9,10,45,9l54-1L12420,18129z M12533,18123c-7-2-21-2-30,0c-10,3-4,5,12,5
		C12532,18128,12539,18126,12533,18123z M12343,17853c4-108,5-198,3-201c-3-2-9-1-15,3c-13,8-15,395-3,395
		C12333,18050,12340,17962,12343,17853z M12285,17866c-1-122,2-156,12-156c15,0,18-46,3-55c-5-3-10,0-10,7c0,9-3,9-10-2
		c-6-10-10,52-10,185c0,110,4,195,8,188C12282,18027,12285,17951,12285,17866z M12305,17822c-11-11-12,6-6,88l6,85l3-84
		C12310,17865,12308,17825,12305,17822z M12307,17733c-3-10-5-2-5,17s2,27,5,18C12309,17758,12309,17742,12307,17733z M12486,17453
		c32-37,79-90,105-118c132-143,199-218,195-222c-7-7-190,16-224,28c-18,6-37,20-43,30c-5,10-27,28-48,39c-21,10-55,35-75,53
		c-43,41-46,75-19,199C12396,17554,12398,17554,12486,17453z M11943,17253c-3-10-20-49-38-88c-18-38-36-81-40-95
		c-13-42-53-98-74-105c-11-3-18-12-15-20c5-12-75-70-84-60c-8,8,11,48,39,80c17,18,41,54,54,78c13,25,48,79,79,120
		c31,42,56,80,56,86c0,8,7,13,27,20C11948,17270,11947,17262,11943,17253z M11660,16746c0-3-4-8-10-11c-5-3-10-1-10,4
		c0,6,5,11,10,11C11656,16750,11660,16748,11660,16746z M11803,16735c-3-9-8-14-10-11c-3,3-2,9,2,15
		C11804,16755,11810,16752,11803,16735z M11610,16707c0-2-12-14-27-28l-28-24l24,28C11602,16708,11610,16715,11610,16707z
		 M11770,16680c-12-16-24-30-26-30c-3,0,4,14,16,30c12,17,24,30,26,30C11789,16710,11782,16697,11770,16680z M11416,16481
		c-9-16-26-42-39-57c-13-16-27-37-30-47c-8-21-27-14-27,10c0,13,96,121,108,123C11429,16510,11424,16497,11416,16481z M14039,16305
		c-23-30-43-55-45-55s2,15,10,33c8,17,28,72,43,121l28,88l3-66C14081,16363,14080,16359,14039,16305z M11322,16328c-7-7-12-8-12-2
		c0,14,12,26,19,19C11331,16342,11328,16334,11322,16328z M14081,15999c-43-170-97-344-118-378c-24-37-22-118,4-172
		c39-83,55-84,141-5c42,37,44,38,24,9c-12-17-22-34-22-37s-15-29-33-58s-39-65-46-79c-8-17-19-25-30-22c-28,7-72-37-103-101l-28-61
		l4,45c3,25,10,117,16,205c9,121,17,176,35,225c13,36,42,126,65,200c48,158,102,312,106,307C14098,16075,14091,16040,14081,15999z
		 M9965,15985c66-20,138-42,160-47c48-12,270-117,262-124c-3-3-29-1-59,5c-29,6-123,25-208,42c-195,38-248,62-278,125
		c-15,30-18,45-10,42C9839,16025,9899,16006,9965,15985z M10478,15794c33-7,49-31,32-48c-6-6-17-3-33,12c-13,12-28,22-35,22
		c-6,0-14,5-17,10C10418,15801,10434,15803,10478,15794z M10033,15692c15-31,52-83,83-115c30-31,51-57,46-57c-12,0-125,81-166,119
		c-26,24-76,93-76,106c0,3,19,5,43,5C10004,15750,10005,15749,10033,15692z M8605,15582c72-25,336-214,321-229c-2-2-63,30-136,71
		c-72,42-144,79-158,82c-43,11-99,42-106,59C8511,15606,8527,15609,8605,15582z M10315,15458c28-8,45-19,53-36c16-35,9-38-30-14
		c-53,33-105,75-83,68C10266,15472,10293,15464,10315,15458z M10811,15433c13-16,12-17-3-4c-17,13-22,21-14,21
		C10796,15450,10804,15442,10811,15433z M8375,15348c-10-47-55-145-73-160s-20-20,31,109C8365,15381,8387,15407,8375,15348z
		 M6362,15174c18-20,37-53,80-138c28-54,103-304,94-313c-2-2-13,22-24,54c-24,67-155,375-177,415c-8,14-15,30-15,35c0,4,6-1,12-12
		S6351,15186,6362,15174z M10987,15092c-10-10-17-21-17-24c0-12-42-99-46-96c-2,3,7,38,21,79c38,111,36,107,48,81
		C11001,15115,10999,15106,10987,15092z M16367,14852c79-79,142-146,140-148s-42,34-88,81s-87,85-90,85s-30,24-60,53s-72,68-94,86
		l-40,33l44-22C16206,15006,16280,14941,16367,14852z M13930,14949c-24-98-39-157-55-224c-27-111-31-117-39-58c-6,45-2,65,30,150
		c20,54,40,103,44,108c4,6,11,25,15,43s9,31,11,29C13939,14995,13936,14973,13930,14949z M10904,14895c-20-63-23-252-5-314
		c16-55,95-226,166-361c32-59,32-83,0-40c-14,19-25,38-25,43s-15,32-34,60c-99,153-181,355-177,439c2,37,78,234,87,225
		C10918,14945,10912,14922,10904,14895z M16555,14670c10-11,15-20,11-20c-14,0-46,21-46,30C16520,14696,16536,14691,16555,14670z
		 M12043,14156l-38-55l-27,32l-27,32l28,7c16,5,42,15,57,23C12082,14219,12083,14213,12043,14156z M4205,13622c-11-10-66-58-122-106
		c-57-48-113-100-126-115c-12-14-40-39-62-55l-40-29l45,49c67,73,181,184,189,184c3,0,33,20,66,45C4217,13642,4239,13653,4205,13622
		z M12121,13580c127-41,160-60,229-131c61-63,85-115,110-236c29-144,23-281-14-350c-27-49-110-124-153-137c-12-4-43-33-69-65
		c-46-57-65-70-198-132c-56-27-131-107-147-159c-12-35-57-98-155-218c-34-42-57-82-68-120c-10-31-28-88-42-127c-14-38-26-77-28-86
		c-2-8-17-53-33-100c-40-117-35-144,30-191c45-34,58-38,111-38c44,0,70,6,100,24c35,20,60,24,169,30c84,5,146,14,182,27
		c30,10,62,19,71,19c10,0,25,6,33,13c9,7,34,20,56,28c33,13,45,13,70,3c17-7,40-13,52-14c12,0,56-28,99-62c42-35,91-74,109-88
		c88-68,176-142,228-193c32-32,62-57,66-57c5,0,26-16,47-36c21-19,58-52,81-72c237-206,381-429,485-747c23-71,29-108,29-179
		c1-87,0-91-26-112c-15-12-48-31-74-43c-25-12-54-26-63-32c-10-5-24-9-33-9c-8,0-29-6-47-14c-27-12-172-58-303-96
		c-16-5-67-14-113-20s-93-15-105-19c-43-17-126-33-136-26c-6,3-28,1-48-4c-21-5-78-17-128-27c-49-9-101-20-115-24s-52-13-85-20
		c-116-23-211-52-275-83c-74-36-150-84-150-96c0-4-47-56-105-116l-105-108v-74v-74l74-72c66-65,97-86,216-148c20-10,88-25,159-34
		c68-9,142-22,165-30c22-8,52-15,66-15s59-9,100-20s109-25,150-30c41-6,121-21,178-36c100-24,119-28,250-38c35-3,83-11,105-17
		c23-7,60-15,82-19c74-14,259-51,345-70c47-10,110-21,140-24c30-4,107-17,170-30s158-31,210-40c103-18,164-34,280-73
		c41-13,93-29,115-34c22-6,74-21,115-35c94-31,178-55,210-61c14-2,34-8,45-13c11-4,43-16,70-25c28-10,54-22,59-26c6-5,18-9,28-9
		s52-18,94-40s81-40,86-40s34-11,64-25s58-25,62-25c7,0,175-79,217-102c11-6,102-53,202-104c176-88,279-151,333-199
		c14-12,44-34,66-48c23-14,62-45,86-69c25-24,76-72,113-106c36-35,79-83,93-105c15-23,37-53,50-67s59-68,102-120
		c94-112,135-160,174-201c16-17,50-59,75-93c86-118,146-198,176-235c33-38,115-198,115-222c0-8,6-23,13-34c14-21,47-105,68-170
		c26-81,17-540-12-596c-4-9-13-43-18-77c-13-79-58-170-157-316c-43-64-90-136-104-159c-58-96-72-117-81-117c-4,0-14-11-21-24
		s-58-72-113-130c-107-114-235-214-325-254c-30-13-91-41-135-62s-98-43-120-50c-206-58-359-90-440-90c-22,0-90-11-150-25
		c-102-24-218-43-290-49c-58-5-212-27-335-47c-274-45-411-79-615-150c-16-6-50-17-75-24c-57-17-104-34-155-55c-22-10-57-23-77-29
		c-20-7-42-19-48-27c-7-7-18-14-25-14c-6,0-47-18-91-39c-155-78-216-101-282-111c-37-5-83-14-102-20s-60-15-90-19
		c-76-13-166-39-225-66c-27-12-81-37-120-54c-38-17-77-36-85-41c-19-13-26-15-265-112c-110-44-205-84-210-88c-6-5-37-18-70-31
		c-33-12-65-26-72-31c-6-5-42-25-80-44c-37-19-75-38-83-43s-62-32-120-60c-229-111-259-133-419-295c-74-75-136-136-138-136
		c-12,0-252-255-358-379c-66-78-123-141-127-141c-3,0-22-24-43-52c-61-89-86-122-105-143s-55-80-87-145c-9-19-25-44-34-55
		s-35-56-58-99c-23-44-48-87-56-96c-8-8-22-34-30-55c-18-44-44-102-83-185c-14-30-35-75-46-100s-27-61-37-80c-9-19-20-51-24-70
		s-11-41-15-50c-39-75-70-141-70-150c0-5-8-29-18-53c-24-53-47-131-67-227c-9-41-21-92-26-114c-6-21-19-86-29-145
		c-10-58-25-122-34-143c-18-41-82-97-141-120c-36-15-138-30-190-29c-23,1-220-33-310-54c-48-10-249-13-1005-14
		c-2135-3-3402-15-4010-37c-91-3-185-7-210-7c-190-5-3482,4-3477,10c4,3,28,7,55,9c26,1,97,11,157,22c149,28,268,47,278,44
		c6-2,72,9,237,39c30,6,75,12,100,13c25,2,98,13,163,25s135,24,155,26s73,9,117,15c44,6,91,13,105,14c114,13,354,57,435,81
		c28,8,77,19,110,24s96,16,140,25s149,29,232,46c84,16,161,33,171,39c27,15,197,69,239,77c35,6,99,34,195,85c20,10,45,19,55,19
		s27,6,38,14c11,7,31,16,45,20s61,25,105,46s107,48,140,60c33,11,98,39,143,61c46,23,100,47,120,54c21,7,69,28,107,47
		c39,19,86,41,105,48c19,7,53,26,74,42c22,15,43,28,48,28c4,0,62,37,129,82c66,46,133,89,148,97c14,7,33,20,42,28s32,22,50,32
		c102,54,136,74,154,90c32,27,77,57,115,76c19,10,52,32,72,49c83,69,106,86,118,86c29,0,221,220,257,295c13,28,33,66,43,85
		c11,19,19,42,20,50c0,8,12,47,26,85c14,39,30,88,36,110s23,74,38,115s38,104,51,140c26,74,53,127,94,185c22,32,27,35,22,15
		c-3-14-8-43-12-65c-5-36-3-34,13,15c37,109,106,269,114,264c20-12,47-85,54-141l6-61l-38-11c-22-6-44-11-51-11c-17,0-35-64-27-96
		c4-16,16-48,27-72c10-24,17-45,15-46c-10-8-91-36-103-36s-15,16-16,73c-1,72-1,72-9,22c-5-27-10-94-13-148l-4-97l41-31
		c22-16,67-37,99-46c31-9,57-20,57-25s-11-55-25-110c-61-239-84-405-71-511c7-54,8-55,56-76c192-82,764-161,1175-161h130l34,56
		c34,56,34,58,22,119c-6,34-11,76-11,92c0,54,12,57,208,49c97-4,211-11,252-16c84-10,460-11,675-1l140,6l-3,65c-3,61-27,239-34,245
		c-2,2-65,10-141,19c-151,18-212,37-296,92c-91,60-223,206-322,355l-16,23l-6-23c-4-17,1-29,19-46c18-16,24-33,24-62
		c0-45-18-66-51-61c-28,4-43,54-36,111l5,38l-26-17c-79-51-72-49-72-21c0,14-3,32-6,40c-4,12,3,16,28,19c30,3,33,6,36,41
		c4,43,13,47,36,12c39-60,49,23,15,121c-27,75-59,99-120,89l-40-7l7,39c8,48,8,47,34,33c12-6,24-9,27-6c10,10-15,81-41,117
		c-64,87-77,118-85,191c-10,93,2,243,34,408c19,94,65,406,65,437c0,1,15,18,33,37c17,18,52,59,77,91c25,31,54,66,65,78
		c11,12,34,42,50,66c34,52,270,291,286,291c6,0,23,9,37,20c63,48,147,98,311,182c95,49,175,88,176,86s15-60,29-130
		c15-70,58-227,97-349c65-208,68-226,63-288c-7-79-2-99,83-336c105-289,114-334,123-590l7-220l52-157c63-196,64-222,11-324
		c-53-100-59-145-30-230c14-43,20-79,17-100c-6-36,1-42,22-21c11,10,12-4,6-78c-8-102-9-105-35-105c-16,0-19,9-22,57l-3,57l-19-28
		c-18-28-18-32-2-81c20-65,21-59-13-97c-49-57-81-110-81-136c0-21-3-23-22-18c-13,4-48,10-79,13c-51,5-56,7-51,27c6,24,16,39,55,86
		c26,31,29,32,41,14c13-17,16-17,62,11c69,43,68,55-3,55c-72,0-159-24-171-48c-28-52-20-208,11-239c9-9,37-19,64-24
		c69-11,638,8,754,26c243,36,404,134,492,300c18,32,22,56,21,120c-1,68-9,105-53,240c-73,222-73,221-14,390l48,140l-5,365l-5,365
		l-57,320c-32,176-74,399-94,495c-33,162-36,184-30,295c6,130,33,303,100,629l42,209l39,14c21,7,40,12,42,10s28-118,58-258
		c30-141,73-320,95-399c24-85,51-214,66-319c21-146,35-202,79-332c65-189,121-407,136-532c11-84,29-130,45-115
		c10,11-139,731-211,1013c-24,94-59,223-80,288c-32,104-36,128-34,214c1,97,1,99-45,193c-47,98-80,240-60,259c5,5,67,25,138,46
		l130,36l40-29c23-16,77-54,120-86c44-31,137-87,208-122c160-82,342-191,636-382c332-216,628-392,661-392c6,0,11,10,11,23
		c0,19-17,31-97,71c-147,72-234,124-510,302c-138,90-307,195-375,233c-102,58-130,80-166,126c-48,61-71,75-221,135
		c-126,50-261,117-261,130c0,5,17,12,38,15c20,3,60,12,87,20c48,14,121,28,235,44c30,5,135,25,233,45s198,36,221,36s82,9,132,20
		c101,23,213,40,293,45c30,2,94,13,143,25s110,20,136,20c99-2,173,6,357,40c33,6,80,13,105,15c25,1,77,9,115,15c39,7,88,14,110,15
		c36,2,331,35,465,52c30,3,66,7,80,8s72,5,130,9s123,11,145,16s76,11,120,15c83,6,111,11,260,44c50,11,119,22,155,26
		c137,13,288,48,375,85c22,10,57,23,77,29c21,7,56,28,79,46c22,19,66,42,97,51c87,25,129,44,153,70c12,13,28,24,35,24
		c23,0,85,62,104,104c34,72,46,354,22,519c-6,37-8,76-5,86c13,52-84,301-117,301c-5,0-18,20-29,44c-19,45-158,196-180,196
		c-6,0-51,40-99,90c-49,49-94,90-101,90s-29,12-47,28c-19,15-49,39-68,54c-18,15-68,45-111,67c-42,22-85,47-94,55
		c-19,17-169,96-183,96c-5,0-28,9-51,19s-71,31-107,46c-36,14-83,34-105,45c-22,10-67,28-100,40s-83,33-112,46c-28,13-63,24-76,24
		s-50,9-83,21c-32,11-84,27-114,34c-68,16-136,33-175,46c-16,5-68,20-115,33s-105,32-130,41s-72,25-105,35s-74,23-91,28
		c-17,6-47,16-65,25c-19,8-61,22-94,31c-33,10-82,26-110,36c-27,10-68,23-90,29c-22,7-69,23-105,36c-36,12-92,31-125,41
		s-67,24-76,31c-8,7-26,13-38,13s-34,9-50,21c-15,11-54,26-87,34c-93,21-127,31-164,47c-19,8-57,24-85,36c-27,11-77,31-110,45
		s-83,28-112,32l-51,7l-32,81c-88,225-226,460-330,566l-59,60l51,60c28,33,58,63,67,65c21,7,146,27,196,31c22,3,67,9,100,14
		c33,6,143,12,245,15s223,10,270,16c97,11,237,37,252,46c6,4,42,10,82,15c39,4,105,13,146,19c148,22,307,40,400,45
		c170,11,278,55,315,130c30,62,28,203-4,269c-27,54-122,153-186,194c-22,14-98,84-170,155c-71,71-150,146-175,167
		c-178,149-421,310-470,310c-9,0-24,6-35,14c-11,7-38,16-60,19s-105,16-185,30s-199,28-265,32c-108,5-323,39-508,80
		c-37,8-85,27-107,41c-67,44-110,140-110,246c0,56,0,57,53,100c28,24,73,54,99,68c26,13,71,41,100,62s76,53,103,72
		c28,19,80,58,117,88c37,29,126,99,197,156c72,56,136,111,144,122s64,73,125,138c157,166,229,281,260,414c17,72-4,164-65,278
		c-48,91-132,223-159,251l-25,26l20,44c18,43,71,101,101,112C11951,13631,11987,13623,12121,13580z M6251,11042
		c-45-63-152-145-168-128c-3,2,1,14,7,26c8,15,17,19,31,15c13-4,19-2,19,8c0,9,24,36,53,61C6253,11076,6282,11085,6251,11042z
		 M8650,10661c0-5-17-15-37-21c-21-7-48-19-60-26c-19-12-21-18-12-40c12-32,8-38-14-21c-10,6-20,28-23,48l-6,35l64,16
		C8640,10671,8650,10672,8650,10661z M6110,10626c0-2,2-11,6-19c3-9-12-25-44-45c-26-18-59-43-72-57c-25-27-42-33-36-12
		c3,6,7,25,11,41c9,40,71,96,107,96C6097,10630,6110,10628,6110,10626z M6976,10565c33-33,56-89,48-119c-5-20-14-26-47-31
		c-23-4-49-8-58-11c-12-3-24,15-49,73l-32,77l22,18C6893,10598,6946,10595,6976,10565z M7540,10390c50-128,135-303,165-338
		c16-19,25-41,23-54c-4-33-32-29-36,5c-4,32-2,31-47,10c-41-20-44-30-10-39c18-4,25-13,25-29c0-28-15-34-58-23c-35,9-72,57-72,94
		c0,12-7,28-16,35c-13,11-17,10-25-4c-6-9-21-29-34-45l-24-27l-1,63c0,34-4,62-9,62c-10,0-41-84-41-110c0-22,28-47,70-61
		c30-11,35-10,51,10c23,28,39,19,39-19c0-25-8-34-52-60c-39-22-66-30-103-30c-69,0-125-11-125-23c0-6,10-21,22-34c17-18,22-34,19-61
		c-4-54-15-58-36-12c-22,49-67,91-136,125l-50,26l67-65c36-36,64-71,61-78c-18-50-18-56,5-64c42-13,80-46,115-103
		c46-73,89-118,136-142c23-12,37-27,37-38c0-18-3-18-47-5c-25,8-51,14-58,14c-21,0-40-82-39-167c1-46-2-83-7-83s-17,16-26,35
		c-11,22-27,38-47,45c-31,10-31,10-28,72l3,63l-113,117c-67,69-131,125-156,138l-43,21l-50-32l-50-32l38-39c32-34,99-78,117-78
		c10,0-15,55-41,88c-32,43-23,52,18,18c17-15,45-30,60-33c34-6,33-5,14-68l-14-48l57-74c55-71,58-73,95-69c35,4,37,2,37-23
		c0-68,29-129,90-188c77-74,79-95,10-118c-27-9-64-15-82-13l-33,3l33,31l32,30l-32,57c-18,31-39,56-45,57c-24,0-15-134,18-279
		c33-150,32-177-12-336c-31-112-26-156,22-223c36-51,40-61,34-97c-3-22-15-54-25-72s-16-34-12-36s42-1,86,3c43,4,99,3,124-2
		c52-9,64-2,93,53c12,25,19,59,19,97c0,40,5,64,14,72c12,9,17,4,27-32s8-62-11-168c-12-69-24-127-26-129c-12-14-371-69-467-72l-42-2
		l35-6c32-5,35-9,41-47l5-42l-60-6c-34-3-103-18-155-32c-51-14-100-23-107-20c-8,3-14,20-14,39c0,29,8,41,43,69
		c104,85,183,122,307,143l75,13l-72,1c-52,1-90-6-140-23c-192-68-229-82-234-90c-4-5-10-52-14-105s-11-104-16-113
		c-14-27-54-22-79,10l-22,27l6-31c6-27,4-32-15-37c-12-3-26-4-31-1c-16,10-8,89,19,181c26,90,28,93,56,93c23,0,28,3,23,16
		c-13,33-26,151-26,236c0,48-4,89-8,92c-5,3-14-57-21-132c-6-75-15-140-20-145c-4-4-21-4-38-1c-29,6-31,8-22,31c5,14,18,38,29,53
		c25,36,25,48-2,77c-20,21-21,27-10,74c15,63,10,72-15,27l-18-33l-2,35c-2,19-7,123-12,230l-9,194l-42,40c-23,21-46,53-51,70
		c-14,48-11,226,5,309c63,326,301,719,500,823l55,29l-30,31c-29,30-53,87-41,98c3,3,32,6,64,6c67,0,101-14,171-72c51-43,58-41,28,8
		c-21,34-74,78-106,88c-18,5-20,16-22,97c-4,127-24,158-118,177l-40,9l62,7c34,4,67,5,73,1c23-14,70-128,79-191c6-36,12-69,16-72
		c3-3,22,2,41,13c30,16,59,50,139,163c20,27,69,31,61,5c-3-10-8-35-12-56l-7-39l41,21c34,17,43,28,52,64c6,23,17,65,25,92
		c7,28,19,70,25,94s15,40,19,35S7522,10437,7540,10390z M6766,10395c-3-8-10-15-15-15c-7,0-6,10,1,26
		C6764,10432,6777,10422,6766,10395z M8960,10275c6-8,10-19,8-24c-1-5-11,2-21,15C8928,10292,8939,10300,8960,10275z M6920,10211
		c0-6-4-13-10-16c-5-3-10,1-10,9c0,9,5,16,10,16C6916,10220,6920,10216,6920,10211z M8090,10099c0-17-20-29-20-11c0,4-3,18-7,32
		c-6,22-5,24,10,11C8082,10124,8090,10109,8090,10099z M9449,10101c22-14,2-31-38-31c-35,0-61,14-61,32
		C9350,10113,9431,10112,9449,10101z M6855,10049c-8-12-32-12-40,1c-11,18,5,31,26,20C6852,10064,6858,10055,6855,10049z
		 M9425,10021c8-14-35-181-47-181c-6,0-8,31-7,74c3,62,0,78-15,95c-19,21-19,21,22,21C9400,10030,9421,10026,9425,10021z M9339,9871
		c12-8,12-16,1-55c-12-42-15-46-44-46c-48,0-61,13-35,36c11,10,27,31,35,46C9312,9882,9317,9885,9339,9871z M6450,9833
		c0-14-41-75-46-70c-7,6,28,77,38,77C6446,9840,6450,9837,6450,9833z M6550,9831c0-6-4-13-10-16c-5-3-10,1-10,9c0,9,5,16,10,16
		C6546,9840,6550,9836,6550,9831z M7505,9786c-4-18-2-50,3-70c8-29,7-39-5-51c-15-16-15-16,34-30c6-2,17-13,23-24c10-20,8-21-42-20
		c-29,0-75,4-103,7l-50,7v69v68l49,39c27,22,59,39,73,39C7509,9820,7510,9817,7505,9786z M6715,9789c-19-58-48-108-66-114
		c-11-4-23-4-26-1c-12,11,9,77,33,106C6687,9816,6725,9822,6715,9789z M9564,9743c-4-21-11-48-15-61c-5-13-9-37-9-53s-2-29-4-29
		s-24,12-50,26c-38,21-46,31-46,54c0,64,34,98,98,99C9571,9780,9571,9780,9564,9743z M6550,9724c0-8-4-14-10-14c-5,0-10,9-10,21
		c0,11,5,17,10,14C6546,9742,6550,9732,6550,9724z M8803,9690c5-4-20-24-54-43c-35-20-65-34-67-32c-3,2,8,25,23,50
		c25,43,29,46,58,40C8781,9701,8799,9694,8803,9690z M9715,9690c0-11-12-15-49-15c-49,0-75,19-39,28C9664,9713,9715,9705,9715,9690z
		 M8625,9676c13-13,29-42,35-65c8-31,17-42,36-47c36-9,168,2,194,16c12,7,21,8,19,3c-2-4-21-40-42-80c-40-78-30-72-159-104
		c-46-11-48-11-98,26l-50,37v57c0,32,3,86,6,120C8574,9707,8586,9715,8625,9676z M8526,9655c10-25-16-75-38-75c-16,0-18,5-12,38
		c4,20,9,40,11,45C8494,9676,8520,9671,8526,9655z M8338,9606c63-72,108-272,99-441c-6-108-12-127-41-123c-33,5-45,71-39,218
		c7,143,2,160-55,189c-53,27-69,49-77,106c-6,50-6,51,27,67C8298,9645,8304,9644,8338,9606z M9417,9608c29-26,157-213,239-351
		c31-50,58-94,60-96c2-3,14,5,27,17l23,22l65-50c35-27,67-50,72-50c4,0,7,11,7,25c0,22,3,25,25,19c20-5,25-2,25,14
		c0,45,22,43,132-12c181-90,276-161,360-265c9-11,15-9,30,13c11,14,28,26,38,26s52-18,94-40s97-43,122-47l46-6l-5-53
		c-9-90-12-90-102-23c-44,33-91,71-106,85c-24,23-69,33-69,15c0-12,130-133,181-168c24-17,68-42,97-57c36-18,52-32,52-46
		c0-25-12-25-79,1c-65,24-68,30,61-112c64-70,88-103,88-123c0-14-3-26-6-26c-4,0-50,39-103,88c-53,48-105,94-116,102
		c-20,15-20,15-1-15c11-16,56-71,102-121c90-100,105-123,113-174c5-26,12-36,31-40c24-6,25-8,24-93c-1-68-5-91-18-106
		c-18-20-18-20-41,7c-40,48-84,124-100,172c-26,79-45,81-195,20l-125-51l-37,43l-37,42l-26-24c-14-13-30-41-37-62c-7-24-17-38-28-38
		c-17,0-105,54-116,71c-8,14,48,79,75,86c23,6,23,7,6,19c-11,8-36,14-56,14c-33,0-45,8-103,68c-70,73-144,163-211,257
		c-36,51-47,80-75,195c-30,123-36,139-71,175c-38,40-39,42-39,117v77l-117,109c-65,61-144,132-175,157l-58,47l-67-38
		c-37-22-69-47-71-57c-3-15,6-17,70-17l73-1l35-43c19-23,71-84,115-134c119-135,140-175,165-312c45-256,68-435,56-442
		c-18-13-41-4-45,17c-6,33-23,35-47,5c-25-29-97-64-155-75c-32-6-35-9-31-35c3-24-1-31-29-45c-18-10-57-19-88-22c-46-4-60-2-81,15
		c-14,11-22,24-18,27c4,4,36,14,70,21l63,13l-80-5c-44-4-81-7-83-9s1-12,7-23c11-21,26-117,35-222c5-60,4-63-9-39
		c-17,32-65,66-65,47c0-7,9-47,20-88c29-109,26-158-10-211c-16-24-25-46-19-47c20-8,59,30,70,68l12,40l16-23c9-14,54-65,102-114
		c77-82,87-89,110-81c24,9,79,6,133-8c22-5,28-4,24,7c-2,8-42,26-88,41c-98,33-109,40-102,73l4,25l77-40c42-22,82-40,88-40
		c17,0,31,55,36,146s10,101,77,194c26,36,50,81,53,100c4,20-2,75-12,128l-19,94l33,125c19,69,36,127,39,131c3,3,15-17,27-43
		c48-107,35-275-52-682c-27-128-49-247-49-266c0-25,9-42,35-67c56-54,15-64-120-30c-52,13-82,17-89,10c-14-14-7-18,63-29
		c78-13,114-43,164-140c51-97,143-396,126-407c-11-7-69,37-103,79c-20,24-26,40-24,65c4,32,3,32-29,26c-29-6-33-4-33,16
		c0,55-165,306-209,317c-14,3-40-2-68-16c-42-20-123-29-123-13c0,4,14,30,30,57c35,59,36,65,11,65c-26,0-51,10-51,21
		c0,13,54,11,66-1c8-8,15-6,23,4c10,12-2,27-69,85c-44,39-89,71-100,71c-12,0-34-22-62-62l-43-63l-3,42c-3,37-9,46-50,77
		c-54,39-90,51-112,37c-19-13-6-25,40-40c32-10,37-17,55-75l20-63l-30,1c-33,1-33,1-24-94c4-40,2-45-16-45c-15,0-24,12-35,42
		c-8,23-19,44-25,47c-17,6-303-351-350-438c-29-55-29-55-10-77l20-22l-50,7c-27,4-59,9-70,12c-12,3-7-3,13-16c37-25,40-42,12-68
		c-29-27-107-48-255-71c-135-21-185-34-185-50c0-19,30-31,111-44l84-14l-63-13c-75-15-80-22-122-144c-16-48-39-103-51-122
		c-14-23-19-43-15-59c5-19,3-23-8-19c-34,13-34,85,0,148l26,49l-38-23c-22-13-43-27-49-32c-16-14-39-9-70,16l-29,23l89,147
		c83,137,87,148,72,164c-16,15-17,15-17-1c0-31-37-90-97-157c-73-80-97-115-111-160c-15-48-43-266-36-284c3-8,19-20,35-26
		c23-10,29-19,29-43v-30l-52,49c-29,27-54,52-56,56s1,23,7,43c9,34,8,36-12,33c-57-8-17-111,81-206l55-54l-13-71c-7-40-15-77-17-84
		c-7-19-62-36-131-42c-42-4-67-11-70-20c-3-10,4-12,34-7c22,3,66,8,100,11c81,9,124,46,124,108c0,37,21,258,25,265c7,9,38-15,50-39
		c17-32,13-48-28-106l-30-42l30-73c17-40,34-87,37-105c9-39-15-89-49-105c-24-11-31-32-37-128l-3-35l-130-5l-130-5l-70,34
		c-38,18-90,39-114,45c-42,11-46,16-82,87c-21,41-42,94-47,117l-10,42h42c34,0,45-5,68-32l27-33l1,31c0,16,7,39,15,50
		c20,27,19,34-10,34c-81,0-101,57-37,109l37,31l-32-6c-32-6-33-5-33,27c0,73,78,171,172,216c37,17,38,20,33,53
		c-16,85-64,150-246,330c-190,188-247,263-279,368c-26,83-26,119,0,127c11,3,57,36,102,72c89,71,167,113,210,113h27l-15,42
		c-14,42-13,68,4,68c15,0,90-104,133-185c34-63,42-88,53-184c16-123,19-132,148-352l74-125l31,8c44,11,95,75,133,166
		c41,99,79,153,123,177c46,24,59,53,65,147c4,72,6,77,23,67c11-5,24-7,30-3c43,26,229,415,229,477c-1,17-7,48-14,67
		c-8,19-23,61-35,94l-21,59l22,216l21,216l-38,75c-50,99-160,294-196,347c-16,23-29,51-29,62c0,20,6,21,94,21h94l24-36
		c12-20,33-55,46-78c21-40,47-66,64-66c5,0,1,11-7,24c-9,13-19,43-23,67c-7,40-10,44-40,47c-17,2-32,7-32,11c0,22,32,30,107,28
		c64-2,79-5,71-14c-6-7-19-13-29-13c-16,0-14-6,14-43c18-24,39-57,46-74c11-26,19-31,59-36c33-4,51-1,61,8c12,12,11,15-10,19
		c-13,3-35,7-49,8c-31,4-52,61-48,128l4,45l17-37c9-21,17-53,17-73c0-19,3-35,8-35c16,0,62,38,106,87c44,48,46,54,40,92
		c-6,39-19,59-30,48c-3-2-16-45-31-96c-14-50-30-91-34-91c-11,0-11,8,1,109c14,108,32,135,214,316c121,121,255,229,308,248
		c10,3,11,8,1,26c-7,11-13,24-13,28c0,5,42,9,93,11c68,2,96,7,107,19c14,14,10,15-40,9c-30-3-65-9-77-12c-20-5-23-2-23,20
		c0,20,6,27,28,32c15,3,32,7,37,10C9330,9645,9394,9630,9417,9608z M8139,9591c6-10,13-49,17-87c7-62,6-68-9-56c-18,15-20,11-36-82
		c-17-96-13-171,13-253l7-23h-140c-77,0-142,3-145,8c-8,13,13,104,37,156c13,28,54,89,92,136c60,75,102,147,119,203
		C8101,9615,8127,9615,8139,9591z M10695,9550c-30-33-91-44-246-45c-109,0-150,3-162,14c-10,7-17,16-17,20c0,3,82,6,183,6
		c143,1,190,4,217,17C10712,9580,10719,9577,10695,9550z M11100,9529c0-5-6-9-14-9c-15,0-26,21-26,48c1,14,5,12,20-7
		C11091,9548,11100,9534,11100,9529z M9075,9480c-3-5-11-10-16-10c-6,0-7,5-4,10c3,6,11,10,16,10C9077,9490,9078,9486,9075,9480z
		 M7145,9378c19-18,43-41,54-50c12-10,21-22,21-27c0-20-46,5-99,55c-49,46-53,53-33,54C7101,9410,7126,9396,7145,9378z M8871,9370
		c71-20,70-33-7-111s-142-124-191-134c-38-8-41-18-13-38c21-14,21-15-10-45c-16-17-30-38-30-47c0-13-6-16-25-11c-40,10-73,24-79,34
		c-3,6,23,37,59,71l65,60v90v89l43,16C8795,9384,8813,9386,8871,9370z M9778,9334c27-42,22-99-9-109c-24-8-79,30-79,53
		c0,19,46,92,58,92C9752,9370,9765,9354,9778,9334z M11204,9352c2-4,14-31,25-60c20-51,20-52,1-62c-28-15-58,3-76,46
		c-19,46-9,84,21,84C11188,9360,11201,9356,11204,9352z M7875,9330c6-10-22-60-34-60c-4,0-5,16-3,35C7842,9338,7861,9352,7875,9330z
		 M8580,9294c0-4-16-24-35-45c-38-43-46-33-15,19C8547,9295,8580,9313,8580,9294z M11304,9148c-8-25-30-22-38,5c-3,12-5,51-5,87v65
		l25-70C11299,9197,11307,9158,11304,9148z M10914,9235l25-25h-77l-77,1l30,24C10853,9267,10883,9267,10914,9235z M7650,9199
		c0-21-4-39-10-39c-5,0-10,21-10,46c0,27,4,43,10,39C7646,9242,7650,9221,7650,9199z M11149,9163c1-7-8-13-19-13s-20-3-20-6
		c0-14,27-53,65-95c23-25,45-54,48-65c3-10,11-38,17-62c6-23,15-40,21-37c24,15,48,86,55,164c7,84,7,84,25,60c24-31,36-92,44-209
		c5-85,16-126,102-385l97-290l-3-370c-3-436,2-482,36-315c60,297,28,717-85,1118c-16,56-26,102-23,102s46-13,96-29
		c49-16,108-33,130-39c22-5,72-19,110-31c243-72,699-194,860-231c227-51,412-118,635-230c52-26,106-51,120-55s32-13,40-20
		s78-45,155-85s167-88,200-107c33-20,81-47,107-62c75-41,357-220,418-265c111-80,166-122,220-165c78-61,268-234,269-244
		c1-5,19-30,42-55c98-112,175-286,163-370c-17-116-66-192-179-276c-139-102-330-175-610-231c-298-60-554-91-985-120
		c-265-18-564-47-720-70c-58-8-141-20-185-25s-99-14-122-20c-24-5-73-15-110-20c-192-30-226-36-578-117c-60-14-144-32-185-40
		s-154-37-250-65s-186-52-200-55c-29-6-123-33-274-79c-59-19-112-32-116-29c-30,19-41,310-16,440c15,75,12,93-10,74
		c-10-8-14-33-14-80c0-38-4-69-9-69c-20,0-41,46-41,90c0,40,5,51,40,85c23,23,40,49,40,61c0,20,7,24,48,29c73,10,263,53,353,80
		c374,112,636,276,718,448c52,109,67,374,27,471c-16,37-94,144-83,113c28-79,48-160,42-175c-11-29-62,37-70,92l-7,46l-30-25
		c-24-20-41-25-84-25c-50,0-54-2-54-23c0-30,112-107,155-107c16,0,36-7,46-16c16-15,16-19-12-78c-16-35-34-92-40-127s-11-64-12-65
		s-19-4-39-8c-45-8-44-10-58,140c-10,111-25,174-40,174c-5,0-15,3-24,6c-28,11-29-24-1-60c28-37,59-122,49-137c-9-15-24-10-24,9
		c0,9-22,68-48,130l-48,113l-36-39c-46-51-61-78-67-126c-6-36-8-39-43-42c-53-4-107-30-246-117c-125-79-181-109-221-122
		c-22-7-23-5-19,24c5,33,1,35-51,25c-27-6-31-11-31-39c0-19-3-41-6-50c-9-23-66-44-142-51l-67-7l16,24c14,21,32,36,95,76
		c28,18-68,16-181-2c-138-23-215-20-258,9c-37,26-47,24-47-6s-41-41-115-33c-58,6-67,10-76,32c-15,40-11,53,21,60c17,3,33,10,37,16
		c11,18-61-2-75-21c-26-33-10-162,38-321l44-143l-21-240c-22-257-25-267-80-268c-28,0-28,0-8,240l14,175l-35,100
		c-83,231-98,311-74,395c8,29,7,37-6,47c-26,19-107,32-284,43c-239,16-349,46-381,106c-20,39-34,28-59-47c-20-61-21-76-11-109
		c6-22,16-42,20-45c5-3,39,2,75,10c50,12,115,15,273,13l208-3l3-40c2-27,12-49,30-68c25-26,26-30,10-41c-14-10-12-12,18-12
		c19,0,41-7,50-16c14-14,12-17-28-36c-57-28-130-39-328-52c-168-11-269-28-319-55c-26-13-30-13-45,4c-9,10-16,26-16,36s-3,15-7,11
		c-5-4-11-179-14-389c-4-247-10-400-18-434c-12-50-15-53-54-64c-47-12-65-5-84,32c-18,34-16,76,8,192c18,90,19,111,9,182
		c-17,113-18,118-42,111c-20-5-20-2-15,54c7,65,23,106,43,114c11,4,14-6,14-40c0-31,4-43,11-38c8,5,10,43,5,133c-6,120-5,131,23,231
		c16,58,51,164,76,235c26,72,59,179,75,238c25,100,28,107,44,92c9-9,16-29,16-44c0-25,7-32,49-50c76-32,213-67,466-117l230-45l220,2
		c218,2,221,1,285-25c65-27,150-45,150-32c0,4-5,17-11,28c-10,19-9,20,7,13c119-50,218-44,349,21c94,46,248,161,241,179
		c-6,17,10,30,19,16c3-6,46,18,96,51c92,62,99,77,37,78c-16,0-28,4-28,9c0,12,26,21,61,21c88,0,128,53,136,181l6,79h30h30l-5-84
		l-4-84l113-7c63-4,116-6,118-4c9,10-23,113-39,125c-17,12-18,23-13,91c3,43,13,132,23,198c23,173,17,239-45,440
		c-29,94-56,181-61,195c-8,24-8,24-9,3c-2-42-21-23-21,20c0,32,3,38,11,27c8-12,9-11,5,5c-33,123-54,239-72,410l-6,60l-19-38
		c-15-28-26-37-44-37c-14,0-25-5-25-11c0-19,71-293,126-485l54-192v-245c0-206,3-260,20-342c11-53,20-101,20-105s-16-10-36-12
		c-35-4-38-2-57,41c-18,41-22,74-27,281c-6,219-8,240-32,305c-85,228-117,326-188,565c-43,146-99,322-123,393c-44,124-44,128-25,138
		c20,11,57,9,89-5c13-5,20,1,29,26l12,33l13-35C11143,9191,11149,9169,11149,9163z M10356,9203c3-16,10-45,16-67c6-27,6-42-2-50
		c-20-20-85-11-151,21c-35,17-76,36-91,42c-40,15-34,28,15,35c23,4,56,15,72,26c19,12,49,19,82,19C10346,9230,10350,9228,10356,9203
		z M6340,9171c-5-10-17-24-26-32c-16-12-17-12-11,4c4,10,7,27,7,37c0,13,5,17,20,13S6347,9184,6340,9171z M8318,9157
		c3-34,1-37-22-37c-13,0-31-3-40-6c-25-10-19,20,10,56C8299,9208,8314,9204,8318,9157z M10611,9097c-17-17-22-2-9,29
		c11,28,12,29,16,5C10620,9118,10617,9103,10611,9097z M7574,9114c9-3,16-12,16-20c0-11-16-14-65-14c-58,0-65,2-65,20
		c0,17,7,20,49,20C7536,9120,7565,9117,7574,9114z M10865,9100c-3-5-26-10-50-10s-47,5-50,10c-4,6,15,10,50,10
		S10869,9106,10865,9100z M10669,9073c41-5,44-8,68-62c14-31,36-70,49-88c13-17,24-36,24-42c0-29-104,6-185,63c-89,62-136,85-190,93
		l-46,6l23,24c22,24,26,25,118,18C10582,9082,10645,9076,10669,9073z M8306,9045c18-45,18-101,0-108c-26-10-82,41-116,106l-20,37h60
		C8290,9080,8291,9079,8306,9045z M7755,8958c59-29,66-52,72-243c4-110-1-213-17-385c-12-129-24-238-26-242c-3-5-17-8-31-8h-25
		l23-19c22-18,23-21,11-82c-29-161-163-325-230-282c-29,18-23,32,17,43c40,10,82,53,67,67c-3,4-27-3-51-15c-59-28-118-29-146-1
		l-21,21l101,69c85,59,101,75,106,102c3,18,17,109,31,202c29,195,74,425,110,569l25,99l-39,39l-38,39v-93c0-98-15-159-60-249l-23-47
		l24-26c30-33,30-37,5-111c-11-32-20-70-20-84c-1-23-2-24-11-8c-24,42-21,213,8,401l6,41l-25-22c-13-13-32-23-42-23
		c-15,0-17,5-12,32c3,18,13,42,21,55c13,19,19,21,35,13c11-6,20-18,21-28c0-9,11,23,25,71c26,95,39,127,54,127
		C7705,8980,7730,8970,7755,8958z M7975,8931c14-20,38-73,54-117l30-81l-28-21c-32-24-51-14-51,26v24l-31-26c-27-23-69-35-69-20
		c0,3,9,17,20,31c20,25,20,26,1,57c-49,83-91,158-91,164c0,4,32,5,70,4C7949,8968,7951,8967,7975,8931z M10500,8950c0-5-4-10-10-10
		c-5,0-10,5-10,10c0,6,5,10,10,10C10496,8960,10500,8956,10500,8950z M10990,8945c16-8,41-32,55-52c22-33,25-49,25-117
		c0-81-7-89-26-33c-15,45-44,46-78,3c-16-22-32-33-41-30c-14,6-95,142-95,159c0,4,27,5,60,1l60-7v46c0,25,2,45,5,45
		C10959,8960,10974,8953,10990,8945z M5687,8833c-16-16-17-15-17,17s1,33,17,17S5703,8849,5687,8833z M7359,8801c-2-50-13-98-21-86
		c-3,6-9,46-13,90l-6,80l20-24C7353,8846,7360,8825,7359,8801z M11327,8764c5-16-25-13-32,3c-3,10,1,13,12,11
		C11316,8776,11325,8770,11327,8764z M7388,8674c49-8,52-16,17-46c-30-26-31-49-14-327c13-204,15-194-54-205c-45-8-57,2-57,47
		c0,34,19,35,50,2c32-34,41-31,27,8c-7,19-11,115-11,247l-1,214l-24,6c-13,3-29,13-34,22c-15,23,10,51,37,44
		C7336,8683,7364,8678,7388,8674z M11337,8658c-3-8-6-5-6,6c-1,11,2,17,5,13C11339,8674,11340,8665,11337,8658z M7543,8651
		c17-6,17-8-3-26c-23-21-45-10-34,18C7513,8661,7516,8662,7543,8651z M11082,8588c-12-12-104-6-109,7c-2,6,20,9,58,7
		C11070,8599,11089,8595,11082,8588z M7499,8529c30-30,33-49,7-49c-16,0-78,65-70,73C7450,8567,7469,8559,7499,8529z M7950,8514
		c-18-21-24-10-9,18c8,14,14,18,17,10C7960,8535,7956,8523,7950,8514z M11069,8485c28-14,53-55,67-108c6-25,11-28,35-25
		c16,3,29,1,29-3c0-10-29-39-39-39c-4,0,3-64,15-142c13-79,24-153,24-165c0-20-35-51-46-40c-5,5-16,77-33,216c-9,67-19,98-50,155
		c-22,39-44,90-49,113C11009,8504,11018,8512,11069,8485z M7300,8410c0-10-5-43-12-72l-11-53l-12,40c-7,22-15,55-18,73
		c-6,30-5,32,23,32C7293,8430,7300,8425,7300,8410z M9914,8263c10-65,7-163-10-263l-15-95l60-132c106-234,191-339,308-383
		c64-24,183-39,183-23c0,6-42,25-92,43c-151,52-225,105-266,193c-11,23-32,53-46,66c-34,32-33,41,8,41c30,0,34,3,40,33
		c6,34-4,91-22,122c-8,15-5,30,14,67c13,26,26,48,28,48c3,0,11,3,19,6c10,3,35-20,76-70c43-53,72-78,99-88c65-23,254-15,457,20
		c99,17,203,32,230,34l50,3l6-85c4-47,5-88,3-91c-2-4-30-12-63-18c-42-8-69-21-92-42c-30-28-31-31-15-48c10-11,38-21,68-25
		c44-6,52-4,65,13c8,12,50,48,93,81c44,33,84,69,90,80c8,15,21,20,55,20c40,0,44-2,50-30c8-38-3-119-21-147c-9-14-24-23-40-23
		c-24,0-25,2-18,33c11,48,10,80-3,84c-7,3-14-19-18-62c-8-73-5-71-78-49c-18,6-18,4-2-26c9-18,15-34,13-36c-7-7-344-196-403-227
		c-69-35-82-36-365-23c-150,7-178,6-195-7c-19-15-19-16,13-60c38-54,39-57,10-57c-15,1-33,15-50,38c-15,20-48,61-73,90l-45,53v82v82
		l-75,93c-115,142-125,205-80,480c14,84,25,173,25,197C9890,8310,9905,8314,9914,8263z M7516,8276c1-1-3-17-10-36c-9-29-16-36-43-38
		c-32-3-33-2-33,36c0,21,3,41,6,45C7440,8287,7509,8282,7516,8276z M8151,8261c-6-10-28-32-48-48c-39-30-72-33-93-8
		c-8,10,2,19,52,43C8138,8285,8165,8289,8151,8261z M5607,8218c-3-8-6-5-6,6c-1,11,2,17,5,13C5609,8234,5610,8225,5607,8218z
		 M6100,8160c0-5-9-19-20-30c-38-38-55-22-18,17C6085,8171,6100,8177,6100,8160z M5908,8110c30-45,29-83-5-110c-34-26-46-22-57,22
		c-10,42,10,131,28,125C5880,8145,5895,8129,5908,8110z M6550,8090c0-5-4-10-10-10c-5,0-10,5-10,10c0,6,5,10,10,10
		C6546,8100,6550,8096,6550,8090z M9570,7930c-8-6-23-15-33-21c-17-9-17-8-7,10c6,12,21,21,33,21C9581,7940,9582,7938,9570,7930z
		 M5770,7833c-33-82-40-85-40-16c0,47,5,66,22,88c21,28,22,28,31,7C5790,7896,5787,7875,5770,7833z M7375,7800c45-28,67-78,63-143
		c-2-38-7-52-18-52s-18,20-25,76l-10,76l-53-43c-58-48-92-57-92-24c0,22,27,40,60,40c12,0,18,4,15,10c-7,11,13,80,22,80
		C7340,7820,7357,7811,7375,7800z M5712,7685c-3-113-9-131-28-86c-14,34-20,162-7,175c4,4,14,5,23,4C5712,7775,5715,7759,5712,7685z
		 M5642,7598c-4-119-14-160-35-139c-13,13-21,137-13,205c7,49,10,56,30,56C5646,7720,5646,7719,5642,7598z M7175,7695
		c51-29,91-81,121-153c20-51,21-56,6-82c-13-22-26-30-60-35c-80-12-138-34-179-70c-23-19-46-35-52-35c-14,0-58,67-112,169
		c-24,46-59,101-77,122c-28,32-31,42-22,59c6,11,21,20,35,20c13,0,30,3,39,6c30,11,30-25,1-56l-27-28l49-25c27-14,68-47,91-74
		c106-119,101-117,111-56c5,32,11,39,36,43c26,5,30,9,27,35c-2,16-16,47-32,69c-16,23-30,48-31,56c-3,14,20,60,30,60
		C7131,7720,7152,7709,7175,7695z M11010,7667c0-19-27-53-36-45c-9,10,12,58,26,58C11005,7680,11010,7674,11010,7667z M7537,7590
		c12-23,11-25-15-30c-20-4-28-12-30-33c-4-30-9-32-47-17l-26,10l21,39C7472,7624,7514,7636,7537,7590z M6685,7547c8-12,13-23,11-25
		c-8-7-45,18-56,37c-8,16-7,18,10,14C6662,7570,6677,7558,6685,7547z M6784,7519c43-25,44-31,9-49c-16-8-30-16-32-17
		c-3-2,10-19,28-37c31-32,33-36,22-69c-24-72-105-117-211-117h-46l-26,82l-27,81l40,40c37,38,42,39,87,34c26-3,63-9,82-13
		c29-6,33-5,24,7c-13,15-7,79,7,79C6745,7540,6765,7531,6784,7519z M6371,7334c-1-27-5-53-8-57c-11-18-23,19-23,71c0,47,2,52,17,43
		C6370,7384,6373,7371,6371,7334z M11209,7334c3-16,1-17-13-5c-19,16-21,34-3,29C11199,7355,11207,7345,11209,7334z M6928,7287
		c22-21,32-40,32-60c0-16-4-27-10-25c-11,4-100,110-100,119C6850,7336,6897,7315,6928,7287z M10775,7271c10-17-12-21-25-6
		c-10,12-10,15,3,15C10762,7280,10771,7276,10775,7271z M10260,7194c0-8-8-14-18-14c-25,0-34,11-21,26S10260,7213,10260,7194z
		 M11070,7189c0-15-4-19-16-15c-9,3-18,6-20,6s-4,7-4,15s9,15,20,15C11064,7210,11070,7203,11070,7189z M11570,7201c0-6-4-13-10-16
		c-5-3-10,1-10,9c0,9,5,16,10,16C11566,7210,11570,7206,11570,7201z M10150,7130c0-24-15-40-36-40c-18,0-24,5-24,23c0,13,2,26,5,29
		C10103,7150,10150,7139,10150,7130z M11679,7063c-1-43-4-91-8-108c-6-28-7-27-14,19c-9,62-9,151,0,159
		C11674,7151,11680,7134,11679,7063z M6871,6905c-16-104-28-191-26-193c1-1,22,6,46,17c49,22,55,21,61-13c4-22-2-28-63-55
		c-37-17-73-39-78-50c-18-33-34-162-22-174c8-8,11-5,11,10c0,12,5,25,10,28c17,11,40-15,40-45c0-23-6-30-32-39c-18-5-55-11-83-13
		c-50-3-50-3-53,30l-3,33l-57-3l-57-3l-3-84l-3-84l39-41c22-23,46-54,54-70l15-28l22,27c11,16,29,50,38,77c10,26,20,48,24,48
		c3,0,11-16,17-36c10-32,8-42-16-86c-26-47-29-49-61-44c-19,3-43,14-55,24c-43,39-43,30,0-45c24-43,51-97,60-120c14-37,21-43,53-48
		c83-13,80-14,87,19c11,55,31,81,77,104c24,12,63,22,85,22c35,0,42-4,46-22c18-85,26-132,26-154c0-24-2-25-47-22c-41,3-49,0-59-21
		c-11-22-12-22-18-4c-3,11-20,29-36,41c-45,33-38,4,9-42c41-40,71-43,71-9c1,35,59-44,76-103c20-70,16-246-6-282c-8-12-51-49-95-81
		c-118-87-121-92-140-201c-23-133-70-214-200-346c-93-94-249-213-262-200c-12,12,72,536,129,806l32,155l13-59c8-32,20-68,28-79
		c21-30,19-9-10,81l-25,79l29,104c17,57,37,124,45,148c22,60,20,68-9,41c-26-25-55-104-55-151c0-15-7-29-15-33c-8-3-15,0-15,7
		s-7,59-15,117c-10,66-12,106-5,108c32,11,114,59,114,67c1,6-26,12-58,15c-38,4-61,11-64,19s-24,53-48,100c-49,97-51,105-26,121
		c10,7,13,13,6,16c-42,18-47,30-35,79c6,26,10,49,8,51s-13-5-25-16l-21-19l-7,56c-9,79,2,303,20,388c21,96,55,168,73,154
		c7-6,13-29,13-50c0-55,20-50,63,15c31,47,41,55,76,61c37,6,41,10,41,35c0,24-5,29-27,32c-37,4-43,28-6,28c15,0,45,5,66,11
		c22,6,41,8,44,5s-2-26-10-51c-9-25-14-51-11-58c2-7,24-12,55-12l51,1l34,59c34,61,76,89,82,56C6899,7102,6887,7010,6871,6905z
		 M6770,7049c0-9-9-19-20-22c-22-6-25,8-13,52c6,23,7,23,20,6C6764,7074,6770,7059,6770,7049z M6550,7039c0-5-4-9-10-9
		c-5,0-10,7-10,16c0,8,5,12,10,9C6546,7052,6550,7045,6550,7039z M6966,6989c24-14,34-28,34-45c0-21-4-24-38-24c-21,0-41,2-43,4
		c-6,7,2,86,8,86C6930,7010,6948,7001,6966,6989z M7084,6980c24-9,26-14,26-67c0-32-14-123-31-203c-46-223-59-307-59-402
		c0-84-1-88-22-88c-12,0-38,11-58,25c-36,25-37,27-33,78c8,93,43,300,69,402c29,119,73,265,79,265C7057,6990,7070,6986,7084,6980z
		 M6952,6845c-2-19-8-35-13-35s-9,16-9,35c0,22,5,35,13,35C6952,6880,6955,6869,6952,6845z M8785,6799c9-39-1-50-15-15
		c-12,34-13,46-1,46C8774,6830,8781,6816,8785,6799z M9890,6643l-1-58l-19,24c-11,13-20,30-20,39c0,13,27,52,37,52
		C9888,6700,9890,6674,9890,6643z M7291,6574c-1-33-18-138-37-234s-38-193-42-215l-8-40l-19,30c-16,23-20,46-20,112v83h-42
		c-37,0-42,3-52,31c-6,18-11,38-11,45c0,17,29,18,34,2c15-48,16-50,30-39c8,7,42,77,77,156c50,117,65,142,78,136
		C7290,6634,7293,6617,7291,6574z M7390,6630c6-10,19-63,30-117s25-102,30-107c6-6,10-18,10-28c0-13-8-18-29-18c-27,0-30,4-41,53
		c-13,59-26,237-17,237C7377,6650,7384,6641,7390,6630z M8720,6462c-6-28-21-59-32-69c-21-17-21-17-15,0c4,10,7,53,7,95v77l26-27
		C8732,6513,8732,6510,8720,6462z M8484,6376c25-79,46-149,46-156c0-24-24-2-36,33c-15,43-61,112-96,145c-23,21-24,26-15,72
		c8,43,13,50,33,50S8443,6506,8484,6376z M9523,6369c24-44,17-146-13-217l-22-50l-76-7c-85-8-114-20-169-68c-82-72-117-155-78-187
		c14-12,12-30-4-30c-5,0-19,27-31,60c-39,104-62,105-79,3c-7-38-16-82-22-99l-10-31l-72,5c-40,2-73,6-75,7c-1,1,10,59,24,129
		c25,126,25,129,8,192l-17,63l42,64c33,51,41,72,41,110c0,77,16,82,245,82c159,0,195,3,220,17C9472,6432,9496,6421,9523,6369z
		 M7850,6379c0-21-16-33-35-25c-11,4-11,11-2,35c8,23,14,28,24,19C7844,6402,7850,6389,7850,6379z M6615,6378c14-36,12-48-11-48
		c-10,0-14,12-14,40C6590,6418,6597,6420,6615,6378z M8334,6271c72-102,76-152,9-110c-22,14-36,35-47,67c-18,56-30,122-23,122
		C8276,6350,8304,6314,8334,6271z M7414,6314c4-9,5-18,3-20c-10-10-64-13-77-5c-13,9-12,12,5,25C7372,6334,7406,6334,7414,6314z
		 M8610,5994v-185l55-219c38-151,55-239,55-283c0-39,8-87,21-123c23-66,59-215,59-243c0-14-57-47-232-135c-128-64-244-124-258-132
		s-51-26-82-42c-31-15-100-51-153-80c-53-30-98-52-100-50c-1,2,42,105,96,231c121,278,168,415,259,755c85,316,127,446,186,572
		c47,98,71,133,85,124C8606,6181,8610,6096,8610,5994z M10410,5794c0-35-28-104-76-186c-43-73-64-95-64-65c0,6,12,35,25,62
		c14,28,37,88,51,135c37,126,33,118,50,96C10404,5825,10410,5806,10410,5794z M10370,5556c0-2-9-6-20-9s-18-1-14,4
		C10341,5560,10370,5564,10370,5556z M10164,5355c24-17,27-26,24-63l-3-44l-61,89c-82,120-84,124-33,78
		C10116,5393,10149,5366,10164,5355z M9844,5359c11-58,7-99-10-99c-12,0-14-7-10-27c16-86,27-246,18-255c-8-8-13-3-17,15
		c-4,14-15,33-26,43c-18,16-20,16-40-7c-16-19-19-20-15-6c20,61,19,65-11,69c-27,3-28,5-31,68c-4,85,2,104,35,116l28,10l-28,15
		c-26,14-27,17-12,29s21,12,47-3c28-16,29-16,24,1c-2,9-8,37-11,61l-7,44l30-21C9825,5399,9840,5378,9844,5359z M9114,5404
		c9-4,21-14,26-23c7-14,4-16-26-13c-25,3-34,9-34,23C9080,5411,9088,5414,9114,5404z M8989,5346c24-6,49-19,55-28c16-26-21-69-77-90
		l-46-17l-26,43c-14,25-25,58-25,80v37l38-7C8928,5360,8965,5352,8989,5346z M9169,5109c91-24,177-65,202-97c24-31,24-32-4-73
		c-28-42-50-44-57-5c-4,24-13,32-49,44c-28,9-49,24-60,43c-18,33-31,37-31,11c0-10-14-40-32-66l-31-48l-46,6c-25,4-81,9-124,13
		c-72,6-79,8-88,31c-5,14-8,28-7,33c2,4,39,37,83,73c78,64,81,66,125,60C9075,5131,9128,5120,9169,5109z M9625,5039c4-22,5-42,2-45
		c-4-4-57,70-57,81c0,3,11,5,24,5C9615,5080,9619,5074,9625,5039z M10438,5053c-2-9-8-18-15-20c-7-3-9,3-6,16
		C10423,5074,10443,5077,10438,5053z M9889,4803c26-97,31-138,38-270l6-142l-27-11l-28-10l21-33c44-72,53-137,46-352
		c-7-198-7-201,23-330c56-243,82-466,82-712c0-84-4-153-8-153c-5,0-16,6-26,13c-14,10-20,32-24,88c-5,68-9,80-52,144
		c-70,103-83,133-88,207c-5,67-5,68-31,62c-14-4-29-9-32-13c-12-13-53-128-70-195c-15-62-18-68-26-47c-6,16-19,25-36,27
		c-32,3-31,4-12-42l15-36l-34,25l-33,26l5-25c3-16-1-26-12-30c-33-13-12-114,38-178c14-19,26-37,26-40c0-14-36-4-57,16
		c-22,21-23,21-44,2c-26-23-49-74-49-107c0-13-9-32-21-43c-17-16-22-16-30-4c-24,34,12,313,61,485c25,86,25,85,0,85
		c-22,0-25,12-10,41c12,21,7,24-19,10c-12-7-32-3-68,14c-53,26-68,45-58,76c5,15,1,19-18,19c-22,0-25,5-31,50c-4,28-23,98-42,155
		l-36,105l21,18c20,16,20,19,6,72c-38,137-37,214,5,272l20,27l-42,12c-48,12-58,22-58,60c0,15-6,45-14,67c-13,36-13,40,0,35
		c9-3,14,1,14,12c0,10-6,15-17,13c-23-5-84,100-113,191c-23,73-25,102-7,96c20-8,35,8,39,40c2,23,12,35,45,53c24,13,47,21,52,18
		s32-47,61-98s70-116,91-145c41-55,38-65-17-56l-29,6l23-25c25-27,21-38-14-38h-23l20-47c23-55,39-68,98-83c78-20,212,24,318,103
		c47,36,50,44,27,90c-23,44-29,47-112,47c-40,0-83,5-95,11s-65,53-117,104s-112,100-132,108c-21,9-38,20-38,26c0,5,25,13,55,16l55,7
		l100-72c98-71,102-73,148-67c26,3,76,19,112,35l65,30l-28,11c-16,6-40,11-54,11c-24,0-25,1-18,53c4,28,9,54,11,56c2,3,15-6,28-18
		c22-21,27-22,60-10c20,7,46,23,58,36l21,23h-26c-25,0-47,23-47,49c0,6,21,11,50,11C9879,4840,9879,4839,9889,4803z M9234,4811
		c3-4-3-16-13-25c-16-15-19-14-41,9l-23,25h36C9213,4820,9231,4816,9234,4811z M8990,4666c14-38,16-59,5-63c-10-3-35,50-35,75
		C8960,4699,8980,4691,8990,4666z M6749,4595c23-8,68-30,100-50c31-19,77-39,101-43c43-7,45-9,50-47l5-39l12,27c7,15,19,27,28,27
		c18,0,18-4,5-52c-16-55-35-55-115,1l-71,49l-26-31c-25-32-26-32-142-38c-69-3-121-10-128-17c-18-18-28-15-28,8c0,11-2,20-6,20
		c-3,0-35-16-73-35c-68-35-88-40-128-29c-21,6-21,7-7,52c7,26,14,73,14,105c0,31,3,57,8,57c4,0,75-15,157-34c144-33,173-38,295-51
		l55-6l-27,28c-20,21-25,32-17,40c7,7-9,12-58,17c-97,10-105,13-93,37C6673,4614,6694,4615,6749,4595z M7199,4578c0-7-4-22-9-33
		c-7-17-9-15-9,13c-1,17,4,32,9,32C7196,4590,7200,4584,7199,4578z M10056,4525c19-15,19-15-3-33c-14-13-31-17-52-14
		c-26,4-31,9-31,33c0,26,3,29,33,29C10021,4540,10045,4533,10056,4525z M9480,4375c0-8-4-15-9-15c-13,0-22,16-14,24
		C9468,4395,9480,4390,9480,4375z M9400,4325c0-8-4-15-10-15c-5,0-10,7-10,15s5,15,10,15C9396,4340,9400,4333,9400,4325z M6376,4270
		c121-70,200-86,342-66c58,8,62,7,62-11s-9-20-123-26c-201-10-288-37-359-110c-41-43-44-39-32,36c6,36,7,37,51,37c50,0,50,15,0,28
		c-27,8-32,13-30,38c3,44,14,114,18,114C6306,4310,6339,4292,6376,4270z M10094,4285c-21-16-54-20-54-7c0,16,13,22,44,22
		C10112,4300,10113,4299,10094,4285z M7174,4244c25-9,19-42-11-69c-16-13-31-25-35-25c-12,0-9,46,4,75
		C7144,4251,7149,4254,7174,4244z M9094,4159c19-23,26-42,26-75c0-24-2-44-6-44c-6,0-48,92-59,128C9046,4199,9064,4195,9094,4159z
		 M6659,4058c28-6,51-15,51-19s-35-20-77-36c-158-57-220-105-239-187c-6-26,2-22,112,58c117,86,151,99,174,71c19-23,25-95,9-106
		c-11-6-16,2-25,39l-10,47l-12-45c-7-25-17-64-24-88c-9-34-13-40-24-31c-8,6-14,20-14,30c0,26-6,24-53-16c-23-20-66-47-97-61
		c-118-54-125-59-144-98c-15-31-20-69-24-167l-5-128l-45-15c-25-9-48-14-51-11c-16,17,48,573,71,601c4,6,28,14,53,17
		c56,8,149,51,240,111c39,25,73,46,77,46C6605,4070,6631,4065,6659,4058z M7015,3940c3-30,8-67,10-82c3-21-1-28-18-34
		c-12-4-33-15-46-25c-13-11-30-19-38-19s-28-9-44-21c-16-11-29-17-29-13c0,3,17,34,37,67c45,75,82,163,83,198
		C6970,4085,7005,4031,7015,3940z M7130,3765c0-8-4-17-10-20c-6-4-10,5-10,20s4,24,10,20C7126,3782,7130,3773,7130,3765z M6660,3776
		c0-2-7-9-15-16c-13-11-14-10-9,4S6660,3787,6660,3776z M10159,3728c48-43,51-49,51-95v-48l-29,50c-16,28-43,62-60,78
		c-17,15-31,36-31,48C10090,3788,10097,3785,10159,3728z M6574,3725c11-8,14-15,8-15c-16,0-15-109,2-170c11-42,10-48-13-84l-25-38
		l21-39c16-29,18-39,8-39c-27,0-37-64-26-157c14-116,15-110-21-129c-32-17-32-17-9-26c43-15,81-49,101-88c11-22,20-43,20-47
		s-18-21-40-36c-55-39-55-72,0-88c22-7,40-16,40-21c0-13-105-77-182-109c-98-42-210-69-285-69c-62,0-63,1-52,21c25,48,171,88,322,89
		c39,0,67,4,67,10c0,18-52,31-172,43l-118,11v82c0,45,3,96,6,114c6,27,11,31,30,27c31-6,40,22,64,196c11,76,27,154,36,172
		c16,34,16,35-24,105c-23,38-39,70-36,70s18-7,34-15c35-18,36-16,11,33l-19,38l106,87c58,48,111,87,117,87
		C6550,3740,6564,3733,6574,3725z M7104,3459c9-46,7-79-4-79c-5,0-10,18-10,39c0,22-3,46-6,55s-2,16,4,16
		C7093,3490,7100,3476,7104,3459z M10220,3410c0-15-7-30-15-34c-17-6-18-2-9,43C10204,3456,10220,3450,10220,3410z M9254,3354
		c9-3,13-10,10-15c-8-14-21-11-28,6C9230,3362,9232,3363,9254,3354z M10260,3299c0-20-4-29-12-26c-7,2-13,9-12,15c1,7,2,21,3,33
		C10241,3352,10260,3333,10260,3299z M6290,3301c0-6-4-13-10-16c-5-3-10,1-10,9c0,9,5,16,10,16C6286,3310,6290,3306,6290,3301z
		 M6997,3094l-2-196l45-17c37-13,49-24,68-63c27-53,54-147,46-160c-3-4-20-8-37-8h-33l-37-115c-36-109-91-211-112-209
		c-5,0-25,36-43,79c-89,214-127,466-106,697c7,65,8,68,39,78c18,6,42,21,54,34c13,14,35,27,49,31c14,3,32,15,40,26c7,10,17,19,22,19
		C6996,3290,6999,3210,6997,3094z M9358,3248c-5-24-8-65-7-92c2-30-1-51-8-53c-21-7-41,41-47,115l-6,72h39h39L9358,3248z M6256,3224
		c-6-17-42-19-52-2c-4,6,5,21,22,35c29,23,29,23,32,2C6260,3248,6259,3232,6256,3224z M7150,3265c0-8-7-15-15-15s-15,7-15,15
		s7,15,15,15S7150,3273,7150,3265z M6285,3100c9-15-16-57-41-69c-24-10-24-10-24,44v54l30-11C6267,3113,6282,3104,6285,3100z
		 M7113,3028c-12-24-23,0-22,50l1,57l12-50C7111,3058,7115,3032,7113,3028z M7637,3008c-2-13-4-3-4,22s2,35,4,23
		C7639,3040,7639,3020,7637,3008z M7128,2957c2-12-1-15-12-11c-19,7-22,38-3,32C7119,2975,7126,2966,7128,2957z M7693,2900l18-30
		h-25c-22,0-26,4-26,30c0,17,4,30,8,30S7684,2917,7693,2900z M9722,2784c31-82,34-96,20-101c-23-9-68,48-86,108c-15,48-15,54,1,71
		c9,10,19,18,23,18S9703,2837,9722,2784z M9780,2865c0-1-7-8-15-15c-13-10-15-9-15,8c0,15,5,20,15,16C9773,2870,9780,2867,9780,2865
		z M7770,2788c0-5-9-8-20-8c-16,0-20,7-20,33v32l20-25C7761,2806,7770,2792,7770,2788z M7275,2768c14-6,36-28,48-47l22-36l3,27
		c3,28,7,30,133,44c105,11,81-17-96-118c-129-73-186-100-202-94c-29,12-5,31,63,52c90,27,94,49,14,81c-67,26-79,42-60,77
		C7215,2782,7235,2786,7275,2768z M9716,2590l33-35l-24-58c-24-61-53-100-169-233c-77-88-131-190-141-264c-5-33-12-50-21-50
		c-11,0-14,18-14,83c0,128,6,147,70,227c61,77,76,115,136,350c15,58,29,109,31,113c3,5,19-15,35-45C9669,2649,9697,2609,9716,2590z
		 M10029,2721c11-7,9-11-8-20c-18-10-21-9-21,9C10000,2732,10007,2735,10029,2721z M9800,2651c0-5-11-11-25-13c-24-5-32,2-18,15
		C9766,2663,9800,2661,9800,2651z M7821,2599c38-41,37-65-10-128c-21-28-42-68-46-87c-5-31-2-40,29-74c35-39,53-93,43-130
		c-6-24,12-38,24-19c5,8,9,25,9,39c1,24,2,23,36-15c19-21,42-61,52-87c15-44,21-50,70-68c60-23,161-40,237-40c38,0,53-5,62-19
		c17-27,96-51,191-58c45-3,82-9,82-12c0-4-42-29-94-55c-70-36-106-49-140-50c-40-1-45-4-48-26c-5-44-48-46-545-24c-95,5-167,3-220-6
		l-77-12l-24,27c-16,19-22,35-18,51c5,18,3,22-9,18c-21-8-19-27,10-84c30-60,30-65,1-165l-23-79l-69-18c-122-31-168-19-189,51
		c-8,27,13,28-230-10c-107-17-185-22-335-22c-206-1-293,11-387,53c-85,37-91,112-35,410c17,85,33,181,37,213c5,48,9,56,18,43
		c11-15,14-15,34-1c13,9,28,25,34,37c11,20,9,21-40,16c-57-6-71,6-71,56c0,31-9,37-84,50c-55,10-61,14-64,37c-3,22,2,27,29,33
		c17,3,57,6,89,6c128,0,290,46,463,130l88,43l25-24c13-13,37-56,54-94c16-39,30-63,30-55s11-2,25-22c30-45,32-58,5-33
		c-11,10-20,14-20,9c0-20,61-113,86-133c29-23,59-28,51-8c-20,48-24,46,65,40c76-6,82-5,69,10c-8,10-28,17-47,17s-34,2-34,5
		c0,18,34,66,64,93c44,39,107,52,245,52c102,0,109-1,131-26c21-21,22-27,10-34c-24-15-88-11-178,10c-46,11-92,20-102,20
		c-39,0-41-68-2-116c31-39,42-43,42-12v21l23-21c13-12,28-22,34-22s16-7,24-16c27-33-48-47-102-18c-44,22-63,12-55-30s-4-74-49-133
		c-40-53-46-77-11-43c33,30,61,21,52-18c-4-15-9-58-13-95c-5-62-4-70,17-92c25-27,55-33,62-12c3,6-1,53-9,102c-7,50-12,110-11,135
		l3,45l80,31c44,17,113,44,154,59c61,23,88,41,150,100c78,75,125,105,161,105c24,0,25,12,5,117c-8,43-15,81-15,86c0,4,16,7,36,7
		C7783,2630,7799,2623,7821,2599z M7135,2575c18-15,18-16,1-33c-16-16-18-16-31,1c-13,18-11,47,4,47C7112,2590,7124,2583,7135,2575z
		 M10001,2360c-30-100-46-124-102-153c-35-17-70-27-98-27h-44l21-23c28-30,28-43,0-51c-44-11-85-6-102,13c-16,18-16,20,6,35
		c13,9,61,31,106,48c97,36,126,62,173,152C9998,2426,10022,2429,10001,2360z M9360,2340c0-5-4-10-10-10c-5,0-10,5-10,10
		c0,6,5,10,10,10C9356,2350,9360,2346,9360,2340z M9885,2320c3-5-1-10-10-10s-13,5-10,10c3,6,8,10,10,10S9882,2326,9885,2320z
		 M8062,2241c12-15,41-54,63-85s57-68,78-83c25-18,34-30,28-36c-7-7-18-7-33,0c-38,17-145,111-177,155c-29,39-30,43-14,60
		C8029,2276,8034,2275,8062,2241z M10133,2163c-10-28-25-48-84-110c-49-52-60-58-113-68c-33-6-61-16-63-22c-7-19,36-35,98-36
		c33-1,59-5,59-9c0-16-72-31-275-58c-188-25-205-29-205-45c0-24,62-40,155-39c110,0,192,17,240,50c57,38,143,27,189-25
		c31-34,52-27,62,22c7,33,14,43,32,45c19,3,22-1,22-30c0-28-8-40-58-79c-135-108-157-116-205-83c-44,30-47,30-47,0c0-14,10-30,25-40
		c23-15,28-15,55-1c33,17,40,18,40,7c0-14-65-40-132-53c-81-16-350-17-404-1c-70,20-79,39-79,156c0,94,1,101,20,101
		c17,0,23-13,40-80l20-80l40-5c40-5,149,5,166,16c5,3,9,15,9,28c0,22-2,23-79,18c-126-7-125-8-147,98c-18,91-28,104-58,75
		c-13-14-16-12-22,20c-5,29-2,41,17,63c66,75,95,102,111,102c9,0,33-16,52-35c33-32,40-35,96-35c34,0,93,7,133,16
		c72,17,177,57,177,69c0,3-43,5-96,3c-71-2-98,0-101,10c-4,9,17,12,84,12c59,1,104,7,138,19C10113,2184,10141,2185,10133,2163z
		 M8395,1970c7-12-12-12-40,0c-18,8-17,9,7,9C8377,1980,8392,1976,8395,1970z M9423,1782c3-4,3-19,0-35c-5-25-9-27-51-27h-46l40-26
		c53-34,114-124,85-124c-6,0-11,9-11,19c0,18-3,19-30,9c-17-6-51-7-76-3c-39,5-44,9-39,26c5,16,1,19-25,19c-22,0-31,4-28,13
		c3,6,13,35,22,64c15,46,21,52,54,61C9364,1790,9417,1792,9423,1782z"/>
	<path class="st0" d="M9916,15935c4-8,7-15,9-15s5,7,9,15c3,9,0,15-9,15S9913,15944,9916,15935z"/>
	<path class="st0" d="M12353,4473c-7-2-13-18-13-34c0-22,5-29,20-29c13,0,21,7,22,20c0,11,1,25,2,32
		C12385,4475,12371,4481,12353,4473z"/>
	<path class="st0" d="M12430,4436c0-9,5-16,10-16c6,0,10,4,10,9c0,6-4,13-10,16C12435,4448,12430,4444,12430,4436z"/>
	<path class="st0" d="M12441,4385c-17-9-20-13-9-17c8-3,24,0,37,7c17,9,20,13,9,17C12470,4395,12454,4392,12441,4385z"/>
	<path class="st0" d="M10798,3384c-9-8,15-64,28-64c6,0,19,11,28,25c16,24,16,26-9,35C10815,3391,10806,3392,10798,3384z"/>
	<path class="st0" d="M10850,3236c-5-5-10-20-10-33c0-19,5-23,34-23c32,0,45,15,46,51C10920,3243,10861,3247,10850,3236z"/>
	<path class="st0" d="M6941,9791l-35-18l51,4c29,3,66,0,83-6c32-11,32-11,17,12C7038,9812,6986,9816,6941,9791z"/>
	<path class="st0" d="M7020,9671c19-16,66-46,105-66l70-37l-45,44c-25,25-53,55-62,66c-13,17-29,22-60,22l-43-1L7020,9671z"/>
	<path class="st0" d="M6790,9666c0-8,18-18,40-24c48-12,50-8,8,18C6799,9684,6790,9685,6790,9666z"/>
	<path class="st0" d="M7209,9501c9-17,104-91,116-91c3,0,5,8,5,19c0,12-21,31-61,55C7199,9526,7196,9527,7209,9501z"/>
	<path class="st0" d="M6690,9452c-14-25-49-72-77-103c-36-38-53-65-53-83c0-14,3-26,8-26c4,0,42,45,85,99c50,64,77,108,77,124
		C6730,9505,6716,9501,6690,9452z"/>
	<path class="st0" d="M6787,9413c-4-3-7-19-7-35c0-26,3-28,40-28c54,0,60-16,60-155c0-102,5-137,40-278c68-278,93-438,86-542
		c-18-245-18-288-6-339l12-53l74,16c74,15,74,15,85,55c9,32,7,70-7,174c-18,129-20,135-52,163c-18,16-44,29-57,29c-22,0-25,4-25,40
		v40h55h56l-6,38c-4,20-11,58-18,85c-11,46-12,47-49,47c-42,0-81,30-76,58c5,26,47,27,73,2l24-23l7,27c7,31-1,100-23,175
		c-14,49-17,53-28,37c-9-12-24-16-47-14c-31,3-33,5-36,45l-3,42l37-6c44-7,64,12,64,62c0,41-32,75-99,110c-45,22-52,29-49,52
		c2,15,8,28,15,30c6,2,46-26,88-63c128-112,98-60-48,82C6843,9408,6806,9433,6787,9413z M7100,8220c47-24,50-41,13-70
		c-27-21-65-21-86-1c-11,11,11,91,24,91C7056,8240,7079,8231,7100,8220z"/>
	<path class="st0" d="M6700,9329c0-39,18-68,43-69c12,0,8,50-8,80C6713,9382,6700,9377,6700,9329z"/>
	<path class="st0" d="M6481,9010c-1-217,0-236,17-247c18-10,18-2,18,201c-1,174-4,217-18,246C6482,9244,6482,9236,6481,9010z"/>
	<path class="st0" d="M6704,9153c-12-122-8-418,5-538c14-118,45-306,65-388c13-58,13-59-12-84c-24-24-25-28-18-116
		c4-51,11-96,16-101s23,3,42,18c19,14,48,29,65,32c23,5,32,13,36,33c6,31-8,471-19,574c-8,76-25,97-80,97c-31,0-44,13-44,45
		c0,21,31,27,50,10c38-35,48,57,21,189c-12,54-21,110-21,125c0,23-6,29-37,37c-20,5-38,14-40,20c-6,18,28,46,46,38c32-14,74-17,67-5
		c-4,6-15,11-25,11c-29,0-71,39-71,66c0,17-6,24-19,24C6714,9240,6711,9229,6704,9153z M6778,8976c2-47-1-72-10-77
		c-22-14-28,1-28,77c0,66,2,75,18,72C6772,9045,6776,9032,6778,8976z M6838,8477c6-5,12-26,12-47c0-30-6-41-26-55c-14-9-30-13-34-8
		c-4,4-11,36-15,71l-7,63l28-7C6812,8490,6831,8483,6838,8477z M6839,8301c12-8,13-34,7-147c-6-132-10-154-21-142
		c-10,10-18,298-9,298C6821,8310,6831,8306,6839,8301z"/>
	<path class="st0" d="M6598,9210c-16-35-38-126-38-158c0-45,19-38,37,14C6611,9104,6611,9239,6598,9210z"/>
	<path class="st0" d="M6560,8855c0-88,2-95,20-95c32,0,41,30,19,71c-18,37-18,37,2,51l21,13l-22,28c-12,15-26,27-31,27
		S6560,8907,6560,8855z"/>
	<path class="st0" d="M6589,8664c-34-56-37-130-8-176c13-21,27-37,31-38c3,0,8,48,10,108c2,59,6,113,9,121
		C6640,8709,6611,8699,6589,8664z"/>
	<path class="st0" d="M6596,8368c-9-35-7-98,3-98c12,0,21,36,21,83C6620,8394,6606,8403,6596,8368z"/>
	<path class="st0" d="M6930,8198c0-9,5-20,10-23c13-8,13,5,0,25C6932,8213,6930,8213,6930,8198z"/>
	<path class="st0" d="M10107,9039c11-41,107-131,222-205c64-42,129-88,144-102c24-23,29-24,38-12c14,23-154,181-285,268
		c-60,40-112,72-117,72C10105,9060,10104,9051,10107,9039z"/>
	<path class="st0" d="M8244,8843c3-10,12-47,21-83s21-82,26-102c5-21,32-65,60-98s57-75,64-93c13-30,14-31,15-7c1,74-88,302-144,368
		C8256,8863,8236,8870,8244,8843z"/>
	<path class="st0" d="M10300,8725c0-39,141-193,217-237c29-17,31-17,48,2c16,18,16,19-18,34c-20,8-71,51-114,96
		C10365,8691,10300,8743,10300,8725z"/>
	<path class="st0" d="M8444,8677c-3-9,2-42,11-76c27-95,77-121,91-47c8,44-18,92-64,119C8454,8689,8449,8690,8444,8677z"/>
	<path class="st0" d="M9204,8669c-8-13,13-29,38-29c29,0,31,19,3,30C9212,8682,9213,8682,9204,8669z"/>
	<path class="st0" d="M9420,8568c0-32,17-46,26-23c4,9,0,24-10,33C9421,8593,9420,8592,9420,8568z"/>
	<path class="st0" d="M9302,8530c-32-29-32-30-8-30c40,0,56,11,56,36C9350,8567,9342,8566,9302,8530z"/>
	<path class="st0" d="M8433,8365c-3-9-3-19,1-22c7-7,36,16,36,28C8470,8386,8440,8381,8433,8365z"/>
	<path class="st0" d="M9398,8343c7-3,16-2,19,1c4,3-2,6-13,5C9393,8349,9390,8346,9398,8343z"/>
	<path class="st0" d="M8830,8275c0-10,43-65,52-65c20,0,5,37-22,53C8844,8273,8830,8278,8830,8275z"/>
	<path class="st0" d="M8760,8190c0-5,5-10,11-10c5,0,7,5,4,10c-3,6-8,10-11,10C8762,8200,8760,8196,8760,8190z"/>
	<path class="st0" d="M8501,8176c-7-8-23-17-37-20c-34-9-20-26,20-26c37,0,61,21,52,45C8529,8194,8516,8194,8501,8176z"/>
	<path class="st0" d="M8720,7731c0-16,51-51,75-51c12,0,32,11,45,25l24,25l-31-10c-24-9-39-8-68,4C8721,7743,8720,7743,8720,7731z"
		/>
	<path class="st0" d="M8616,7636c-6-31-10-34-52-41c-49-7-60-19-127-135c-23-39-44-61-72-75c-36-18-40-25-40-57v-37l30,29
		c38,36,72,40,77,8c3-23-107-228-158-295c-30-40-40-40-88-8c-29,20-36,21-36,8c0-8-16-31-35-49l-35-33l22-15c15-11,45-16,91-16
		c77,0,73-3,181,125c27,31,64,63,81,71c29,12,37,27,107,211c42,109,79,213,83,231c6,29,10,33,31,28c30-8,31,7,4,52
		C8653,7681,8624,7681,8616,7636z M8508,7435c-6-14-13-23-16-21c-7,7,9,46,18,46C8515,7460,8514,7449,8508,7435z"/>
	<path class="st0" d="M9720,7300c0-16,4-30,8-30c5,0,7,14,4,30c-2,17-6,30-8,30S9720,7317,9720,7300z"/>
	<path class="st0" d="M8170,7125c0-15,4-24,10-20c6,3,10,12,10,20s-4,17-10,20C8174,7149,8170,7140,8170,7125z"/>
	<path class="st0" d="M7493,6262c-28-25-61-97-50-108c6-6,60,62,81,104C7544,6297,7532,6299,7493,6262z"/>
	<path class="st0" d="M7728,5793c18-2,45-2,60,0s0,4-33,4S7710,5795,7728,5793z"/>
	<path class="st0" d="M8910,6569c0-5,5-7,10-4c6,3,10,8,10,11c0,2-4,4-10,4C8915,6580,8910,6575,8910,6569z"/>
	<path class="st0" d="M7741,8234c0-11,3-14,6-6c3,7,2,16-1,19C7743,8251,7740,8245,7741,8234z"/>
	<path class="st0" d="M10722,7600c-12-10-48-26-78-35c-54-16-56-18-86-81l-30-64l-36,29c-21,15-53,36-72,46c-37,19-110,37-110,26
		c0-3,43-34,94-68l94-62l169,55c92,30,184,64,203,76l35,22l-63,14c-50,11-66,19-74,38C10755,7625,10752,7625,10722,7600z"/>
	<path class="st0" d="M10040,7376c0-18,12-33,44-56c82-56,108-28,29,31C10042,7404,10040,7405,10040,7376z"/>
	<path class="st0" d="M6546,6815c-10-75-16-138-14-141c3-2,18,3,34,12c28,16,29,19,32,110c2,70-1,101-13,124c-8,16-17,30-18,30
		C6565,6950,6556,6889,6546,6815z"/>
	<path class="st0" d="M6697,6932c-24-26-38-70-31-100c3-15,20-57,36-94l31-67l-27-32c-28-33-49-70-66-115l-10-25l31,21
		c73,52,109,156,109,312c0,86-2,98-19,108C6724,6954,6716,6953,6697,6932z"/>
	<path class="st0" d="M6438,6802c-9-20-27-49-38-63c-20-24-21-29-9-88c12-55,11-68-5-113c-15-42-15-52-4-59c21-14,25-11,41,30
		c42,104,64,272,41,313C6457,6836,6452,6832,6438,6802z"/>
	<path class="st0" d="M6601,6674c0-11,3-14,6-6c3,7,2,16-1,19C6603,6691,6600,6685,6601,6674z"/>
	<path class="st0" d="M6508,6597c-31-31-35-66-18-129c15-52,33-61,25-11c-4,21-9,46-12,56c-3,13,7,22,41,37c53,22,58,39,19,61
		C6536,6625,6534,6625,6508,6597z"/>
	<path class="st0" d="M6560,6501c0-5,5-13,10-16c6-3,10-2,10,4c0,5-4,13-10,16C6565,6508,6560,6507,6560,6501z"/>
	<path class="st0" d="M6565,6200c3-5,8-10,11-10c2,0,4,5,4,10c0,6-5,10-11,10C6564,6210,6562,6206,6565,6200z"/>
	<path class="st0" d="M6602,5698c-35-45-47-106-12-63c17,20,43,19,91-6c23-11,43-18,46-15c3,2-14,25-37,50
		C6647,5710,6621,5720,6602,5698z"/>
	<path class="st0" d="M6526,5353c-9-57-7-111,4-118c6-4,10,23,10,74c0,45-2,81-4,81S6530,5373,6526,5353z"/>
	<path class="st0" d="M6621,5329c-6-28-32-110-57-183c-58-168-84-277-83-346l1-55l30,63c18,38,32,85,35,122c4,40,10,60,19,60
		c7,0,16-4,19-10c14-22,23-8,18,28c-4,30,0,44,25,75c42,53,47,84,22,153c-11,33-16,60-12,62c45,15,52,51,13,71
		C6633,5379,6631,5375,6621,5329z"/>
	<path class="st0" d="M9745,4520c-4-6,0-21,9-34c11-17,21-22,40-19c30,6,27,14-14,43C9762,4523,9749,4527,9745,4520z"/>
	<path class="st0" d="M9579,4013c-5-14-7-46-3-70c6-39,9-43,34-43c23,0,33,9,54,44c14,25,26,50,26,56c0,12-59,40-85,40
		C9597,4040,9585,4028,9579,4013z"/>
	<path class="st0" d="M9350,3836c0-19,51-191,61-202c6-8,20-14,30-14c17,0,16,5-11,49c-44,71-36,110,16,76c51-33,42-8-13,35
		C9371,3829,9350,3843,9350,3836z"/>
	<path class="st0" d="M9542,3614c53-54,76-52,63,5c-5,25-12,31-33,31c-15,0-38,3-52,6C9498,3662,9501,3656,9542,3614z"/>
	<path class="st0" d="M9798,3655c-3-6-8-44-12-85c-11-117-10-116-61-85l-44,25l-19-25c-11-13-25-39-32-57c-8-18-22-45-32-60
		c-11-16-17-32-13-38c7-11,56,5,67,23c5,9,10,9,18,1c9-9,9-14,1-18c-6-4-11-14-11-21c0-11,6-12,26-5c35,14,34,14,34-21
		c0-26,2-29,14-19c8,6,16,28,18,47c4,43,28,58,28,18c0-26,1-27,22-13c12,8,29,25,37,39c15,22,15,23-2,10c-20-16-20-19-2,49
		c19,72,19,80-6,80c-20,0-21,4-15,53C9820,3604,9809,3674,9798,3655z"/>
	<path class="st0" d="M9752,3545c0-16,2-22,5-12c2,9,2,23,0,30C9754,3569,9752,3562,9752,3545z"/>
	<path class="st0" d="M9490,3431c0-6,5-13,10-16c6-3,10,1,10,9c0,9-4,16-10,16C9495,3440,9490,3436,9490,3431z"/>
	<path class="st0" d="M6263,3764c-13-14-23-37-23-52v-27l13,25c8,16,23,26,40,28c30,4,32,9,13,35C6290,3794,6290,3794,6263,3764z"/>
	<path class="st0" d="M6340,2821c0-6,4-13,10-16s7,1,4,9C6347,2832,6340,2835,6340,2821z"/>
	<path class="st0" d="M6400,2780c25-4,49-4,55,1c5,5-13,8-45,8l-55-2L6400,2780z"/>
	<path class="st0" d="M6553,2526c-32-20-38-36-16-43c16-6,56,31,52,49C6586,2545,6580,2544,6553,2526z"/>
	<path class="st0" d="M6727,2368c4-18,8-50,7-72v-38l18,22c33,40,19,120-20,120C6722,2400,6720,2392,6727,2368z"/>
	<path class="st0" d="M7688,2358c-20-7-28-16-28-34c0-21,5-24,35-24c32,0,35,2,35,29C7730,2365,7723,2370,7688,2358z"/>
	<path class="st0" d="M6585,2293l-60-38l47-3c43-3,47-5,54-35c3-17,15-51,25-75l19-44l-22,6c-13,3-35,6-50,6c-21,0-25,4-21,21
		c5,19,4,19-28,7c-18-8-34-18-36-24c-4-13,89-73,157-101l55-22l3,29c2,16-11,69-28,117c-45,124-48,151-19,162l24,9l-28,11
		c-16,6-29,11-30,11C6645,2330,6618,2313,6585,2293z"/>
	<path class="st0" d="M6778,2240c-4-26-1-30,19-30c31,0,41,27,17,45C6787,2275,6783,2274,6778,2240z"/>
	<path class="st0" d="M6320,2231c0-6-13-25-29-43c-35-41-46-63-55-108l-6-35l54,60c42,46,55,68,56,92c0,17-4,35-10,38
		C6325,2238,6320,2237,6320,2231z"/>
	<path class="st0" d="M6870,2184c0-11,10-57,21-104c22-90,39-200,30-200c-2,0-14,9-26,20s-39,28-60,39c-36,17-40,17-51,3
		c-10-14-14-13-39,6c-31,25-72,28-99,9c-16-11-10-19,61-71c98-74,216-130,340-162c112-28,166-31,161-9c-2,8-37,39-78,68
		c-66,47-110,93-123,130c-2,7-8,9-12,4c-12-10,16-64,59-116c20-24,35-46,33-48c-10-10-148,30-176,51l-31,23l34,24c30,20,35,29,40,81
		c12,100-20,217-69,258C6873,2200,6870,2199,6870,2184z"/>
	<path class="st0" d="M7670,2185c-7-9-65-41-129-71c-64-31-121-60-128-66c-17-13-2-48,54-131c41-60,52-69,96-82c65-19,230-42,391-55
		c180-14,186-14,186,9c0,16-10,20-65,26c-36,3-65,11-65,15c0,11,34,17,160,28l95,8l-70,22c-38,11-108,31-155,43l-85,22l-110,112
		c-95,97-139,135-158,135C7684,2200,7677,2193,7670,2185z"/>
	<path class="st0" d="M6750,2086c0-16,10-46,22-68c20-36,26-39,52-34c31,6,46,21,46,44c0,9-7,11-21,7c-16-5-29,3-60,36l-39,42V2086z
		"/>
	<path class="st0" d="M6315,1919c-73-59-75-76-25-185l42-91l60-7c71-7,88,2,88,47c0,29,0,30-20,12c-19-18-20-17-20,2
		c0,22-18,33-51,33c-19,0-59,33-59,48c0,5,57-11,126-35c135-46,164-51,164-29c0,8,3,21,6,29c3,9-3,16-17,20c-15,4-23,1-26-14
		c-10-38-21-18-28,52l-7,71l-40,17c-29,12-41,23-45,44c-5,26-23,39-23,16c0-10-22-8-62,6C6371,1957,6343,1941,6315,1919z"/>
	<path class="st0" d="M7272,1781c-10-6-10-10,2-20c18-15,99-11,88,5C7353,1781,7288,1792,7272,1781z"/>
	<path class="st0" d="M6695,1676c-18-13-18-14,3-25c25-13,62-14,81-2c12,8,12,12,2,25C6765,1694,6720,1695,6695,1676z"/>
	<path class="st0" d="M7045,1660c3-5,25-10,47-10c51,0,47,5-10,14C7053,1668,7041,1667,7045,1660z"/>
	<path class="st0" d="M6512,1593c-34-7-16-23,25-23c30,0,34,2,23,15c-7,8-15,14-19,14C6538,1598,6525,1595,6512,1593z"/>
	<path class="st0" d="M6590,1546c0-9,7-16,16-16c17,0,14,22-4,28C6595,1560,6590,1555,6590,1546z"/>
	<path class="st0" d="M9725,1653c4-10,10-26,12-35c4-12,15-18,34-18c29,0,29,1,14,23c-8,13-27,29-41,36
		C9720,1669,9718,1669,9725,1653z"/>
	<path class="st0" d="M12075,18113c-29-7-43-23-19-23c16,0,17-2,4-11c-11-8,0-9,40-5c30,3,78,6,105,6c44,0,51,3,51,20
		c0,18-7,20-81,19C12131,18118,12086,18116,12075,18113z"/>
	<path class="st0" d="M12288,18113c6-2,18-2,25,0c6,3,1,5-13,5S12281,18116,12288,18113z"/>
	<path class="st0" d="M14830,15650c0-6,7-40,16-76s14-67,11-70s-24,7-46,22c-23,15-43,25-45,23c-3-2,2-33,9-69c8-36,14-81,15-100
		c0-19,9-64,20-100s20-92,20-125c-1-51-6-67-33-106c-18-26-61-71-97-100c-93-77-139-128-162-178c-18-39-19-56-13-155
		c11-183,10-315-3-328c-16-16-59,16-130,93c-108,118-178,152-137,66c12-25,33-44,76-67s61-38,66-58c9-36,10-178,1-222
		c-4-19-11-60-17-90c-9-53-23-119-59-285c-18-82-22-219-9-268c4-15,32-56,61-91c30-34,62-78,71-97c10-19,24-42,32-51
		c32-36-16-98-75-98c-26,0-72-37-72-58c0-9,9-31,19-49c37-60,157-54,220,11c75,78,44,227-83,396c-62,83-76,107-76,133
		c0,36,53,137,205,394c94,158,136,243,142,292c4,32,2,41-9,41c-9,0-27,9-42,21c-53,42-24,153,34,131c24-9,198-161,199-174
		c1-4,23-36,51-70c113-143,184-292,236-493c21-83,27-131,31-282c6-172,13-213,28-160c4,12,14,38,22,57s19,44,23,55
		c5,11,14,64,21,118c10,78,10,124,0,232c-12,135-19,156-72,236c-138,208-281,462-308,549c-23,74-31,148-25,221c7,85,18,101,135,200
		c77,66,84,92,53,217c-47,192-98,287-167,316c-26,10-38,28-73,106C14857,15644,14830,15682,14830,15650z"/>
	<path class="st0" d="M15186,15113c3-38,10-92,15-122c12-71,11-197-1-241c-5-19-14-66-19-105c-9-60-8-80,10-144c24-85,52-132,91-156
		c25-14,30-14,56-1c34,18,62,78,62,134c0,20,3,61,7,91l6,54l91-7c75-6,97-4,124,10c20,10,37,13,43,7c13-13,49-156,59-238
		c5-38,16-106,24-150c13-67,22-215,14-215c-2,0-25,7-51,15c-43,13-49,13-54-1c-12-32,8-106,43-160c46-69,81-94,132-94
		c58,0,67,29,66,200c-3,255-66,604-139,765c-13,28-28,67-35,88c-6,20-14,37-17,37s-40-30-81-66c-75-66-76-66-127-62
		c-61,5-132,49-163,101c-11,19-34,78-51,132c-47,144-72,195-93,195C15181,15180,15180,15174,15186,15113z"/>
	<path class="st0" d="M15060,14640c0-5,7-10,15-10s15,5,15,10c0,6-7,10-15,10S15060,14646,15060,14640z"/>
	<path class="st0" d="M7551,11557c-81-22-85-25-118-72c-48-70-109-200-122-260c-6-27-12-76-13-107c-2-32-4-58-5-58s-34,16-74,35
		c-106,51-197,44-230-17c-11-21-10-21,49-15c97,10,120-8,53-42c-21-11-52-32-69-46l-30-25l-68,35c-74,39-100,35-70-9
		c11-17,35-31,74-42c31-9,63-21,70-26c38-32-14-35-178-13c-58,8-125,15-149,15c-36,0-42-2-32-14c21-25,112-41,231-40
		c63,0,132,6,154,12c38,11,38,11,33-14c-6-34,15-41,140-50c85-6,100-4,112,10c8,9,11,20,7,24s-52,14-106,23c-102,17-195,58-187,82
		c7,22,171,115,187,106c8-4,37-29,64-55c68-66,88-117,94-237c3-54,8-95,12-90c4,4,15,51,25,103c18,101,36,153,62,182
		c14,16,13,27-10,130c-14,61-23,118-20,125c6,16,49,28,188,53c215,39,457,60,500,44c42-16,59-128,31-206c-15-43-12-50,19-42
		c21,5,23,1,35-91c10-77,17-99,34-111c20-14,22-13,44,37c15,35,20,55,13,62c-12,12-39-8-51-38c-18-42-11,17,9,82
		c45,149,37,217-40,339c-27,43-49,84-49,91c0,22-17,23-44,2l-26-20v50c0,46-3,52-31,66c-51,27-157,44-299,50
		C7652,11579,7625,11577,7551,11557z"/>
	<path class="st0" d="M6569,11049c13-11,62-31,110-45c47-14,97-33,109-41c13-8,25-13,27-11s1,22-2,46c-5,38-9,43-42,51
		c-20,5-79,11-131,14C6546,11068,6546,11068,6569,11049z"/>
	<path class="st0" d="M6406,11014c-3-9-6-23-6-31c0-13,3-13,15-3c16,13,21,50,6,50C6416,11030,6409,11023,6406,11014z"/>
	<path class="st0" d="M6457,10975c-5-13,4-15,59-15c48,0,65,3,62,13C6571,10992,6464,10995,6457,10975z"/>
	<path class="st0" d="M7190,10964c-16-41-13-44,40-44c28,0,50,4,50,9c0,11-58,61-71,61C7204,10990,7195,10978,7190,10964z"/>
	<path class="st0" d="M7981,10976c-7-8-26-18-42-21c-31-7-33-14-23-77c9-50,59-83,118-79c47,3,68,19,108,80c36,57,35,77-2,96
		C8102,10995,7997,10995,7981,10976z M7980,10865c0-23-3-27-10-15c-5,8-10,29-10,45c0,23,3,27,10,15
		C7975,10902,7980,10882,7980,10865z"/>
	<path class="st0" d="M7621,10937c-79-27-91-43-68-92c21-45,49-55,147-55h79l15,54c9,30,16,57,16,60c0,8-97,56-112,55
		C7691,10959,7656,10949,7621,10937z"/>
	<path class="st0" d="M6476,10758c-38-20-75-54-76-71c0-15,28-18,68-7c34,9,43,16,52,46C6536,10774,6523,10783,6476,10758z"/>
	<path class="st0" d="M6548,10712c-12-21-14-32-6-47c10-16-6-36-131-158c-109-106-142-143-139-160c2-12,10-23,19-25
		c23-4,104,62,149,121c69,91,67,90,120,84l48-6l-9,32c-13,47-11,57,11,57c13,0,20-7,20-19c0-11,5-23,10-26c6-4,10,10,10,34
		c0,36,3,40,33,50c18,6,60,15,92,19l60,8l-40,18c-46,20-156,46-200,46C6572,10740,6560,10733,6548,10712z"/>
	<path class="st0" d="M7184,10685c27-21,126-21,126,0c0,12-15,15-72,15C7172,10699,7167,10698,7184,10685z"/>
	<path class="st0" d="M9005,10686c-10-7-16-22-13-37c3-21,9-24,48-27c40-3,48,0,72,29c15,18,27,34,25,34c-1,1-28,5-59,8
		C9041,10696,9016,10694,9005,10686z"/>
	<path class="st0" d="M6571,10404c0-11,3-14,6-6c3,7,2,16-1,19C6573,10421,6570,10415,6571,10404z"/>
	<path class="st0" d="M6507,10348c-15-11-27-24-27-28c0-12,73,14,77,27C6564,10367,6534,10368,6507,10348z"/>
	<path class="st0" d="M6515,10200c-41-42-46-50-31-56c10-4,21-3,25,3c3,5,21,30,39,56s29,47,25,47C6568,10250,6542,10228,6515,10200
		z"/>
	<path class="st0" d="M8127,10186c-4-10-5-21-2-24c9-9,17,6,13,25C8135,10204,8134,10204,8127,10186z"/>
	<path class="st0" d="M6405,10130l15-42l-43,7l-42,7l25-20c34-28,16-48-25-26c-16,8-43,13-60,11l-30-4l33-13c40-18,41-30,2-30
		c-25,0-33-8-65-63c-19-35-35-67-35-71s15,4,33,17c17,14,86,52,152,85c67,34,134,75,150,92l29,30h-31c-16,0-45,10-64,23
		C6388,10174,6389,10174,6405,10130z"/>
	<path class="st0" d="M8786,10073c5-20,4-25-7-21c-56,21-130,40-135,35c-12-12,14-81,43-115c27-32,31-33,120-39l92-6l11,27
		c11,30,6,46-14,46c-8,0-19,7-27,16c-11,14-9,15,22,12c24-2,37-10,44-25c7-16,18-23,38-23c23,0,26,3,18,18c-18,33-58,63-114,82
		C8797,10108,8778,10107,8786,10073z M8790,9990c0-5-19-10-42-10c-32,0-39,3-28,10C8740,10003,8790,10003,8790,9990z"/>
	<path class="st0" d="M9670,10040c0-5,5-10,11-10c5,0,7,5,4,10c-3,6-8,10-11,10C9672,10050,9670,10046,9670,10040z"/>
	<path class="st0" d="M6128,9983c-59-50-86-81-108-123c-7-13,31,16,84,65s96,93,96,97C6200,10038,6183,10029,6128,9983z"/>
	<path class="st0" d="M10400,9841c0-12,29-23,41-15c5,3,7,10,4,15C10437,9853,10400,9853,10400,9841z"/>
	<path class="st0" d="M10477,9813c-4-3-7-12-7-18c0-12,39-18,180-31l55-5l-23,20C10648,9809,10498,9834,10477,9813z"/>
	<path class="st0" d="M9900,9796c0-9-10-21-22-27c-22-11-37-28-38-39c0-3,51-3,112-1c62,2,218-2,346-9c171-9,237-9,245-1
		c6,6,7,11,1,11c-31,0-516,41-549,46c-22,4-52,13-67,20C9904,9809,9900,9809,9900,9796z"/>
	<path class="st0" d="M7740,9283c0-21,3-24,9-14c5,8,7,20,4,28C7745,9318,7740,9312,7740,9283z"/>
	<path class="st0" d="M5828,8978c23-23,39-20,29,7c-4,8-17,15-29,15h-22L5828,8978z"/>
	<path class="st0" d="M5800,8731c27-52-1-81-76-81c-46,0-41-24,5-28c23-2,57,8,109,34l76,37l-39,14c-21,7-46,20-55,28
		C5797,8756,5787,8754,5800,8731z"/>
</g>
</svg>
