<?xml version="1.0" encoding="iso-8859-1"?>
<!-- Generator: Adobe Illustrator 19.0.0, SVG Export Plug-In . SVG Version: 6.00 Build 0)  -->
<svg version="1.1" id="Layer_1" xmlns="http://www.w3.org/2000/svg" xmlns:xlink="http://www.w3.org/1999/xlink" x="0px" y="0px"
	 viewBox="0 0 512 512" style="enable-background:new 0 0 512 512;" xml:space="preserve">
<g>
	<g>
		<path d="M486.882,25.976H348.121c-11.623,0-21.66,7.888-24.407,19.182l-47.683,196.03c-0.753,3.094-0.63,6.238,0.273,9.149
			l-19.558,19.558c-12.62,12.62-19.938,29.126-20.844,46.821h-2.989c-4.427,0-8.017,3.589-8.017,8.017
			c0,4.427,3.589,8.017,8.017,8.017h3.957c2.485,14.423,9.315,27.71,19.875,38.27l4.276,4.276c21.628,21.628,21.628,56.821,0,78.45
			c-0.515,0.515-1.045,1.007-1.576,1.497l-1.451-2.132c-2.491-3.661-7.476-4.61-11.137-2.12c-3.661,2.49-4.61,7.477-2.12,11.137
			l1.485,2.183c-20.708,10.136-46.462,6.625-63.653-10.566l-33.963-33.964c-7.223-7.223-15.273-13.115-23.842-17.717l1.607-3.167
			c2.003-3.948,0.427-8.773-3.522-10.777c-3.947-2.002-8.773-0.425-10.777,3.522l-2.006,3.955
			c-35.827-12.444-77.254-4.385-105.823,24.184l-1.896,1.896c-3.131,3.131-3.131,8.207,0,11.337c3.131,3.131,8.207,3.131,11.337,0
			l1.896-1.896c23.537-23.537,57.424-30.537,87.143-21.048l-0.538,1.06c-2.003,3.948-0.426,8.773,3.522,10.777
			c1.163,0.59,2.401,0.869,3.621,0.869c2.923,0,5.742-1.605,7.155-4.391l1.022-2.015c7.096,3.852,13.769,8.754,19.763,14.747
			l33.963,33.964c13.505,13.505,31.463,20.944,50.562,20.944c11.889,0,23.334-2.885,33.54-8.319l1.693,2.489
			c1.551,2.281,4.071,3.509,6.636,3.509c1.552,0,3.121-0.45,4.501-1.39c3.661-2.49,4.61-7.477,2.12-11.137l-1.748-2.569
			c1.305-1.131,2.587-2.295,3.82-3.528c13.505-13.505,20.944-31.462,20.944-50.562c0-19.1-7.437-37.055-20.943-50.562l-4.276-4.276
			c-7.674-7.674-12.61-17.056-14.838-26.933H256c4.427,0,8.017-3.589,8.017-8.017s-3.589-8.017-8.017-8.017h-3.999
			c0.867-12.934,6.217-25.619,16.08-35.483l19.555-19.555c1.622,0.503,3.316,0.766,5.034,0.766c1.365,0,2.746-0.164,4.115-0.496
			l196.031-47.683C504.111,211.516,512,201.479,512,189.856V51.095C512.001,37.244,500.733,25.976,486.882,25.976z M306.145,243.17
			l113.187-113.187l68.897,68.897L306.145,243.17z M495.967,183.945l-65.298-65.298l48.75-48.75c3.131-3.131,3.131-8.207,0-11.337
			c-3.131-3.131-8.207-3.131-11.337,0l-48.75,48.75L406.862,94.84c-3.131-3.131-8.207-3.131-11.337,0
			c-3.131,3.131-3.131,8.207,0,11.337l12.471,12.471L294.808,231.833l44.291-182.084l32.24,32.24
			c1.565,1.566,3.617,2.348,5.668,2.348s4.103-0.782,5.668-2.348c3.131-3.131,3.131-8.207,0-11.337l-28.642-28.642h132.849
			c5.01,0,9.086,4.076,9.086,9.086V183.945z"/>
	</g>
</g>
<g>
</g>
<g>
</g>
<g>
</g>
<g>
</g>
<g>
</g>
<g>
</g>
<g>
</g>
<g>
</g>
<g>
</g>
<g>
</g>
<g>
</g>
<g>
</g>
<g>
</g>
<g>
</g>
<g>
</g>
</svg>
