<svg id="Layer_1" enable-background="new 0 0 256 256" height="512" viewBox="0 0 256 256" width="512" xmlns="http://www.w3.org/2000/svg"><g><g><path d="m184.9 110.19c-9.36.11-9.41 11.23-18.87 11.23-9.51 0-9.51-11.24-19.02-11.24s-9.51 11.24-19.02 11.24-9.51-11.24-19.01-11.24c-9.51 0-9.51 11.24-19.01 11.24-9.46 0-9.51-11.12-18.87-11.23 1.24-11.23 10.77-19.97 22.33-19.97h69.14c11.56 0 21.09 8.74 22.33 19.97z" fill="#ff4a73"/><path d="m185.05 112.7v28.67h-114.1v-28.67c0-.85.05-1.68.15-2.51 9.36.11 9.41 11.23 18.87 11.23 9.5 0 9.5-11.24 19.01-11.24 9.5 0 9.5 11.24 19.01 11.24s9.51-11.24 19.02-11.24 9.51 11.24 19.02 11.24c9.46 0 9.51-11.12 18.87-11.23.1.83.15 1.66.15 2.51z" fill="#ffe2e2"/><path d="m197.4 160.2h-1.2c-11.37 0-11.37 13.49-22.74 13.49s-11.37-13.49-22.73-13.49c-11.37 0-11.37 13.49-22.73 13.49-11.37 0-11.37-13.49-22.74-13.49-11.36 0-11.36 13.49-22.73 13.49-11.36 0-11.36-13.49-22.73-13.49h-1.2c1.74-10.67 11.01-18.83 22.19-18.83h94.42c11.18 0 20.45 8.16 22.19 18.83z" fill="#ff4a73"/><path d="m197.7 163.85v28.67h-139.4v-28.67c0-1.24.1-2.46.3-3.65h1.2c11.37 0 11.37 13.49 22.73 13.49 11.37 0 11.37-13.49 22.73-13.49 11.37 0 11.37 13.49 22.74 13.49 11.36 0 11.36-13.49 22.73-13.49 11.36 0 11.36 13.49 22.73 13.49s11.37-13.49 22.74-13.49h1.2c.2 1.19.3 2.41.3 3.65z" fill="#ffe2e2"/><path d="m217.07 211.35h-2.61c-10.8 0-10.8 13.49-21.61 13.49s-10.81-13.49-21.62-13.49-10.81 13.49-21.62 13.49-10.81-13.49-21.62-13.49-10.81 13.49-21.61 13.49c-10.81 0-10.81-13.49-21.62-13.49s-10.81 13.49-21.61 13.49c-10.81 0-10.81-13.49-21.61-13.49h-2.61c1.74-10.68 11.01-18.83 22.18-18.83h133.78c11.17 0 20.44 8.15 22.18 18.83z" fill="#ff4a73"/><path d="m217.37 215v28.67h-178.74v-28.67c0-1.24.1-2.46.3-3.65h2.61c10.8 0 10.8 13.49 21.61 13.49 10.8 0 10.8-13.49 21.61-13.49s10.81 13.49 21.62 13.49c10.8 0 10.8-13.49 21.61-13.49s10.81 13.49 21.62 13.49 10.81-13.49 21.62-13.49 10.81 13.49 21.62 13.49 10.81-13.49 21.61-13.49h2.61c.2 1.19.3 2.41.3 3.65z" fill="#ffe2e2"/><g fill="#ffefee"><path d="m85.95 120.59v20.78h-15v-28.67c0-.85.05-1.68.15-2.51 7.8.09 9.14 7.84 14.85 10.4z"/><path d="m73.3 169.38v23.14h-15v-28.67c0-1.24.1-2.46.3-3.65h1.2c7.08 0 9.75 5.23 13.5 9.18z"/><path d="m53.63 219.68v23.99h-15v-28.67c0-1.24.1-2.46.3-3.65h2.61c6.25 0 8.88 4.52 12.09 8.33z"/></g><path d="m88.141 110.409c4.456.948 6.488 4.767 9.319 7.641-1.84 1.89-4.04 3.37-7.49 3.37-9.46 0-9.51-11.12-18.87-11.23 1.24-11.23 10.77-19.97 22.33-19.97h15c-10.784 0-19.802 7.606-21.97 17.745-.243 1.135.546 2.203 1.681 2.444z" fill="#f973a3"/><path d="m90.03 171c-1.92 1.59-4.25 2.69-7.5 2.69-11.36 0-11.36-13.49-22.73-13.49h-1.2c1.74-10.67 11.01-18.83 22.19-18.83h15c-11.18 0-20.45 8.16-22.19 18.83h1.2c8.11 0 10.44 6.87 15.23 10.8z" fill="#f973a3"/><path d="m70.65 221.82c-1.9 1.76-4.19 3.02-7.5 3.02-10.81 0-10.81-13.49-21.61-13.49h-2.61c1.74-10.68 11.01-18.83 22.18-18.83h15c-10.215 0-18.841 6.816-21.572 16.149-.391 1.338.608 2.681 2.002 2.681 7.5 0 9.79 6.5 14.11 10.47z" fill="#f973a3"/><path d="m185.05 112.7v28.67h-15v-20.78c5.71-2.56 7.05-10.31 14.85-10.4.1.83.15 1.66.15 2.51z" fill="#ffcfcf"/><path d="m197.7 163.85v28.67h-15v-23.15c3.75-3.94 6.42-9.17 13.5-9.17h1.2c.2 1.19.3 2.41.3 3.65z" fill="#ffcfcf"/><path d="m217.37 215v28.67h-15v-23.99c3.21-3.81 5.84-8.33 12.09-8.33h2.61c.2 1.19.3 2.41.3 3.65z" fill="#ffcfcf"/><path d="m184.9 110.19c-9.36.11-9.41 11.23-18.87 11.23-3.44 0-5.64-1.47-7.5-3.36 2.831-2.875 4.863-6.702 9.329-7.651 1.136-.241 1.924-1.309 1.682-2.445-2.169-10.138-11.186-17.744-21.97-17.744h15c11.559 0 21.089 8.74 22.329 19.97z" fill="#ea2a6a"/><path d="m197.4 160.2h-1.2c-11.37 0-11.37 13.49-22.74 13.49-3.25 0-5.58-1.1-7.5-2.69 4.8-3.93 7.13-10.8 15.24-10.8h1.2c-1.74-10.67-11.01-18.83-22.19-18.83h15c11.18 0 20.45 8.16 22.19 18.83z" fill="#ea2a6a"/><path d="m217.07 211.35h-2.61c-10.8 0-10.8 13.49-21.61 13.49-3.31 0-5.6-1.26-7.5-3.01 4.32-3.98 6.61-10.48 14.11-10.48 1.394 0 2.393-1.343 2.002-2.681-2.731-9.333-11.357-16.149-21.572-16.149h15c11.17 0 20.44 8.15 22.18 18.83z" fill="#ea2a6a"/></g><path d="m249.407 239.667h-28.038v-24.666c0-12.248-8.36-22.577-19.673-25.59v-25.558c0-9.534-5.066-17.906-12.646-22.57v-28.578c0-14.603-11.88-26.483-26.482-26.483h-12.514c.094-.339.16-.69.16-1.059v-12.095h7.293c2.209 0 4-1.791 4-4s-1.791-4-4-4h-7.293v-4.694c12.54-1.931 22.173-12.795 22.173-25.868 0-14.432-11.741-26.173-26.173-26.173-7.072 0-13.493 2.824-18.208 7.397-16.442-15.957-44.39-4.438-44.39 18.78 0 13.072 9.633 23.936 22.173 25.868v4.69h-7.299c-2.209 0-4 1.791-4 4s1.791 4 4 4h7.297v12.095c0 .369.066.719.16 1.059h-12.514c-14.603 0-26.482 11.88-26.482 26.483v28.578c-7.58 4.664-12.646 13.036-12.646 22.57v25.558c-11.313 3.013-19.673 13.342-19.673 25.59v24.666h-28.039c-2.209 0-4 1.791-4 4s1.791 4 4 4h32.038 178.738 32.038c2.209 0 4-1.791 4-4s-1.791-4-4-4zm-103.194-223.334c10.021 0 18.173 8.152 18.173 18.173s-8.152 18.173-18.173 18.173c-6.241 0-11.813-3.17-15.099-8.074-8.17-12.171.772-28.272 15.099-28.272zm-18.208 36.95c3.808 3.694 8.728 6.248 14.208 7.091v4.694h-7.293c-2.209 0-4 1.791-4 4s1.791 4 4 4h7.293v12.095c0 .369.066.719.16 1.059h-28.745c.094-.339.16-.69.16-1.059v-12.095h7.29c2.209 0 4-1.791 4-4s-1.791-4-4-4h-7.29v-4.704c5.365-.831 10.335-3.309 14.217-7.081zm-36.391-18.773c0-16.471 20.334-24.43 31.509-12.342-4.049 7.559-4.151 16.924.002 24.674-3.409 3.694-8.235 5.841-13.338 5.841-10.02.001-18.173-8.152-18.173-18.173zm1.819 59.712h69.135c8.22 0 15.197 5.397 17.591 12.831-3.585 1.352-5.873 4.04-7.672 6.166-2.337 2.761-3.686 4.201-6.456 4.201-2.771 0-4.12-1.441-6.457-4.204-2.513-2.97-5.953-7.036-12.563-7.036s-10.051 4.067-12.563 7.036c-2.337 2.762-3.686 4.204-6.456 4.204-2.771 0-4.119-1.442-6.456-4.205-2.511-2.969-5.949-7.035-12.554-7.035-6.612 0-10.054 4.068-12.565 7.039-2.334 2.76-3.682 4.201-6.445 4.201-2.771 0-4.119-1.44-6.456-4.201-1.799-2.126-4.087-4.813-7.672-6.166 2.392-7.434 9.369-12.831 17.589-12.831zm-18.483 21.526c.763.67 1.532 1.546 2.458 2.64 2.512 2.968 5.952 7.033 12.562 7.033 6.604 0 10.043-4.066 12.554-7.035 2.337-2.763 3.686-4.205 6.457-4.205 2.764 0 4.111 1.44 6.445 4.201 2.512 2.971 5.952 7.039 12.564 7.039 6.61 0 10.051-4.067 12.563-7.036 2.337-2.762 3.686-4.204 6.456-4.204s4.119 1.441 6.456 4.203c2.513 2.97 5.954 7.037 12.564 7.037 6.609 0 10.05-4.064 12.562-7.033.926-1.094 1.695-1.969 2.458-2.64v21.622c-22.06 0-82.09 0-106.1 0v-21.622zm5.836 29.622h94.428c7.644 0 14.218 4.664 17.028 11.295-5.025 1.245-7.993 4.762-10.47 7.701-2.864 3.399-4.663 5.322-8.309 5.322-8.487 0-9.413-13.49-22.735-13.49-13.232 0-14.347 13.49-22.732 13.49-8.469 0-9.389-13.49-22.73-13.49-13.329 0-14.242 13.49-22.731 13.49-7.642 0-8.873-10.57-18.775-13.023 2.808-6.631 9.383-11.295 17.026-11.295zm-18.482 19.211c6.012 2.007 8.256 13.108 20.229 13.108 13.219 0 14.362-13.49 22.731-13.49 8.469 0 9.389 13.49 22.73 13.49 13.232 0 14.347-13.49 22.732-13.49 3.646 0 5.444 1.923 8.309 5.322 3.066 3.639 6.883 8.167 14.427 8.167 12.021 0 14.185-11.09 20.233-13.108v23.938h-131.391zm-1.19 31.938h133.771c7.547 0 14.043 4.552 16.911 11.051-5.592.952-8.701 4.825-11.262 8.022-2.763 3.448-4.359 5.247-7.689 5.247-3.329 0-4.926-1.799-7.688-5.246-2.942-3.673-6.605-8.244-13.931-8.244s-10.987 4.571-13.931 8.244c-2.762 3.447-4.357 5.246-7.687 5.246-3.328 0-4.924-1.799-7.686-5.246-2.943-3.673-6.605-8.244-13.931-8.244-7.324 0-10.986 4.571-13.93 8.244-2.762 3.447-4.357 5.246-7.686 5.246s-4.925-1.799-7.688-5.246c-2.942-3.673-6.604-8.244-13.929-8.244s-10.986 4.571-13.929 8.244c-2.761 3.447-4.357 5.246-7.685 5.246s-4.923-1.799-7.684-5.246c-2.561-3.197-5.669-7.071-11.26-8.022 2.871-6.5 9.367-11.052 16.914-11.052zm152.255 43.148h-170.738v-24.24c2.616.369 4.151 2.123 6.589 5.168 2.942 3.673 6.604 8.244 13.928 8.244s10.986-4.571 13.929-8.244c2.761-3.447 4.357-5.246 7.685-5.246s4.924 1.799 7.686 5.246c2.943 3.673 6.605 8.244 13.931 8.244 7.324 0 10.986-4.571 13.93-8.244 2.762-3.447 4.357-5.246 7.686-5.246s4.925 1.799 7.688 5.246c2.942 3.673 6.604 8.244 13.929 8.244s10.987-4.571 13.93-8.244c2.763-3.447 4.358-5.246 7.688-5.246s4.926 1.799 7.688 5.246c2.942 3.673 6.605 8.244 13.931 8.244s10.989-4.571 13.932-8.244c2.44-3.045 3.975-4.798 6.593-5.168v24.24z" fill="#5f266d"/></g></svg>