<?xml version="1.0" standalone="no"?>
<!DOCTYPE svg PUBLIC "-//W3C//DTD SVG 20010904//EN"
 "http://www.w3.org/TR/2001/REC-SVG-20010904/DTD/svg10.dtd">
<svg version="1.0" xmlns="http://www.w3.org/2000/svg"
 width="827.000000pt" height="827.000000pt" viewBox="0 0 827.000000 827.000000"
 preserveAspectRatio="xMidYMid meet">

<g transform="translate(0.000000,827.000000) scale(0.100000,-0.100000)"
fill="#000000" stroke="none">
<path d="M5375 7619 c-38 -34 -63 -75 -95 -162 -31 -82 -105 -161 -123 -129
-2 4 1 47 8 97 14 99 6 148 -25 165 -27 15 -69 -4 -106 -46 l-31 -36 5 31 c3
24 1 31 -13 31 -38 0 -52 -18 -59 -79 -7 -63 -55 -150 -110 -200 -42 -39 -49
-20 -35 95 15 121 4 157 -48 162 -26 3 -39 -4 -74 -39 -38 -38 -41 -39 -36
-16 8 29 -7 39 -39 27 -21 -8 -34 -45 -34 -98 0 -29 -66 -146 -99 -176 -12
-11 -27 -16 -37 -12 -14 5 -15 19 -9 118 7 100 6 110 -9 105 -12 -5 -16 0 -16
16 0 53 -57 63 -109 19 -18 -15 -47 -52 -65 -82 -26 -44 -40 -58 -74 -70 -23
-8 -44 -11 -47 -8 -3 3 1 32 10 63 15 51 15 59 2 72 -35 35 -87 -35 -87 -117
0 -38 -29 -109 -63 -154 -14 -19 -15 -18 -33 9 -16 24 -19 47 -18 132 2 109
-2 117 -47 93 -13 -7 -19 -21 -19 -43 0 -18 -4 -37 -8 -42 -9 -14 -63 -55 -71
-55 -4 0 -12 20 -19 45 -9 33 -20 50 -45 65 -39 24 -84 26 -115 4 -27 -18 -59
-86 -68 -144 -9 -52 -99 -158 -127 -147 -21 8 -22 75 -2 167 21 97 20 108 -11
102 -46 -9 -59 -44 -59 -165 0 -107 0 -109 28 -133 43 -37 65 -31 124 33 32
34 53 50 53 41 0 -9 12 -30 26 -47 54 -65 155 -23 189 78 11 33 27 56 57 79
l42 33 13 -57 c17 -75 48 -124 77 -124 28 0 54 27 101 105 31 52 41 62 78 71
23 7 50 15 60 19 16 7 18 4 12 -28 -9 -44 10 -104 36 -118 30 -15 82 6 119 48
17 19 32 34 34 32 1 -2 7 -16 14 -31 9 -23 18 -28 45 -28 36 0 55 16 101 85
l26 40 -5 -35 c-4 -19 -8 -45 -11 -57 -3 -17 0 -23 14 -23 32 0 52 33 58 101
4 35 15 80 24 99 24 46 67 93 83 87 12 -4 15 -74 6 -185 -3 -44 -1 -56 15 -68
43 -31 97 -4 158 81 l30 40 -7 -57 c-8 -64 -2 -69 37 -38 21 16 26 31 32 90 7
77 50 164 88 175 37 12 42 -7 29 -105 -15 -106 -10 -137 24 -150 34 -13 64 0
108 49 40 45 47 48 47 27 0 -8 11 -23 25 -34 33 -26 68 -18 118 29 22 22 41
38 42 37 0 -2 6 -15 13 -30 15 -36 60 -38 96 -5 24 20 116 171 116 189 0 24
-25 -1 -70 -71 -62 -97 -74 -108 -96 -90 -14 11 -15 28 -9 116 6 89 5 103 -8
103 -10 0 -17 11 -19 28 -3 23 -8 27 -40 30 -29 2 -43 -3 -73 -29z m62 -39
c-4 -17 -2 -20 14 -15 21 7 21 5 3 -110 -5 -34 -55 -95 -78 -95 -54 0 -37 148
26 228 17 20 41 15 35 -8z m-1100 -130 c3 -11 11 -20 19 -20 13 0 12 -46 -2
-117 -12 -62 -94 -109 -109 -62 -14 44 17 156 57 207 15 18 29 15 35 -8z
m-649 -114 c17 -52 8 -76 -28 -76 -51 0 -78 64 -43 102 27 30 56 19 71 -26z
m-38 -126 c36 0 39 -16 9 -54 -24 -31 -64 -34 -79 -7 -5 11 -10 40 -10 65 l0
45 25 -24 c15 -16 36 -25 55 -25z"/>
<path d="M3035 7621 c-119 -54 -217 -265 -219 -471 -1 -101 11 -152 50 -209
62 -92 166 -96 239 -9 38 44 82 140 95 205 8 34 18 57 31 63 11 6 19 21 19 35
0 14 -1 25 -2 25 -13 0 -176 -31 -207 -40 -30 -8 -41 -16 -41 -30 0 -22 14
-24 93 -11 l47 8 0 -33 c0 -40 -32 -130 -63 -175 -56 -82 -111 -88 -149 -16
-21 38 -23 55 -22 172 2 141 21 236 70 345 40 91 99 135 140 106 30 -22 27
-120 -5 -165 l-24 -34 23 -19 c29 -23 47 -20 72 12 42 56 32 183 -18 234 -32
31 -71 34 -129 7z"/>
<path d="M3371 7574 c-25 -32 -26 -38 -6 -58 20 -19 44 -10 51 19 14 58 -12
81 -45 39z"/>
<path d="M3552 6903 c-58 -28 -128 -116 -161 -202 -44 -113 -54 -163 -54 -276
-1 -84 2 -108 21 -150 66 -145 187 -167 276 -50 38 50 74 131 87 198 7 35 17
57 25 57 14 0 31 47 20 57 -6 6 -221 -32 -237 -43 -5 -3 -9 -14 -9 -26 0 -19
4 -20 48 -13 26 3 58 9 71 12 23 6 24 4 19 -44 -3 -27 -17 -76 -32 -108 -60
-133 -132 -157 -183 -62 -15 26 -18 55 -17 157 1 197 52 371 130 440 42 36 73
36 92 0 18 -34 9 -105 -17 -140 -24 -33 -20 -52 14 -70 83 -44 117 179 40 256
-29 29 -84 32 -133 7z"/>
<path d="M5644 6872 c-31 -24 -54 -74 -64 -138 -6 -34 -20 -70 -40 -98 -33
-45 -75 -73 -85 -56 -3 6 -3 58 1 117 6 98 5 110 -13 132 -28 34 -72 22 -121
-35 l-39 -44 -9 32 c-14 47 -36 57 -79 34 -19 -10 -45 -34 -57 -52 -27 -39
-37 -43 -31 -11 2 12 0 28 -5 35 -13 20 -60 -2 -64 -29 -2 -13 -27 -42 -57
-67 l-55 -44 -12 42 c-15 52 -37 76 -79 90 -74 24 -140 -44 -153 -157 -3 -31
-16 -54 -50 -93 -74 -85 -137 -97 -178 -35 -32 48 3 181 58 219 30 21 48 4 24
-23 -22 -24 -13 -61 14 -61 26 0 52 42 48 76 -2 15 -14 35 -28 46 -66 49 -171
-46 -186 -169 -7 -53 -29 -96 -69 -133 -26 -25 -27 -25 -41 -5 -9 13 -13 34
-10 60 19 156 19 158 -4 152 -17 -4 -20 -2 -15 14 9 29 -12 49 -51 49 -47 0
-98 -55 -145 -156 -42 -90 -104 -164 -137 -164 -19 0 -22 6 -22 43 0 23 7 81
17 129 9 49 14 90 11 93 -3 3 -18 3 -33 -1 -33 -8 -44 -35 -52 -129 -10 -125
14 -185 76 -185 21 0 40 12 74 49 l46 49 6 -29 c4 -16 17 -37 31 -45 22 -15
27 -14 70 7 26 12 54 34 62 49 l16 27 15 -31 c11 -22 24 -32 44 -34 32 -4 49
8 88 61 l28 38 16 -30 c19 -39 43 -51 96 -51 50 0 95 26 144 82 19 23 36 40
37 37 2 -2 10 -17 18 -34 45 -87 170 -49 203 62 9 29 27 52 70 86 31 26 57 41
57 34 0 -7 -5 -50 -10 -96 -14 -105 -10 -117 28 -97 24 12 29 23 40 87 14 81
52 161 87 179 48 26 55 -12 30 -155 -16 -89 -10 -105 30 -87 19 9 25 19 25 44
0 61 31 147 70 190 54 62 63 49 55 -81 -6 -93 -5 -109 10 -124 34 -35 109 -8
153 54 15 21 29 39 32 39 3 0 11 -13 18 -29 39 -88 167 -46 204 66 8 24 27 52
43 64 60 45 115 104 115 123 0 17 -5 15 -37 -15 -47 -44 -93 -79 -104 -79 -5
0 -9 12 -9 26 0 59 -45 104 -105 104 -23 0 -49 -8 -61 -18z m104 -47 c7 -14
12 -41 12 -60 0 -32 -3 -35 -28 -35 -49 0 -83 60 -55 99 20 29 57 27 71 -4z
m-904 -97 c9 -12 16 -42 16 -65 0 -39 -2 -43 -25 -43 -57 0 -88 83 -43 114 29
21 34 20 52 -6z m870 -47 l35 -6 -16 -33 c-19 -38 -57 -52 -80 -29 -9 9 -18
39 -21 69 l-5 53 26 -24 c15 -13 42 -27 61 -30z m-1524 -31 c0 -13 5 -18 15
-14 17 7 20 -33 6 -104 -10 -51 -56 -104 -86 -100 -44 6 -26 145 26 212 24 31
39 33 39 6z m600 -70 c16 -7 36 -10 45 -6 20 7 19 -9 -2 -45 -22 -37 -61 -49
-79 -25 -7 10 -15 35 -19 57 -7 43 2 71 16 47 5 -9 22 -21 39 -28z"/>
<path d="M3885 6856 c-19 -28 -14 -53 10 -62 24 -10 46 16 43 50 -4 40 -31 46
-53 12z"/>
<path d="M2888 6825 c-15 -9 -38 -38 -54 -70 -23 -48 -26 -64 -21 -114 5 -58
4 -61 -39 -118 -89 -117 -113 -198 -79 -263 31 -61 82 -74 170 -44 44 16 48
16 57 0 11 -20 40 -20 81 0 l31 17 -29 22 -28 23 41 50 c65 77 55 101 -13 32
-21 -22 -42 -37 -46 -32 -12 12 -69 201 -69 228 0 14 20 53 44 87 79 112 85
197 14 197 -18 -1 -45 -7 -60 -15z m62 -29 c14 -18 -5 -62 -50 -116 l-29 -35
-1 48 c0 64 25 112 61 116 4 1 12 -5 19 -13z m-85 -430 c30 -100 28 -106 -39
-106 -94 0 -101 82 -18 209 19 28 16 32 57 -103z"/>
<path d="M5000 5610 c0 -5 5 -10 10 -10 6 0 10 -7 10 -15 0 -8 -6 -15 -14 -15
-9 0 -12 -7 -9 -18 2 -10 11 -19 19 -19 8 0 14 9 14 19 0 13 7 18 25 18 16 0
25 6 25 15 0 9 -9 15 -24 15 -14 0 -28 5 -31 10 -3 6 -10 10 -16 10 -5 0 -9
-4 -9 -10z"/>
<path d="M4945 5590 c-4 -6 5 -10 19 -10 14 0 26 5 26 10 0 6 -9 10 -19 10
-11 0 -23 -4 -26 -10z"/>
<path d="M5005 5500 c-3 -5 -1 -10 4 -10 6 0 11 5 11 10 0 6 -2 10 -4 10 -3 0
-8 -4 -11 -10z"/>
<path d="M4944 5418 c-23 -24 -123 -139 -224 -255 -100 -117 -185 -213 -189
-213 -4 0 -16 7 -28 15 -41 29 -201 105 -220 105 -23 0 -71 -50 -148 -153 -45
-62 -60 -75 -71 -66 -18 14 -125 79 -132 79 -9 0 -31 -33 -98 -145 -60 -100
-160 -245 -170 -245 -2 0 -10 13 -19 30 -25 49 -133 157 -254 257 -163 132
-163 132 -296 -57 -73 -105 -184 -216 -346 -347 -129 -105 -179 -150 -179
-164 0 -5 -19 -41 -43 -81 -42 -73 -87 -162 -87 -175 0 -3 30 23 68 58 39 38
95 79 136 99 57 29 75 44 104 90 59 92 209 237 227 218 2 -2 -2 -30 -8 -63
l-11 -60 -9 48 c-5 26 -13 47 -17 47 -19 0 -145 -149 -166 -196 -21 -48 -28
-53 -108 -93 -86 -42 -136 -91 -136 -132 0 -32 28 -27 116 22 l89 50 -55 -51
-55 -51 55 6 c30 3 74 8 98 11 34 5 42 3 42 -10 0 -11 9 -16 29 -16 38 0 76
45 96 113 41 144 55 189 50 157 -3 -19 -8 -57 -11 -85 -3 -27 -14 -70 -24 -95
-17 -41 -24 -82 -21 -120 1 -9 22 8 51 40 l50 55 -6 -87 c-6 -77 -5 -88 9 -88
16 0 20 13 32 115 10 82 32 146 75 218 61 100 44 114 -28 23 -12 -16 -25 -27
-28 -24 -2 3 2 75 10 160 9 98 12 168 6 193 -7 33 -4 47 21 98 17 32 29 68 27
79 -2 16 -20 -1 -76 -75 -70 -92 -109 -130 -177 -173 -18 -11 -4 7 34 46 77
77 156 176 231 288 49 73 56 80 70 67 11 -12 17 -47 21 -133 5 -115 6 -116 8
-32 3 104 8 94 57 -110 41 -168 60 -203 50 -91 -4 41 -9 86 -11 100 -7 38 41
-69 82 -179 73 -201 146 -445 179 -597 9 -43 -14 -22 -77 70 -85 125 -144 202
-203 265 -52 55 -76 65 -76 32 0 -41 -39 -129 -89 -203 -28 -42 -51 -82 -51
-90 0 -17 42 -27 110 -27 62 0 105 -16 125 -47 9 -14 35 -33 58 -43 40 -18
217 -44 227 -33 3 3 4 35 4 72 -2 70 -31 188 -89 360 -19 58 -35 109 -35 113
0 4 11 8 25 8 31 0 31 8 4 105 -11 42 -19 83 -17 92 4 21 146 -196 233 -357
67 -124 115 -202 115 -187 0 4 -29 66 -65 137 -36 71 -65 132 -65 135 0 21 33
-12 121 -120 56 -69 104 -123 107 -120 5 5 -45 90 -202 337 -47 75 -89 144
-92 153 -4 10 16 37 58 81 l63 65 70 -49 c113 -79 211 -164 244 -209 17 -23
43 -50 57 -60 17 -11 42 -49 65 -100 32 -68 59 -103 82 -103 2 0 25 32 51 70
39 56 51 68 62 59 11 -9 12 -6 3 20 -6 17 -14 31 -17 31 -4 0 -29 -23 -57 -50
-34 -34 -57 -49 -67 -45 -9 4 -26 33 -37 66 -24 63 -29 70 -77 99 -31 18 -119
149 -167 246 -18 38 -19 46 -7 54 11 7 9 13 -12 34 -23 24 -38 69 -38 120 0
14 23 -4 83 -63 45 -45 93 -85 107 -87 30 -6 70 -63 70 -99 0 -20 5 -25 24
-25 14 0 27 4 30 9 5 8 -56 105 -133 213 l-34 47 46 63 c64 88 79 104 105 117
20 11 23 9 33 -16 38 -97 48 -110 118 -158 71 -48 71 -49 71 -95 0 -26 -9 -73
-20 -105 -25 -73 -25 -106 -1 -136 25 -31 34 -21 20 20 -6 17 -8 43 -4 58 l6
26 21 -34 c11 -19 35 -52 52 -74 18 -22 66 -105 107 -184 74 -145 147 -241
182 -241 15 0 15 5 -4 53 -22 56 -90 185 -121 230 -38 54 19 18 107 -68 31
-30 60 -55 64 -55 5 0 14 -14 21 -31 32 -77 -64 -197 -229 -283 -127 -66 -154
-109 -108 -176 40 -60 77 -74 213 -80 115 -5 125 -8 198 -44 87 -43 201 -142
223 -194 23 -55 9 -62 -118 -62 -126 0 -261 -19 -386 -56 -48 -14 -89 -27 -92
-29 -2 -2 -13 1 -25 7 -17 8 -19 8 -9 -2 6 -7 9 -20 6 -29 -4 -12 -3 -13 5 -2
8 11 14 10 37 -5 15 -10 24 -19 18 -21 -5 -2 -7 -19 -5 -39 l4 -35 -86 4 c-48
3 -89 7 -92 10 -3 2 27 7 66 11 39 4 68 11 65 16 -3 5 3 16 12 26 16 16 14 17
-40 12 -31 -3 -57 -2 -57 1 0 3 -27 4 -59 3 -51 -3 -59 -6 -54 -20 3 -10 13
-23 22 -31 18 -15 16 -15 -59 14 -55 22 -71 35 -45 35 14 1 8 8 -20 23 l-40
22 1 110 c1 61 2 118 3 129 1 10 -8 29 -20 42 -26 28 -80 32 -99 9 -7 -8 -21
-15 -31 -15 -10 0 -21 -4 -24 -10 -4 -6 9 -10 31 -10 36 0 37 0 19 -20 -21
-23 -44 -28 -25 -5 10 12 10 15 -4 15 -9 0 -16 -4 -16 -10 0 -15 -30 -12 -36
4 -8 21 -61 12 -83 -13 -11 -12 -23 -22 -27 -21 -4 1 -15 -19 -25 -44 -13 -35
-15 -55 -7 -89 8 -40 11 -44 33 -39 30 5 33 32 5 39 -15 4 -20 14 -20 39 0 40
24 54 90 54 32 0 37 -3 33 -18 -2 -10 7 -29 22 -46 14 -15 22 -32 19 -38 -4
-6 1 -8 14 -4 13 4 22 1 26 -9 3 -8 2 -15 -2 -15 -9 0 -34 -62 -28 -68 6 -6
50 19 63 37 7 9 12 12 12 6 0 -5 -6 -19 -14 -29 -20 -26 -19 -39 3 -32 23 8
33 -1 74 -62 41 -61 82 -89 105 -71 10 9 20 9 39 0 14 -6 23 -7 19 -1 -7 11
39 25 54 15 6 -3 11 -13 11 -22 0 -11 -7 -14 -25 -11 -23 5 -22 2 12 -28 21
-18 42 -29 47 -24 11 11 76 -20 76 -37 0 -19 -13 -16 -46 9 l-29 22 20 -23
c11 -13 34 -32 50 -42 24 -15 26 -19 11 -19 -19 0 -19 -1 1 -23 29 -32 40 -52
22 -42 -8 4 -23 15 -34 24 -12 9 -9 3 6 -14 34 -38 49 -68 49 -95 0 -29 -21
-21 -38 13 -14 29 -27 32 -68 17 -19 -7 -30 -7 -40 1 -11 9 -15 8 -20 -5 -7
-18 -30 -21 -39 -6 -4 6 -2 17 4 24 9 10 7 15 -8 19 -23 6 -101 103 -101 126
0 9 -9 33 -20 54 -11 20 -20 45 -20 56 0 10 -21 35 -46 56 -38 32 -49 36 -67
27 l-22 -11 21 0 c33 -1 99 -95 113 -159 15 -73 14 -113 -2 -106 -7 2 -30 -7
-51 -21 -41 -28 -61 -31 -70 -12 -3 6 -4 -7 -1 -31 3 -24 2 -41 -3 -38 -5 3
-8 -15 -8 -39 1 -25 3 -40 5 -34 2 6 16 -2 32 -17 16 -15 41 -28 56 -30 l28
-3 -28 15 c-16 9 -27 18 -24 21 3 2 14 0 25 -6 22 -12 32 1 32 42 0 12 7 31
15 41 8 11 15 42 16 70 0 55 12 96 22 80 3 -6 9 -53 13 -105 10 -134 50 -210
119 -223 25 -5 23 -3 -12 13 -40 19 -88 81 -62 81 7 0 8 11 4 29 -8 38 10 49
39 22 24 -23 87 -27 179 -12 27 5 50 4 53 -1 11 -17 -5 -56 -22 -54 -9 0 -19
-5 -21 -11 -8 -23 33 -14 57 12 28 30 60 33 60 6 0 -25 -20 -38 -21 -14 0 13
-2 14 -6 3 -10 -25 -36 -46 -94 -79 -48 -27 -65 -31 -128 -31 -59 0 -72 -3
-68 -14 3 -8 -1 -20 -9 -26 -10 -9 -14 -9 -14 -1 0 6 5 11 12 11 6 0 2 10 -10
23 -12 13 -22 33 -22 46 0 12 -11 39 -25 59 -14 20 -25 52 -26 72 l-1 35 -10
-40 c-5 -22 -7 -52 -5 -67 2 -20 -1 -28 -11 -28 -13 0 -12 -3 2 -19 18 -20 57
-123 50 -130 -5 -5 -54 44 -54 54 0 3 -10 21 -22 40 -18 27 -30 35 -54 35 -24
0 -31 4 -30 18 0 9 4 20 9 23 4 3 -2 14 -13 24 -16 14 -22 15 -35 5 -12 -10
-18 -9 -30 4 -9 9 -21 16 -28 16 -6 0 -3 -6 6 -13 13 -9 16 -20 11 -46 -6 -30
-9 -32 -19 -17 -11 15 -18 10 -59 -46 -26 -35 -55 -72 -64 -83 -9 -11 -14 -22
-12 -24 6 -5 -33 -17 -85 -26 -36 -7 -38 -8 -17 -16 22 -8 22 -9 3 -28 -10
-10 -22 -33 -26 -50 -4 -17 -11 -29 -15 -26 -5 3 -7 12 -3 20 3 10 -2 15 -16
15 -26 0 -26 4 0 49 l21 36 -30 -35 c-36 -41 -51 -102 -30 -127 11 -15 11 -16
-6 -9 -19 6 -19 6 -3 -12 23 -25 22 -69 0 -76 -15 -4 -14 -4 2 -3 11 1 21 12
25 26 l5 24 13 -27 c10 -22 8 -32 -9 -66 -17 -33 -26 -40 -50 -40 -41 0 -95
29 -108 57 -15 32 -14 33 9 33 11 0 20 5 20 10 0 6 -5 10 -11 10 -8 0 -10 14
-6 40 3 24 1 41 -7 44 -6 3 -4 5 4 4 19 -3 60 20 60 32 0 6 -31 44 -69 84 -38
41 -73 88 -79 105 -10 27 -8 33 19 55 16 14 38 27 49 31 11 3 20 11 20 17 0
12 30 37 44 38 5 0 1 -9 -8 -19 -16 -17 -16 -22 -3 -43 8 -12 18 -39 22 -58
10 -47 55 -130 71 -130 8 0 23 19 35 42 12 24 28 47 35 51 8 4 14 14 14 22 0
8 13 33 29 57 44 66 57 112 44 151 -6 19 -8 54 -4 87 7 51 5 60 -32 128 l-38
72 30 0 c23 0 34 -7 45 -27 8 -16 15 -24 16 -20 0 5 -5 17 -10 28 -9 15 -7 19
7 19 10 0 23 -10 28 -22 6 -12 16 -23 23 -24 7 -1 8 0 2 3 -5 2 -10 12 -10 21
0 15 2 15 10 2 8 -12 10 -11 10 8 0 47 27 80 133 170 15 12 35 22 45 23 12 0
10 3 -7 10 -15 6 -28 6 -36 -1 -9 -8 -17 -2 -28 23 -16 33 -18 34 -72 31 -76
-4 -95 -11 -95 -37 0 -14 3 -18 8 -10 4 6 8 -7 8 -30 l1 -42 -21 46 c-11 26
-37 65 -58 89 -33 38 -37 40 -43 21 -7 -22 -1 -51 17 -87 6 -14 7 -33 0 -56
-5 -20 -7 -47 -5 -62 5 -24 3 -26 -30 -26 -20 0 -39 5 -42 11 -4 6 9 37 29 69
41 66 42 70 21 70 -9 0 -30 7 -48 17 -24 12 -29 12 -21 2 13 -16 23 -110 12
-102 -5 2 -8 -9 -8 -25 0 -37 -28 -66 -28 -30 -2 88 -11 167 -20 184 -15 29
-8 33 36 23 53 -12 62 -11 62 9 0 9 5 24 10 32 8 12 15 9 43 -18 46 -45 55
-28 11 21 -21 23 -34 46 -31 56 3 9 14 41 25 71 l21 55 -27 3 c-38 4 -107 -13
-105 -25 1 -6 -15 -10 -37 -9 -33 0 -42 5 -49 26 -9 23 -9 23 -10 4 -1 -21
-19 -34 -44 -34 -7 0 -6 4 3 10 12 8 10 10 -10 11 -65 4 -146 -4 -157 -14 -7
-7 -15 -43 -19 -82 -3 -38 -12 -79 -19 -90 -7 -11 -34 -26 -61 -33 -98 -27
-114 -34 -108 -44 4 -6 34 -7 80 -3 49 5 74 4 74 -3 0 -12 -16 -18 -78 -27
-38 -6 -79 -31 -69 -41 2 -2 21 2 43 9 104 36 130 26 44 -18 -53 -27 -66 -41
-27 -30 66 19 63 19 48 1 -7 -9 -32 -21 -55 -28 -58 -16 -63 -24 -13 -20 33 2
38 1 25 -8 -10 -6 -20 -30 -24 -56 -4 -29 -12 -47 -23 -51 -38 -12 -64 -29
-69 -45 -4 -15 -5 -15 -23 0 -19 17 -26 52 -10 52 16 0 20 40 5 48 -12 7 -13
17 -5 52 5 24 8 47 6 51 -8 12 27 114 44 130 10 9 23 30 29 45 7 16 33 42 57
58 25 15 45 32 45 37 0 6 -15 -1 -33 -15 -31 -24 -34 -24 -50 -9 -15 15 -16
15 -10 -5 3 -14 1 -22 -6 -22 -8 0 -11 11 -9 28 3 23 7 27 33 24 29 -3 29 -3
11 17 -10 11 -23 18 -27 15 -23 -14 -5 22 26 53 20 20 34 37 32 40 -8 7 -37
-9 -32 -18 3 -4 -3 -13 -14 -18 -17 -10 -19 -7 -17 27 0 20 4 36 9 35 4 -2 23
-3 43 -3 19 0 33 -4 30 -8 -3 -4 11 -9 30 -9 19 -1 34 4 34 9 0 6 -8 7 -17 4
-14 -6 -14 -3 3 15 l19 22 -70 -7 -70 -6 55 32 c42 24 72 33 125 38 l70 6 -46
8 c-66 11 -150 -8 -185 -42 -44 -44 -54 -81 -54 -205 0 -104 -2 -116 -24 -146
-14 -18 -30 -56 -36 -85 -11 -49 -32 -347 -25 -354 2 -2 9 14 16 37 7 23 15
41 19 41 4 0 11 -16 17 -35 9 -27 8 -37 -2 -43 -8 -4 -26 -25 -40 -47 -25 -37
-27 -45 -23 -125 6 -119 21 -144 121 -193 67 -34 77 -42 77 -65 0 -15 14 -78
32 -140 36 -129 37 -109 -23 -417 -17 -82 -35 -204 -41 -270 l-12 -120 -89
-94 c-63 -67 -98 -113 -118 -157 -65 -143 -126 -202 -297 -287 l-105 -52 98
-3 c94 -3 99 -2 149 29 228 143 226 140 296 327 17 45 35 82 40 82 4 0 13 14
19 31 6 17 15 28 21 24 15 -9 12 -36 -6 -49 -11 -9 -13 -20 -8 -40 6 -27 8
-28 53 -22 25 4 54 8 63 9 9 1 15 4 12 8 -4 7 19 19 37 19 5 0 19 -21 32 -46
12 -26 25 -46 30 -45 4 0 17 1 30 1 17 0 19 2 8 9 -12 8 -12 12 -2 25 15 17
111 23 111 7 0 -5 -18 -7 -40 -4 -33 5 -40 3 -40 -11 0 -9 6 -16 14 -16 8 0
18 -5 22 -12 5 -7 0 -9 -14 -6 -16 4 -22 0 -28 -21 -9 -32 -5 -83 7 -96 5 -5
9 9 9 36 0 43 2 46 38 59 60 21 112 69 112 101 0 21 4 27 15 23 18 -7 20 -35
4 -51 -13 -13 9 -75 23 -67 4 3 8 1 8 -4 0 -18 42 -52 66 -52 14 0 49 -8 77
-17 l52 -17 -50 -22 c-44 -20 -63 -22 -162 -19 l-113 4 0 -27 c0 -16 -5 -33
-12 -40 -14 -14 -54 -16 -62 -3 -4 5 -58 7 -124 4 -170 -6 -177 0 -159 132 l6
50 -14 -50 c-8 -27 -14 -68 -13 -90 3 -37 6 -41 43 -53 43 -14 147 -28 258
-35 80 -6 102 8 92 54 l-7 29 181 0 c197 0 187 -3 175 59 -6 26 -11 31 -36 31
-46 0 -95 25 -138 72 -28 31 -40 38 -40 26 0 -10 -4 -18 -10 -18 -5 0 -10 9
-10 20 0 13 -5 18 -15 14 -8 -4 -15 -3 -15 1 0 11 27 34 34 28 10 -10 7 17 -4
38 -6 10 -17 19 -25 19 -8 0 -15 5 -15 10 0 6 5 10 10 10 6 0 1 17 -10 37 -24
45 -25 65 -4 190 15 96 16 98 72 162 61 70 111 110 183 146 l47 24 26 -92 c14
-51 26 -104 26 -117 0 -14 14 -65 30 -113 20 -58 30 -108 30 -146 0 -32 7 -82
16 -111 13 -46 14 -60 3 -93 -9 -27 -10 -49 -3 -75 12 -45 7 -82 -8 -61 -7 11
-9 8 -5 -8 3 -12 -1 -27 -9 -34 -8 -6 -14 -18 -14 -26 0 -9 -8 -13 -22 -11
-31 4 -28 20 6 36 32 16 28 27 -8 18 -30 -7 -41 -37 -25 -67 11 -21 16 -21
128 -17 214 10 269 59 226 203 -14 45 -14 55 1 103 14 42 16 76 11 167 -5 110
-6 116 -34 139 -15 14 -23 26 -16 26 7 0 17 -8 22 -17 16 -27 14 -2 -9 112
-22 104 -21 113 7 268 10 53 21 87 29 87 7 0 24 -53 43 -137 47 -205 74 -308
79 -295 2 6 -13 75 -32 153 -20 79 -36 152 -36 163 0 11 -7 39 -16 63 -21 53
-14 70 29 78 28 5 44 0 93 -30 32 -20 127 -78 210 -129 182 -113 194 -119 194
-107 0 5 -8 12 -18 15 -26 9 -250 148 -288 180 -18 14 -58 38 -90 52 -49 22
-56 28 -39 34 54 20 426 76 700 105 254 27 343 45 431 86 103 47 114 62 114
158 0 105 -15 145 -80 211 -104 107 -227 171 -465 241 -71 21 -216 68 -321
105 -189 67 -191 68 -204 103 -11 31 -14 33 -21 16 -6 -17 -8 -17 -8 -2 -1 9
-7 17 -15 17 -21 0 -28 -31 -11 -50 8 -9 15 -22 15 -29 0 -7 5 -9 10 -6 6 3
10 15 10 26 0 40 18 17 25 -33 4 -28 18 -83 31 -121 19 -54 24 -94 25 -171 1
-91 2 -96 10 -51 9 51 -3 186 -22 259 -6 21 -9 40 -7 41 2 2 55 -11 118 -29
63 -18 158 -43 210 -57 164 -41 464 -206 580 -319 28 -27 60 -70 71 -94 18
-41 18 -48 5 -80 -32 -78 -161 -117 -476 -146 -284 -27 -519 -69 -710 -129
-35 -11 -67 -18 -70 -15 -3 3 -5 38 -4 77 0 45 -2 62 -7 47 -6 -20 -7 -21 -8
-5 -1 32 22 53 64 60 72 13 194 66 229 99 21 19 39 49 46 75 12 44 7 106 -9
116 -5 3 -7 -5 -4 -17 4 -21 3 -22 -10 -5 -16 19 -42 23 -52 6 -4 -5 7 -15 24
-22 20 -7 29 -17 26 -25 -3 -8 -8 -25 -11 -38 -9 -35 -22 -30 -46 21 -25 52
-34 55 -50 20 -6 -14 -17 -25 -24 -25 -8 0 -35 -13 -62 -30 -32 -19 -55 -27
-70 -23 -16 4 -22 1 -22 -10 0 -9 -9 -19 -21 -22 -25 -8 -39 3 -19 15 10 6
-21 9 -83 7 l-99 -2 7 -35 c15 -86 17 -112 11 -164 -10 -76 -28 -71 -25 7 1
38 -5 83 -15 115 -10 29 -16 62 -13 72 6 23 -10 30 -71 30 -26 1 -65 7 -87 15
-22 8 -41 15 -42 15 -2 0 -3 -11 -3 -25 0 -25 2 -25 78 -25 75 0 77 -1 94 -30
15 -27 15 -29 0 -34 -20 -6 -162 -21 -179 -19 -9 0 -13 -15 -13 -48 0 -27 2
-49 4 -49 2 0 11 15 20 34 16 33 18 34 82 38 73 3 90 -9 78 -57 -4 -18 -16
-28 -45 -35 -25 -7 -44 -20 -53 -38 -9 -15 -15 -21 -16 -14 0 21 -18 13 -22
-10 -2 -14 -11 -24 -23 -26 -11 -2 -25 -11 -32 -19 -7 -9 -19 -13 -27 -10 -13
5 -15 18 -9 68 4 46 3 63 -7 69 -11 7 -11 14 -2 35 15 32 15 48 2 40 -5 -3
-10 3 -10 14 0 12 6 21 13 21 8 0 24 36 41 91 23 74 30 88 39 74 18 -23 108
-45 237 -56 63 -5 135 -11 159 -14 24 -2 58 2 75 9 49 20 137 89 124 97 -7 4
-1 9 12 11 17 2 27 13 34 38 10 34 10 35 14 8 3 -23 8 -28 30 -28 l27 0 2 95
c2 73 -2 109 -16 153 -11 32 -23 81 -27 110 -6 49 -18 71 -30 59 -3 -3 6 -47
19 -99 16 -58 27 -129 29 -191 5 -126 -13 -124 -29 4 -7 52 -25 131 -40 175
-27 77 -29 81 -56 78 -19 -2 -30 3 -37 17 -8 15 -7 19 5 19 8 0 15 7 15 16 0
14 2 15 17 3 18 -15 18 -16 -3 50 -4 14 1 20 20 25 18 4 26 13 26 29 1 20 2
21 14 5 7 -10 16 -18 20 -18 10 0 -20 54 -50 89 -24 29 -25 34 -11 48 19 20
83 32 172 33 39 0 88 5 110 10 23 5 92 16 154 24 126 16 151 30 151 80 0 26
-14 44 -87 114 -49 45 -111 99 -139 118 -52 36 -66 40 -303 75 -86 13 -114 34
-109 82 3 26 16 40 88 91 145 102 240 209 240 269 0 29 -31 99 -58 130 -14 15
-13 19 3 37 22 24 49 25 94 2 49 -24 71 -60 78 -125 6 -56 5 -58 -32 -93 -21
-20 -55 -46 -75 -59 -73 -46 -178 -246 -148 -282 14 -17 133 -8 186 13 41 17
52 13 136 -54 111 -89 172 -156 204 -224 40 -85 47 -130 25 -150 -22 -19 -126
-52 -213 -68 -184 -33 -219 -46 -272 -98 -48 -45 -48 -71 -3 -111 20 -17 38
-31 41 -31 3 0 60 -11 127 -24 67 -14 210 -41 317 -61 239 -44 388 -89 545
-165 129 -62 217 -125 278 -199 20 -25 60 -73 88 -106 27 -33 66 -91 85 -130
28 -58 34 -80 34 -135 -1 -99 -16 -147 -75 -236 -115 -172 -155 -190 -575
-258 -110 -17 -191 -42 -299 -90 -42 -19 -96 -37 -120 -41 -47 -8 -257 -96
-387 -162 -68 -35 -97 -59 -192 -158 -121 -127 -161 -181 -221 -302 -49 -97
-59 -133 -39 -133 8 0 33 36 56 83 112 226 315 413 586 542 181 86 295 120
516 150 300 42 543 141 685 280 110 107 145 203 124 334 -19 123 -119 291
-249 422 -148 149 -277 220 -569 315 l-196 64 -210 15 c-232 17 -324 30 -352
50 -17 13 -17 14 0 33 32 35 110 61 238 77 164 22 209 37 253 85 42 46 51 76
42 133 -13 79 -117 203 -284 338 -65 52 -78 59 -117 59 -25 0 -75 -11 -111
-25 -37 -14 -69 -23 -72 -21 -9 10 86 193 117 223 18 18 51 41 74 51 69 31 82
53 82 136 0 91 -23 127 -107 165 l-58 27 23 44 c13 25 104 176 202 335 98 160
193 317 212 350 19 33 39 65 45 70 15 14 11 6 -61 -134 -35 -69 -94 -195 -132
-280 -88 -199 -89 -215 -11 -138 l43 42 -31 -75 c-17 -42 -30 -88 -28 -105 3
-28 6 -30 45 -33 29 -2 47 -10 57 -23 18 -27 25 -14 33 61 3 34 18 97 33 142
22 65 28 76 33 57 11 -41 8 -95 -8 -133 -15 -36 -13 -56 5 -56 5 0 12 9 15 21
7 20 8 19 27 -12 24 -40 57 -68 81 -69 25 0 32 28 12 50 -14 16 -16 29 -10 82
9 74 41 168 58 168 7 0 23 -7 35 -16 21 -15 25 -15 42 1 45 41 30 120 -48 253
-37 64 -70 157 -60 168 3 2 11 -16 17 -42 18 -72 38 -102 81 -124 41 -21 49
-37 28 -58 -9 -9 -9 -15 -1 -23 17 -17 53 7 53 35 0 26 -60 110 -86 120 -14 5
-15 18 -9 96 5 62 4 90 -4 90 -13 0 -53 77 -49 95 2 9 10 10 28 3 18 -7 21
-11 11 -17 -10 -7 -8 -17 9 -52 14 -27 24 -68 27 -109 2 -36 7 -76 9 -90 3
-14 54 -72 119 -137 96 -94 115 -118 120 -150 15 -96 23 -99 24 -10 1 96 4 87
-117 335 -24 51 -43 95 -40 98 15 14 116 -141 118 -181 1 -5 31 -31 68 -57
118 -84 156 -121 148 -146 -4 -12 -20 -29 -37 -39 -16 -9 -29 -22 -29 -28 0
-17 80 -89 131 -118 32 -18 53 -40 67 -67 15 -30 21 -36 26 -24 9 23 7 83 -5
133 -5 24 -8 45 -6 48 3 2 46 -28 98 -67 95 -71 112 -81 103 -57 -11 30 -656
638 -726 685 -82 55 -150 92 -171 92 -7 0 -32 -26 -55 -57 -23 -32 -65 -85
-93 -118 -28 -33 -70 -100 -94 -150 -27 -56 -63 -110 -95 -143 -27 -30 -50
-59 -50 -65 0 -20 -79 -167 -128 -240 -44 -65 -71 -87 -111 -87 -11 0 -33 28
-64 83 -35 62 -74 109 -162 197 -63 63 -115 118 -115 121 0 18 129 163 138
155 3 -4 6 -22 6 -40 0 -33 0 -33 17 -13 16 20 17 20 33 -35 9 -31 16 -62 16
-70 0 -18 26 -55 34 -47 3 3 15 63 26 135 12 71 25 133 30 138 5 4 15 -6 24
-23 19 -36 42 -43 31 -8 -15 46 -17 85 -5 107 20 38 33 8 27 -62 -3 -35 -8
-92 -11 -127 -3 -35 -13 -89 -21 -119 -9 -30 -14 -56 -12 -58 8 -9 85 211 92
263 8 59 10 63 87 127 l57 47 17 -28 c10 -15 40 -51 66 -80 57 -61 68 -41 15
29 -18 24 -46 66 -62 93 -40 69 -137 165 -167 165 -15 0 -39 -16 -64 -42z
m150 -50 c46 -52 46 -53 22 -56 -40 -5 -86 35 -86 75 0 18 4 33 9 33 5 0 30
-24 55 -52z m-208 -76 c-15 -29 -34 -48 -40 -41 -6 6 45 81 50 76 3 -3 -2 -19
-10 -35z m615 -199 c-12 -20 -14 -14 -5 12 4 9 9 14 11 11 3 -2 0 -13 -6 -23z
m-1105 -113 c81 -28 88 -40 14 -25 -34 7 -69 20 -78 29 -21 21 -7 20 64 -4z
m1095 -41 c-5 -13 -10 -19 -10 -12 -1 15 10 45 15 40 3 -2 0 -15 -5 -28z
m-1099 -53 c11 -20 10 -20 -8 -6 -23 18 -34 32 -34 44 0 13 29 -14 42 -38z
m-372 -32 c53 -35 46 -39 -15 -9 -57 30 -64 35 -41 35 9 0 34 -12 56 -26z
m1481 -21 c15 4 17 2 10 -11 -5 -10 -21 -28 -35 -41 l-26 -24 0 24 c0 13 3 42
7 64 l6 40 10 -28 c7 -21 14 -27 28 -24z m-1036 -1 c-3 -3 -11 0 -18 7 -9 10
-8 11 6 5 10 -3 15 -9 12 -12z m-1094 -108 c12 -25 19 -48 16 -50 -2 -2 -14
18 -25 46 -26 63 -18 66 9 4z m1247 -82 c0 -34 9 -66 27 -103 15 -30 22 -49
17 -44 -20 19 -62 113 -62 138 0 25 9 57 15 57 2 0 4 -22 3 -48z m833 -3 c-6
-16 -10 -18 -10 -7 -1 22 12 55 16 42 2 -6 -1 -22 -6 -35z m-511 -153 c0 -3
-4 -8 -10 -11 -5 -3 -10 -1 -10 4 0 6 5 11 10 11 6 0 10 -2 10 -4z m-1930
-112 c-17 -88 -24 -75 -9 17 7 40 15 67 17 61 2 -7 -1 -42 -8 -78z m-300 -67
c0 -2 -12 -14 -27 -28 l-28 -24 24 28 c23 25 31 32 31 24z m600 -700 c0 -2
-10 -12 -22 -23 l-23 -19 19 23 c18 21 26 27 26 19z m506 -132 c-3 -8 -1 -15
4 -15 15 0 12 -27 -6 -44 -19 -20 -63 -20 -88 -1 -11 8 -16 15 -10 15 5 1 -2
7 -16 15 -23 12 -23 14 -6 21 11 4 21 2 26 -6 5 -8 19 -11 39 -7 18 4 31 2 31
-3 0 -6 -10 -10 -22 -10 -16 0 -19 -3 -11 -11 18 -18 40 -4 46 30 4 17 9 31
13 31 3 0 4 -7 0 -15z m-289 -11 c3 -8 0 -21 -6 -27 -10 -9 -16 -8 -27 7 -8
11 -14 23 -14 28 0 15 41 8 47 -8z m203 -146 c0 -4 -7 -4 -17 -1 -11 4 -14 3
-9 -5 4 -7 1 -12 -7 -12 -8 0 -20 -7 -27 -15 -7 -8 -26 -15 -42 -15 -26 0 -29
-3 -22 -22 6 -23 6 -23 -20 2 l-27 25 13 -26 c7 -14 30 -43 50 -65 27 -28 34
-40 23 -42 -9 -2 -15 -15 -15 -33 0 -31 -9 -36 -28 -17 -21 21 -14 -11 8 -39
21 -26 19 -43 -5 -43 -8 0 -12 6 -9 14 3 8 1 17 -4 20 -11 6 -9 -201 2 -226
18 -40 28 -16 24 57 -2 47 0 75 7 75 6 0 11 -34 12 -80 2 -80 0 -85 -34 -81
-7 1 -13 -3 -13 -9 0 -5 17 -10 39 -10 34 0 39 3 49 33 l10 32 1 -37 c1 -48
-18 -65 -83 -73 -38 -5 -53 -11 -50 -20 3 -8 -7 -15 -29 -19 -41 -8 -44 -31
-8 -62 22 -19 28 -21 39 -10 11 11 11 19 3 34 -16 29 4 37 29 12 31 -31 25
-53 -23 -73 -48 -20 -51 -18 -85 55 -17 38 -32 49 -32 24 0 -9 -9 -14 -20 -13
-23 2 -27 32 -7 62 8 13 11 31 6 50 l-7 30 -1 -27 c0 -16 -5 -28 -10 -28 -4 0
-9 12 -9 28 -3 88 -16 169 -29 184 -41 46 23 237 103 307 33 28 40 41 32 49
-19 19 1 27 35 14 27 -10 29 -9 15 2 -10 7 -18 24 -18 36 0 13 -7 32 -17 42
-9 10 -12 18 -7 18 16 0 34 -23 34 -41 0 -32 22 -33 47 -3 19 24 23 26 23 10
0 -29 27 -1 36 37 l7 31 33 -64 c18 -36 33 -68 34 -72z m467 -25 c-3 -10 -5
-4 -5 12 0 17 2 24 5 18 2 -7 2 -21 0 -30z m-524 -61 c6 -30 5 -33 -16 -30
-28 4 -35 37 -11 55 21 15 20 16 27 -25z m-229 13 c-6 -16 -24 -21 -24 -7 0
11 11 22 21 22 5 0 6 -7 3 -15z m796 -10 c0 -28 -17 -34 -27 -9 -3 9 0 20 8
25 19 12 19 12 19 -16z m-221 -16 c-16 -10 -23 -4 -14 10 3 6 11 8 17 5 6 -4
5 -9 -3 -15z m18 -21 c27 5 27 5 12 -19 -29 -44 -89 -33 -89 16 0 32 11 38 31
16 12 -13 26 -17 46 -13z m-117 -37 c12 -45 13 -98 1 -105 -5 -3 -11 1 -15 9
-3 9 -12 12 -23 9 -16 -5 -16 -4 -2 8 28 23 32 55 10 77 -21 21 -27 42 -14 54
11 12 32 -14 43 -52z m635 29 c-3 -5 -30 -9 -58 -8 l-52 1 55 7 c30 4 56 7 58
8 2 1 0 -2 -3 -8z m-495 -60 c0 -5 -16 -22 -35 -37 -19 -15 -35 -33 -35 -40 0
-17 -20 -27 -31 -16 -6 6 -2 16 11 28 11 10 20 28 20 40 0 12 3 25 7 28 10 11
63 8 63 -3z m250 -16 c0 -16 -16 -19 -25 -4 -8 13 4 32 16 25 5 -4 9 -13 9
-21z m307 -10 c-3 -3 -12 -4 -19 -1 -8 3 -5 6 6 6 11 1 17 -2 13 -5z m-930
-40 c-3 -3 -12 -4 -19 -1 -8 3 -5 6 6 6 11 1 17 -2 13 -5z m206 -18 c3 -8 3
-17 0 -20 -7 -7 -33 13 -33 25 0 15 27 10 33 -5z m683 -11 c25 -39 11 -41 -48
-6 l-53 31 42 0 c35 0 46 -5 59 -25z m-830 -16 c5 -8 9 -7 14 1 12 19 39 4 51
-26 7 -19 6 -31 -1 -38 -7 -7 -10 -6 -10 3 0 7 -4 10 -9 7 -5 -3 -12 4 -17 17
-6 17 -8 11 -11 -28 -6 -90 -24 -218 -34 -236 -13 -24 -38 -49 -51 -49 -6 0
-5 7 3 16 12 15 11 16 -8 10 -28 -9 -39 10 -14 24 28 14 38 36 45 100 6 42 4
51 -4 40 -9 -12 -10 -2 -7 42 2 35 -1 59 -7 62 -7 3 -4 9 7 16 9 6 17 20 17
30 0 21 24 27 36 9z m-76 -119 c0 -5 -2 -10 -4 -10 -3 0 -8 5 -11 10 -3 6 -1
10 4 10 6 0 11 -4 11 -10z m1027 -97 c2 -33 -1 -52 -7 -48 -6 3 -10 21 -10 38
-1 18 -7 43 -15 57 -23 40 -19 58 8 30 16 -17 23 -38 24 -77z m-1087 62 c0 -8
-2 -15 -4 -15 -2 0 -6 7 -10 15 -3 8 -1 15 4 15 6 0 10 -7 10 -15z m60 -34 c0
-6 -4 -13 -10 -16 -5 -3 -10 1 -10 9 0 9 5 16 10 16 6 0 10 -4 10 -9z m170 -6
c-7 -8 -18 -15 -24 -15 -6 0 -2 7 8 15 25 19 32 19 16 0z m-617 -62 c-4 -10
-9 -11 -16 -4 -5 5 -7 18 -3 28 6 14 9 15 16 4 4 -8 6 -21 3 -28z m-39 -48
c-4 -8 -8 -15 -10 -15 -2 0 -4 7 -4 15 0 8 4 15 10 15 5 0 7 -7 4 -15z m465
-49 c-1 -17 -2 -18 -6 -3 -3 13 -10 16 -24 12 -18 -6 -19 -5 -8 14 16 24 40
10 38 -23z m-479 4 c0 -11 -4 -20 -9 -20 -5 0 -12 -10 -16 -22 -7 -21 -8 -19
-12 11 -3 21 0 37 9 42 21 14 28 11 28 -11z m296 -82 c-1 -26 -6 -34 -29 -42
-32 -12 -49 4 -45 39 2 15 10 20 31 20 16 -1 27 5 27 13 0 7 4 11 9 8 4 -3 8
-20 7 -38z m-119 -20 c-3 -8 -6 -5 -6 6 -1 11 2 17 5 13 3 -3 4 -12 1 -19z
m163 -19 c0 -6 -4 -7 -10 -4 -5 3 -10 11 -10 16 0 6 5 7 10 4 6 -3 10 -11 10
-16z m-70 -54 c0 -8 7 -15 15 -15 9 0 18 7 21 15 4 8 10 15 16 15 8 0 4 -48
-9 -94 -4 -14 -1 -18 11 -13 24 9 20 -10 -5 -24 -17 -8 -20 -17 -15 -40 4 -22
1 -31 -11 -36 -9 -4 -19 -1 -21 5 -2 7 -10 12 -18 12 -8 0 -11 -6 -7 -17 4
-11 3 -14 -5 -9 -18 11 -15 -19 3 -34 8 -7 13 -16 10 -20 -8 -13 17 -60 32
-60 7 0 22 9 33 20 27 27 47 25 53 -6 4 -20 0 -28 -15 -32 -18 -4 -18 -5 2
-19 34 -24 27 -82 -15 -123 -19 -19 -35 -41 -35 -50 0 -26 -54 -103 -93 -133
l-37 -28 0 28 c1 25 28 177 44 243 3 14 1 40 -5 58 -9 27 -8 36 5 51 16 17 15
19 -3 24 -23 6 -51 93 -51 160 0 52 17 107 28 90 5 -8 14 -5 30 8 13 10 21 23
17 29 -3 5 1 10 9 10 9 0 16 -7 16 -15z m85 -25 c3 -5 13 -6 22 -3 13 5 15 2
10 -18 -3 -13 -12 -61 -19 -106 -7 -46 -16 -83 -21 -83 -17 0 -20 36 -7 94 7
34 15 71 18 84 3 16 0 22 -12 22 -9 0 -16 5 -16 10 0 13 17 13 25 0z m815 -90
c0 -5 -4 -10 -10 -10 -5 0 -10 5 -10 10 0 6 5 10 10 10 6 0 10 -4 10 -10z
m-691 -63 c1 -10 -3 -15 -9 -12 -5 3 -10 23 -9 43 1 33 2 34 9 12 4 -14 8 -33
9 -43z m-42 31 c-3 -13 -9 -44 -12 -70 -8 -50 -25 -66 -25 -23 0 14 -4 25 -9
25 -5 0 -11 7 -14 14 -4 9 -1 13 6 10 8 -3 18 10 26 31 14 38 36 49 28 13z
m332 -39 c15 -44 14 -46 -9 -16 -21 27 -26 47 -11 47 5 0 14 -14 20 -31z m-25
-68 c-7 -7 -34 28 -34 43 1 6 10 0 21 -13 11 -13 17 -27 13 -30z m-457 4 c-4
-8 -11 -15 -17 -15 -6 0 -6 7 2 20 14 22 24 19 15 -5z m336 0 c-8 -22 -22 -18
-16 5 3 11 9 17 14 15 4 -3 6 -12 2 -20z m187 -54 c0 -27 11 -102 25 -166 13
-65 22 -122 19 -127 -10 -15 -227 -120 -221 -106 47 112 65 164 98 277 22 73
44 142 50 152 17 33 29 21 29 -30z m485 -90 c-15 -31 -28 -42 -20 -18 19 52
28 70 32 60 2 -6 -3 -25 -12 -42z m-145 -128 c0 -55 0 -56 -20 -38 -24 22 -26
48 -4 69 8 9 12 21 8 27 -4 8 -3 9 4 5 7 -4 12 -32 12 -63z m99 23 c-3 -3 -11
5 -18 17 -13 21 -12 21 5 5 10 -10 16 -20 13 -22z m-323 13 c7 -12 -15 -31
-31 -26 -5 2 -11 11 -13 20 -4 19 32 24 44 6z m67 -71 c15 -6 27 -16 27 -23 0
-22 -12 -24 -33 -4 -18 17 -22 17 -30 4 -9 -16 -72 -21 -82 -6 -3 5 7 19 21
30 27 21 39 21 97 -1z m172 -78 c3 -5 8 -72 11 -147 3 -76 12 -173 20 -217 16
-91 19 -200 4 -191 -5 3 -10 13 -10 22 0 19 -42 112 -51 113 -4 0 -10 -12 -13
-26 -8 -31 -30 -56 -41 -46 -4 4 -5 -6 -3 -23 2 -18 9 -30 18 -30 8 0 17 -11
18 -24 2 -15 0 -21 -7 -17 -6 4 -11 3 -11 -3 0 -5 5 -13 10 -16 17 -11 11 -42
-15 -73 -14 -16 -36 -49 -50 -73 -24 -42 -25 -43 -25 -16 0 16 8 41 19 55 10
15 25 47 32 72 7 25 16 49 21 54 13 16 9 26 -11 26 -11 0 -22 -10 -26 -22 -14
-44 -18 11 -5 75 12 60 11 61 -13 79 -33 24 -56 97 -54 171 1 31 -1 57 -5 57
-4 0 -10 11 -14 25 -3 14 -14 41 -25 61 -14 29 -16 40 -6 55 6 10 17 19 24 19
20 0 47 -50 48 -89 0 -32 3 -36 27 -39 15 -2 41 4 58 13 39 20 37 49 -5 53
-32 4 -117 72 -89 72 9 0 31 -9 48 -20 19 -11 41 -17 54 -13 22 5 31 23 12 23
-5 0 -10 5 -10 10 0 6 9 10 19 10 24 0 36 16 19 23 -8 4 -7 6 4 6 9 1 20 -3
23 -9z m-842 -71 c52 -26 50 -25 42 -39 -5 -7 -18 -3 -40 14 -19 15 -38 26
-44 26 -5 0 -13 5 -16 10 -10 16 13 12 58 -11z m-64 -11 c58 -13 67 -28 19
-29 -44 -1 -69 -5 -90 -14 -15 -6 -18 -2 -18 24 0 36 9 38 89 19z m951 2 c0
-5 -4 -10 -10 -10 -5 0 -10 5 -10 10 0 6 5 10 10 10 6 0 10 -4 10 -10z m-966
-78 c53 -4 46 -22 -9 -22 -16 0 -43 -7 -59 -15 -25 -13 -28 -13 -22 1 3 9 6
25 6 36 0 15 4 18 18 12 9 -4 39 -9 66 -12z m158 -14 c-7 -7 -12 -8 -12 -2 0
14 12 26 19 19 2 -3 -1 -11 -7 -17z m548 -26 c0 -15 -2 -15 -10 -2 -13 20 -13
33 0 25 6 -3 10 -14 10 -23z m-686 -10 c3 -5 -10 -14 -29 -20 -18 -7 -36 -20
-39 -28 -5 -12 2 -11 28 6 26 15 36 18 42 8 4 -6 2 -14 -4 -16 -7 -2 -12 -10
-12 -18 0 -9 -4 -13 -10 -9 -5 3 -27 -6 -49 -19 -35 -22 -40 -31 -43 -67 -2
-25 -9 -44 -17 -47 -11 -4 -13 7 -7 59 11 99 13 103 69 131 59 30 64 31 71 20z
m80 -69 c-25 -19 -27 -10 -7 32 l18 38 3 -28 c3 -19 -2 -33 -14 -42z m-109
-117 c-5 -69 -3 -99 7 -115 10 -16 10 -23 0 -33 -8 -8 -9 -15 -1 -25 9 -10 2
-17 -32 -33 -48 -21 -111 -28 -92 -9 6 6 30 13 54 17 l44 6 -35 6 c-31 4 -35
9 -38 38 -2 18 1 32 7 32 6 0 11 7 11 16 0 8 -4 12 -10 9 -16 -10 -12 7 5 19
13 10 17 34 15 104 -1 24 35 61 58 62 11 0 13 -18 7 -94z m784 -33 c0 -5 -4
-17 -9 -28 -8 -18 -9 -17 -9 8 -1 15 4 27 9 27 6 0 10 -3 9 -7z m-659 -49 c0
-31 7 -54 20 -71 21 -27 26 -53 11 -53 -5 0 -16 -18 -24 -39 -24 -59 -34 -58
-53 6 -25 85 -24 168 1 187 35 26 45 20 45 -30z m119 -97 c28 4 33 2 21 -7
-24 -18 -97 -52 -77 -36 17 13 17 15 1 24 -10 5 -14 14 -9 22 5 8 11 8 17 2 6
-6 27 -8 47 -5z m714 -114 c-6 -18 -31 -43 -44 -43 -6 0 41 58 48 60 1 0 0 -8
-4 -17z m-498 -81 c-7 -7 -55 39 -55 52 0 5 13 -3 30 -19 16 -16 28 -31 25
-33z m440 28 c3 -5 -3 -10 -15 -10 -12 0 -18 5 -15 10 3 6 10 10 15 10 5 0 12
-4 15 -10z m93 -2 c-3 -7 -19 -23 -38 -35 -31 -22 -32 -23 -9 -24 22 0 23 -1
4 -9 -11 -5 -36 -9 -55 -9 -19 -1 -42 -6 -50 -11 -22 -14 73 -13 104 1 20 9
29 9 41 -1 14 -12 18 -11 25 0 5 8 11 12 14 9 4 -3 -10 -20 -29 -38 -19 -17
-35 -27 -35 -21 0 5 -4 10 -10 10 -5 0 -9 -6 -7 -12 1 -10 -20 -13 -83 -13
-96 0 -124 9 -109 37 12 22 44 25 36 3 -4 -8 -2 -17 3 -20 6 -4 10 8 10 25 0
18 4 29 10 25 14 -9 13 8 -2 23 -9 9 -7 16 7 32 13 14 22 17 29 10 12 -12 63
-12 91 0 19 8 18 9 -5 11 -21 1 -19 3 10 9 52 11 52 11 48 -2z"/>
<path d="M3647 3322 c-9 -2 -15 -8 -12 -13 8 -12 45 -12 45 0 0 13 -12 18 -33
13z"/>
<path d="M3530 3226 c0 -2 7 -7 16 -10 8 -3 12 -2 9 4 -6 10 -25 14 -25 6z"/>
<path d="M3494 3199 c-3 -6 2 -18 11 -27 17 -16 17 -16 12 0 -4 12 -2 15 9 11
7 -3 14 -15 14 -27 0 -27 18 -46 42 -46 27 0 23 10 -24 57 -45 46 -53 50 -64
32z m86 -64 c7 -8 8 -15 2 -15 -5 0 -15 7 -22 15 -7 8 -8 15 -2 15 5 0 15 -7
22 -15z"/>
<path d="M3424 3143 c-14 -22 -14 -25 -2 -15 13 10 17 10 21 0 2 -7 4 -1 3 14
0 16 -2 28 -2 28 -1 0 -10 -12 -20 -27z"/>
<path d="M3473 3139 c9 -5 17 -22 17 -37 0 -23 6 -53 35 -179 3 -13 12 -23 20
-23 20 0 19 39 0 46 -8 4 -15 10 -15 16 0 5 5 6 10 3 6 -4 10 6 10 23 0 22 -6
32 -22 37 -20 6 -20 8 -5 12 23 6 22 22 -5 50 -22 24 -13 32 12 11 8 -7 2 2
-14 20 -17 17 -37 32 -45 32 -13 -1 -13 -2 2 -11z"/>
<path d="M3444 3087 c-4 -11 -3 -62 1 -115 4 -54 9 -119 11 -147 1 -27 3 -57
3 -67 1 -11 7 -15 22 -11 20 6 21 11 17 96 -3 69 -8 92 -21 102 -18 13 -24 31
-7 20 15 -9 12 53 -4 100 -12 32 -16 37 -22 22z m13 -69 c-3 -7 -5 -2 -5 12 0
14 2 19 5 13 2 -7 2 -19 0 -25z m23 -144 c0 -8 -4 -12 -10 -9 -5 3 -10 13 -10
21 0 8 5 12 10 9 6 -3 10 -13 10 -21z m-3 -81 c-3 -10 -5 -2 -5 17 0 19 2 27
5 18 2 -10 2 -26 0 -35z"/>
<path d="M3383 3035 c0 -33 2 -45 4 -27 2 18 2 45 0 60 -2 15 -4 0 -4 -33z"/>
<path d="M3402 3000 c0 -14 2 -19 5 -12 2 6 2 18 0 25 -3 6 -5 1 -5 -13z"/>
<path d="M3407 2931 c-2 -10 -1 -25 4 -32 6 -10 9 -4 9 19 0 36 -5 42 -13 13z"/>
<path d="M3530 2850 c0 -21 5 -30 16 -30 9 0 14 -6 11 -12 -2 -7 -12 -12 -22
-10 -13 3 -16 -1 -11 -13 3 -9 6 -19 6 -21 0 -2 9 -4 20 -4 17 0 20 7 20 50 0
39 -4 52 -20 60 -18 10 -20 8 -20 -20z"/>
<path d="M3483 2728 c-13 -6 -23 -18 -23 -26 0 -12 7 -9 28 9 15 13 29 25 31
27 13 7 -17 -1 -36 -10z"/>
<path d="M3720 2988 c0 -15 -5 -39 -10 -54 -6 -15 -7 -31 -2 -36 5 -5 14 15
20 44 9 35 9 55 2 62 -7 7 -10 2 -10 -16z"/>
<path d="M3437 2453 c-11 -10 -8 -28 8 -49 13 -18 14 -17 15 19 0 35 -8 46
-23 30z"/>
<path d="M3402 2420 c0 -19 2 -27 5 -17 2 9 2 25 0 35 -3 9 -5 1 -5 -18z"/>
<path d="M3365 2413 c-10 -25 -13 -83 -4 -78 9 6 23 84 16 91 -2 3 -8 -3 -12
-13z"/>
<path d="M3436 2363 c-6 -14 -5 -15 5 -6 7 7 10 15 7 18 -3 3 -9 -2 -12 -12z"/>
<path d="M3385 2359 c-11 -17 1 -21 15 -4 8 9 8 15 2 15 -6 0 -14 -5 -17 -11z"/>
<path d="M3404 2155 c-3 -8 -4 -20 -2 -27 3 -7 7 -1 10 15 6 29 1 36 -8 12z"/>
<path d="M3418 2103 c7 -3 16 -2 19 1 4 3 -2 6 -13 5 -11 0 -14 -3 -6 -6z"/>
<path d="M3401 1947 c-12 -43 -21 -80 -19 -83 9 -9 49 106 46 133 -2 22 -8 10
-27 -50z"/>
<path d="M4250 1629 c0 -18 2 -19 15 -9 15 12 12 30 -6 30 -5 0 -9 -10 -9 -21z"/>
<path d="M4190 1574 c0 -8 5 -12 10 -9 6 4 8 11 5 16 -9 14 -15 11 -15 -7z"/>
<path d="M4235 1530 c3 -5 8 -10 11 -10 2 0 4 5 4 10 0 6 -5 10 -11 10 -5 0
-7 -4 -4 -10z"/>
<path d="M4300 1500 c0 -6 -5 -8 -11 -5 -9 6 -38 -20 -39 -35 0 -3 16 -7 35
-8 31 -2 35 0 35 22 0 14 -4 28 -10 31 -5 3 -10 1 -10 -5z"/>
<path d="M4230 1000 c0 -5 14 -10 30 -10 17 0 30 5 30 10 0 6 -13 10 -30 10
-16 0 -30 -4 -30 -10z"/>
<path d="M5720 4877 c0 -10 -4 -15 -10 -12 -12 8 -12 11 1 -59 l10 -58 -45
-48 c-45 -48 -46 -51 -46 -115 0 -36 -3 -65 -7 -65 -4 0 -20 12 -35 27 -15 15
-28 22 -28 15 0 -6 9 -16 20 -22 24 -13 25 -49 5 -135 -21 -85 -19 -110 12
-156 l27 -41 -23 -18 c-26 -18 -21 -40 8 -40 47 0 53 50 14 119 l-26 48 30 54
c74 130 74 131 56 151 -13 14 -14 21 -5 30 9 9 21 3 53 -27 55 -55 96 -144
105 -230 9 -83 22 -63 23 34 1 54 -3 71 -28 110 -90 143 -101 197 -51 250 24
25 29 37 24 59 -11 46 -32 92 -43 92 -6 0 -17 12 -25 28 -11 20 -15 22 -16 9z"/>
<path d="M5818 4680 c-6 -116 22 -187 52 -131 5 11 10 29 10 40 0 18 6 21 39
21 l39 0 11 -63 c14 -84 14 -97 -4 -97 -20 0 -19 -23 3 -51 26 -31 52 -20 52
23 0 72 -35 232 -56 257 -2 2 -13 -4 -23 -13 -34 -31 -63 -17 -92 44 l-27 55
-4 -85z"/>
<path d="M3672 3750 c-23 -10 -61 -80 -62 -113 0 -14 -7 -16 -42 -12 -24 2
-35 2 -25 -1 9 -3 17 -9 17 -14 0 -5 6 -7 14 -4 17 7 56 -41 56 -70 1 -14 6
-7 15 18 7 21 11 53 8 71 -6 40 3 44 115 52 l82 6 0 -31 c0 -17 3 -37 6 -46
12 -30 24 -16 24 27 0 35 -6 51 -33 81 -31 34 -40 38 -93 42 -32 2 -69 0 -82
-6z"/>
<path d="M3435 3600 c27 -12 35 -12 35 0 0 6 -12 10 -27 9 -25 0 -26 -1 -8 -9z"/>
<path d="M3485 3590 c3 -5 11 -10 17 -10 5 0 21 -9 35 -20 27 -21 73 -27 73
-10 0 6 -10 10 -22 10 -33 0 -52 15 -42 31 6 11 5 12 -7 2 -9 -8 -20 -9 -29
-3 -20 13 -33 12 -25 0z"/>
<path d="M3784 3579 c-3 -6 1 -18 10 -27 19 -19 49 -7 54 22 3 12 -4 16 -27
16 -16 0 -33 -5 -37 -11z"/>
<path d="M3684 3569 c-3 -6 -2 -15 4 -21 15 -15 56 -5 60 15 3 13 -3 17 -27
17 -16 0 -33 -5 -37 -11z"/>
<path d="M3870 3569 c0 -5 5 -7 10 -4 6 3 10 8 10 11 0 2 -4 4 -10 4 -5 0 -10
-5 -10 -11z"/>
<path d="M3443 3563 c9 -2 25 -2 35 0 9 3 1 5 -18 5 -19 0 -27 -2 -17 -5z"/>
<path d="M3400 3508 c0 -7 -19 -32 -42 -55 -53 -54 -37 -57 18 -3 23 21 44 36
48 33 3 -4 6 -1 6 5 0 7 7 12 15 12 8 0 15 5 15 10 0 6 -13 10 -30 10 -17 0
-30 -5 -30 -12z"/>
<path d="M3955 3510 c-3 -5 -1 -10 4 -10 6 0 11 5 11 10 0 6 -2 10 -4 10 -3 0
-8 -4 -11 -10z"/>
<path d="M3360 3349 c0 -5 -11 -14 -24 -21 -14 -6 -27 -17 -30 -24 -4 -10 6
-8 34 6 45 23 56 36 35 44 -8 3 -15 1 -15 -5z"/>
<path d="M3992 3321 c2 -10 16 -17 37 -19 28 -3 33 -1 27 14 -5 14 -4 15 9 4
10 -8 15 -9 15 -1 0 13 -1 13 -53 16 -30 2 -37 -1 -35 -14z"/>
<path d="M4285 3282 c-8 -20 -7 -22 14 -22 11 0 21 5 23 10 2 6 53 11 120 12
66 1 111 6 103 10 -25 14 -254 5 -260 -10z"/>
<path d="M4510 3260 c8 -5 22 -10 30 -10 13 0 13 1 0 10 -8 5 -22 10 -30 10
-13 0 -13 -1 0 -10z"/>
<path d="M4324 3249 c-3 -5 32 -9 78 -8 95 1 93 5 -5 12 -37 3 -70 1 -73 -4z"/>
<path d="M4406 3038 c9 -15 34 -35 78 -61 27 -16 25 -14 -9 18 -46 42 -82 65
-69 43z"/>
<path d="M4006 3024 c-4 -9 -4 -19 -1 -22 2 -3 7 3 11 12 4 9 4 19 1 22 -2 3
-7 -3 -11 -12z"/>
<path d="M3880 2977 c0 -24 32 -85 37 -70 2 6 -5 29 -16 50 -12 23 -20 31 -21
20z"/>
<path d="M3180 2943 c-13 -15 -12 -16 4 -10 10 4 20 7 22 7 2 0 4 5 4 10 0 15
-13 12 -30 -7z"/>
<path d="M4479 2928 c19 -21 37 -36 39 -33 3 3 3 6 1 8 -2 1 -20 15 -39 32
l-35 30 34 -37z"/>
<path d="M3930 2938 c0 -18 18 -34 28 -24 3 4 -2 14 -11 23 -16 16 -17 16 -17
1z"/>
<path d="M3940 2799 c0 -5 5 -7 10 -4 6 3 10 8 10 11 0 2 -4 4 -10 4 -5 0 -10
-5 -10 -11z"/>
<path d="M4322 2785 c0 -16 2 -22 5 -12 2 9 2 23 0 30 -3 6 -5 -1 -5 -18z"/>
<path d="M3960 2637 c-32 -27 -70 -73 -53 -64 23 14 21 -10 -4 -52 -15 -25
-30 -40 -38 -37 -8 3 -19 -2 -25 -10 -10 -12 -8 -14 15 -14 35 0 87 55 110
118 10 26 22 51 26 57 11 11 12 25 2 25 -5 0 -19 -10 -33 -23z"/>
<path d="M4553 2639 c-12 -4 -26 -15 -31 -24 -7 -14 -13 -15 -30 -6 -31 17
-40 13 -13 -5 22 -16 27 -16 78 0 30 10 53 18 51 20 -1 1 -10 7 -18 13 -9 6
-24 7 -37 2z"/>
<path d="M4385 2570 c3 -5 11 -10 16 -10 6 0 7 5 4 10 -3 6 -11 10 -16 10 -6
0 -7 -4 -4 -10z"/>
<path d="M4750 2525 c0 -5 5 -17 10 -25 5 -8 10 -10 10 -5 0 6 -5 17 -10 25
-5 8 -10 11 -10 5z"/>
<path d="M4053 2195 c0 -22 2 -30 4 -17 2 12 2 30 0 40 -3 9 -5 -1 -4 -23z"/>
<path d="M4582 1500 c0 -14 2 -19 5 -12 2 6 2 18 0 25 -3 6 -5 1 -5 -13z"/>
<path d="M4605 1420 c-3 -5 -1 -10 4 -10 6 0 11 5 11 10 0 6 -2 10 -4 10 -3 0
-8 -4 -11 -10z"/>
<path d="M3240 1180 c0 -21 47 -50 67 -43 15 5 -7 31 -44 50 -20 10 -23 10
-23 -7z"/>
<path d="M3451 1174 c0 -11 3 -14 6 -6 3 7 2 16 -1 19 -3 4 -6 -2 -5 -13z"/>
<path d="M3710 1170 c0 -5 5 -10 10 -10 6 0 10 5 10 10 0 6 -4 10 -10 10 -5 0
-10 -4 -10 -10z"/>
<path d="M3413 1163 c-10 -3 -9 -8 2 -20 19 -19 19 -37 0 -29 -23 8 -18 -12 6
-24 28 -16 34 -6 19 29 -6 16 -9 35 -5 40 6 11 -1 13 -22 4z"/>
<path d="M3320 1118 c-12 -22 -12 -22 6 -6 10 10 15 20 12 24 -4 3 -12 -5 -18
-18z"/>
<path d="M3497 1093 l6 -42 -34 9 c-41 12 -39 12 -39 1 0 -15 106 -63 131 -59
23 3 23 4 -6 22 -28 18 -29 18 -15 1 14 -17 13 -18 -3 -12 -10 4 -22 7 -27 7
-4 0 -6 17 -3 39 3 21 1 47 -5 57 -8 15 -9 9 -5 -23z"/>
<path d="M3677 1109 c-31 -16 -36 -23 -28 -38 18 -33 39 -42 113 -47 53 -4 69
-3 58 5 -12 9 -9 11 15 12 30 1 30 1 -7 13 -20 6 -52 26 -70 44 -19 17 -36 32
-38 32 -3 -1 -22 -10 -43 -21z"/>
<path d="M3460 1090 c0 -13 18 -22 24 -11 3 5 -1 11 -9 15 -8 3 -15 1 -15 -4z"/>
<path d="M3324 1045 c-10 -26 13 -65 38 -65 l23 0 -25 20 -25 20 28 -10 c33
-12 67 -13 52 -2 -5 4 -15 16 -21 27 -14 26 -62 32 -70 10z"/>
</g>
</svg>
