<svg id="Capa_1" enable-background="new 0 0 512 512" height="512" viewBox="0 0 512 512" width="512" xmlns="http://www.w3.org/2000/svg"><g><path d="m511.169 499.143-74.02-143.84c-1.895-3.683-6.417-5.131-10.101-3.237-3.684 1.896-5.133 6.417-3.237 10.101l68.395 132.908h-149.285l-108.517-199.895 15.885-30.873 25.925 25.926c2.199 2.199 5.526 2.813 8.365 1.543l37.547-16.79 46.229 32.59c1.281.903 2.794 1.37 4.322 1.37.83 0 1.664-.138 2.469-.418 2.284-.797 4.045-2.647 4.727-4.968l5.009-17.055 26.169 50.852c1.331 2.585 3.955 4.07 6.675 4.07 1.155 0 2.328-.268 3.426-.833 3.684-1.895 5.133-6.417 3.237-10.101l-47.646-92.583h87.026c22.459 0 40.73-18.271 40.73-40.73 0-19.542-13.833-35.913-32.222-39.836.447-2.998.672-6.029.672-9.074 0-33.884-27.563-61.45-61.44-61.45-30.881 0-56.383 22.503-60.765 52.351-11.878 1.648-22.776 7.562-30.657 16.648-2.658-.613-5.407-.949-8.217-.949-.001 0 0 0-.001 0-13.658 0-26.023 7.543-32.27 19.684l-53.858 104.673-20.868-38.44c-6.451-11.884-18.375-18.978-31.897-18.978s-25.446 7.095-31.897 18.978l-140.17 258.205c-1.262 2.324-1.206 5.141.146 7.413s3.801 3.665 6.445 3.665h111.648c.034 0 .067.005.102.005h385.25c2.615 0 5.041-1.362 6.402-3.594 1.363-2.232 1.463-5.013.267-7.338zm-153.549-345.443c4.032 0 7.343-3.188 7.495-7.217.946-25.045 21.325-44.664 46.395-44.664 25.607 0 46.44 20.837 46.44 46.45 0 4.589-.675 9.138-2.006 13.52-.708 2.331-.228 4.859 1.268 6.782 1.494 1.923 3.805 2.995 6.277 2.889.095-.004.186-.01.28-.011 14.188 0 25.73 11.542 25.73 25.73s-11.543 25.73-25.73 25.73h-94.746l-24.885-48.356c-2.429-4.723-5.793-8.738-9.79-11.896 6.302-5.698 14.556-8.957 23.272-8.957zm-64.682 27.716c3.72-7.23 10.797-11.546 18.932-11.546s15.211 4.316 18.931 11.547l44.127 85.747-6.495 22.115-41.151-29.01c-2.163-1.524-4.969-1.797-7.383-.717l-36.729 16.424-25.675-25.675zm-138.675 66.527c3.785-6.972 10.781-11.135 18.715-11.135s14.93 4.163 18.715 11.135l27.633 50.902c.014.025.027.05.041.075l10.171 18.735-51.005 23.505-25.349-25.349c-2.002-2.003-4.962-2.707-7.651-1.82l-33.038 10.892zm-52.213 96.179 43.792-14.438 25.779 25.779c1.438 1.438 3.356 2.197 5.305 2.197 1.061 0 2.131-.225 3.137-.689l56.645-26.105 89.142 164.204h-305.745z"/><path d="m50.84 153.015h92.25c4.142 0 7.5-3.358 7.5-7.5s-3.358-7.5-7.5-7.5h-92.25c-19.078 0-34.6-15.526-34.6-34.61 0-19.078 15.521-34.6 34.65-34.6 4.032 0 7.342-3.188 7.495-7.217.946-25.045 21.326-44.663 46.395-44.663 25.613 0 46.45 20.833 46.45 46.44 0 4.59-.675 9.139-2.006 13.519-.691 2.273-.264 4.739 1.151 6.647s3.649 3.034 6.025 3.034c.162 0 .328-.003.495-.007l.146-.003c14.188 0 25.73 11.542 25.73 25.73 0 10.109-5.954 19.323-15.169 23.471-3.777 1.701-5.46 6.141-3.76 9.918 1.701 3.777 6.141 5.46 9.918 3.76 14.586-6.567 24.011-21.149 24.011-37.149 0-19.539-13.829-35.908-32.213-39.834.447-3.001.673-6.037.673-9.086 0-33.878-27.566-61.44-61.45-61.44-30.881 0-56.383 22.5-60.765 52.348-24.132 3.336-42.776 24.098-42.776 49.132 0 27.355 22.251 49.61 49.6 49.61z"/></g></svg>