<?xml version="1.0" standalone="no"?>
<!DOCTYPE svg PUBLIC "-//W3C//DTD SVG 20010904//EN"
 "http://www.w3.org/TR/2001/REC-SVG-20010904/DTD/svg10.dtd">
<svg version="1.0" xmlns="http://www.w3.org/2000/svg"
 width="2480.000000pt" height="2480.000000pt" viewBox="0 0 2480.000000 2480.000000"
 preserveAspectRatio="xMidYMid meet">

<g transform="translate(0.000000,2480.000000) scale(0.100000,-0.100000)"
fill="#000000" stroke="none">
<path d="M16204 22915 c-158 -93 -322 -343 -368 -558 -9 -47 -28 -87 -68 -148
-119 -182 -230 -285 -284 -261 -21 10 -24 18 -24 65 0 30 4 77 10 106 17 90
50 364 50 417 0 106 -51 205 -120 234 -99 41 -247 -47 -361 -215 -22 -33 -38
-51 -36 -40 16 62 28 157 23 170 -7 20 -91 20 -137 1 -62 -26 -67 -38 -85
-211 -15 -147 -20 -165 -51 -225 -101 -190 -284 -421 -345 -435 -73 -18 -85
21 -59 184 34 213 53 393 46 439 -16 106 -64 180 -132 203 -95 31 -262 -78
-349 -227 -15 -25 -28 -44 -29 -42 -2 2 3 43 12 91 8 49 12 91 10 94 -15 15
-91 14 -131 -1 -72 -27 -74 -34 -96 -232 l-21 -179 -75 -125 c-188 -309 -273
-390 -332 -315 -32 40 -33 80 -12 325 11 129 20 256 20 283 l0 50 -39 -7 c-22
-3 -46 -8 -54 -12 -13 -5 -13 2 1 50 14 51 14 56 -4 88 -26 44 -76 68 -144 68
-46 0 -66 -6 -119 -37 -106 -63 -217 -196 -294 -352 -20 -42 -45 -74 -70 -92
-68 -49 -221 -96 -272 -83 l-22 5 39 101 c22 56 47 134 55 174 14 69 14 76 -4
111 -15 31 -24 39 -52 41 -98 10 -194 -106 -228 -275 -13 -65 -14 -87 -3 -143
l13 -67 -61 -121 c-72 -146 -157 -272 -183 -272 -26 0 -54 45 -85 136 -36 105
-43 279 -20 478 12 103 13 142 5 152 -18 21 -70 17 -126 -11 -67 -34 -85 -71
-91 -187 l-4 -88 -42 -33 c-22 -19 -77 -58 -121 -86 l-79 -52 -13 84 c-15 108
-44 169 -110 234 -116 114 -268 124 -407 26 -40 -28 -54 -49 -101 -145 -59
-124 -83 -206 -92 -310 -6 -63 -10 -74 -60 -141 -133 -178 -248 -281 -307
-275 -92 9 -90 133 9 613 19 94 35 180 35 193 0 29 -33 29 -120 -1 -78 -27
-102 -57 -124 -155 -40 -175 -46 -506 -12 -632 24 -91 127 -170 220 -170 71 0
165 78 292 241 l79 101 16 -54 c52 -173 158 -248 310 -220 86 16 146 48 209
111 69 70 115 156 144 271 l23 89 74 49 c41 27 97 70 126 96 60 54 53 61 74
-74 22 -143 85 -308 145 -379 34 -41 74 -61 121 -61 33 0 44 7 93 59 65 68
153 197 242 357 l63 114 51 0 c62 0 187 31 244 60 23 12 44 19 46 17 3 -2 0
-45 -6 -94 -24 -196 42 -357 156 -379 48 -9 142 20 213 66 64 42 143 125 174
184 l21 41 7 -42 c11 -60 42 -124 73 -153 24 -21 37 -25 89 -24 113 1 186 62
307 258 38 62 66 98 68 88 1 -9 -6 -82 -17 -162 -14 -101 -17 -147 -9 -151 25
-16 140 40 175 85 15 19 24 67 42 232 17 156 28 218 43 248 101 201 223 332
288 311 46 -14 52 -146 18 -367 -12 -79 -23 -186 -23 -239 0 -90 2 -98 28
-132 15 -20 42 -44 59 -53 46 -24 127 -21 185 6 69 33 187 157 268 282 38 59
70 106 72 105 1 -2 -7 -66 -17 -142 -27 -186 -26 -205 3 -205 30 0 137 61 159
91 13 18 22 72 38 224 l21 200 45 91 c83 164 184 274 252 274 60 0 71 -125 32
-375 -41 -268 -40 -312 13 -372 113 -129 295 -56 465 185 l50 72 7 -37 c17
-95 83 -176 151 -189 48 -9 142 20 213 66 64 42 143 125 174 184 l21 41 7 -42
c11 -60 42 -124 73 -153 24 -21 37 -25 89 -24 137 1 210 79 431 466 75 130 90
171 75 199 -24 46 -46 23 -169 -180 -104 -172 -193 -296 -235 -329 -56 -44
-114 -16 -129 61 -4 19 3 139 14 267 11 129 20 256 20 283 l0 50 -39 -7 c-22
-3 -46 -8 -54 -12 -13 -5 -13 2 1 50 14 51 14 56 -4 88 -26 44 -76 68 -145 68
-45 0 -66 -6 -115 -35z m97 -142 c7 -18 7 -40 1 -65 -11 -43 -7 -45 45 -23 19
8 37 15 39 15 9 0 3 -122 -12 -249 -19 -163 -38 -205 -135 -303 -49 -50 -75
-68 -103 -73 -47 -9 -83 6 -98 42 -18 43 -14 237 6 313 28 108 117 279 170
328 53 49 73 52 87 15z m-3300 -400 c7 -18 7 -40 1 -65 -11 -43 -7 -45 45 -23
19 8 37 15 39 15 9 0 3 -122 -12 -249 -19 -163 -38 -205 -135 -303 -49 -50
-75 -68 -103 -73 -47 -9 -83 6 -98 42 -18 43 -14 237 6 313 28 108 117 279
170 328 53 49 73 52 87 15z m-1990 -264 c41 -44 69 -143 69 -244 0 -95 0 -95
-91 -95 -93 0 -149 40 -174 124 -26 87 -20 130 23 177 66 74 127 87 173 38z
m-128 -478 c31 -9 69 -12 108 -7 l61 6 -6 -28 c-13 -54 -67 -151 -101 -181
-19 -16 -53 -35 -74 -42 -107 -32 -172 72 -172 274 0 54 3 102 5 106 3 4 33
-20 68 -54 47 -45 75 -64 111 -74z"/>
<path d="M9206 22894 c-299 -72 -571 -440 -700 -946 -73 -286 -91 -596 -47
-808 53 -250 174 -436 338 -517 53 -25 68 -28 163 -28 96 0 110 3 165 29 75
37 204 163 270 264 111 172 195 399 218 585 11 95 12 97 38 97 56 0 99 63 99
148 0 20 -6 35 -15 39 -33 12 -461 -63 -620 -108 -38 -11 -78 -22 -87 -25 -26
-8 -43 -69 -28 -104 15 -35 30 -42 70 -30 28 8 203 38 318 54 l42 6 0 -34 c0
-63 -31 -211 -66 -316 -84 -250 -236 -453 -359 -476 -95 -18 -192 59 -243 192
-49 129 -57 195 -56 444 0 180 5 254 23 370 96 627 311 1040 542 1044 76 2
123 -60 138 -179 18 -151 -32 -313 -120 -388 l-40 -35 33 -38 c56 -63 106 -94
153 -94 54 0 83 23 123 98 45 84 65 178 65 302 -1 225 -78 388 -213 449 -53
24 -119 26 -204 5z"/>
<path d="M10144 22758 c-90 -64 -114 -185 -48 -237 32 -25 55 -26 94 -6 76 39
105 155 57 226 -28 42 -61 47 -103 17z"/>
<path d="M10812 20758 c-234 -36 -460 -248 -612 -571 -139 -298 -204 -592
-204 -922 0 -212 15 -305 74 -451 131 -328 420 -464 655 -310 215 141 415 518
450 850 7 61 9 67 34 72 55 12 62 16 77 46 9 17 18 54 21 83 7 66 5 67 -157
43 -273 -39 -557 -105 -581 -134 -6 -7 -13 -30 -16 -51 -4 -30 -1 -42 15 -56
19 -18 24 -18 99 -3 90 18 274 46 303 46 25 0 25 -16 5 -136 -43 -249 -157
-490 -289 -612 -82 -76 -164 -92 -241 -49 -81 46 -151 191 -174 360 -16 112
-14 380 4 527 76 645 300 1118 540 1138 51 4 57 2 89 -30 110 -110 79 -411
-54 -532 l-42 -38 29 -36 c16 -20 51 -51 77 -69 60 -41 102 -43 145 -7 43 36
97 149 111 236 15 88 8 284 -13 349 -63 194 -181 283 -345 257z"/>
<path d="M17013 20660 c-100 -35 -135 -71 -199 -200 -53 -109 -81 -208 -90
-321 -6 -72 -11 -87 -55 -157 -61 -100 -144 -196 -200 -234 -58 -38 -107 -36
-128 6 -12 25 -10 55 14 244 33 260 31 359 -8 445 -33 74 -73 100 -142 94 -27
-2 -68 -12 -89 -22 -58 -28 -161 -129 -225 -220 l-56 -80 -7 65 c-27 279 -237
264 -457 -34 -35 -47 -66 -85 -67 -83 -2 2 1 32 7 68 14 92 -3 143 -49 147
-21 2 -56 -7 -98 -27 l-64 -30 0 -54 0 -55 -74 -70 c-68 -63 -232 -183 -270
-198 -13 -5 -16 3 -16 48 0 293 -318 462 -528 282 -81 -69 -170 -288 -187
-462 -6 -65 -12 -79 -52 -134 -69 -93 -214 -239 -276 -276 -131 -79 -287 -41
-348 85 -31 64 -38 218 -15 318 25 104 78 206 147 279 94 101 159 119 159 46
0 -21 -11 -37 -41 -61 -41 -32 -41 -33 -36 -87 11 -100 50 -129 125 -90 66 34
102 104 102 197 -1 154 -91 228 -242 196 -37 -7 -77 -19 -90 -26 -174 -90
-301 -317 -324 -578 -6 -80 -9 -87 -67 -175 -78 -119 -139 -190 -177 -206 -25
-10 -34 -10 -55 4 -14 10 -31 29 -37 44 -12 31 -7 162 17 421 16 183 14 215
-13 207 -9 -2 -32 -8 -51 -11 -30 -7 -33 -5 -26 11 4 11 10 40 12 66 5 42 2
50 -24 77 -34 34 -102 55 -150 48 -163 -27 -372 -281 -448 -544 -26 -91 -47
-127 -146 -249 -120 -148 -220 -220 -269 -194 -26 14 -50 68 -50 112 0 56 27
223 77 470 26 130 45 240 41 243 -7 8 -110 -17 -163 -39 -43 -18 -68 -68 -92
-184 -24 -114 -25 -515 -1 -592 42 -136 198 -202 309 -131 51 32 145 129 209
215 l45 59 13 -49 c21 -80 43 -123 79 -154 60 -53 128 -53 238 -1 77 36 187
140 221 210 l22 43 11 -51 c14 -67 44 -124 78 -151 24 -19 37 -22 93 -18 110
8 151 41 261 205 l68 103 24 -54 c32 -70 98 -141 162 -174 45 -24 60 -27 150
-26 114 0 157 15 259 88 67 48 193 175 245 248 19 26 37 45 42 43 4 -3 10 -22
14 -43 11 -65 66 -154 118 -189 58 -39 118 -49 200 -33 173 33 294 170 349
392 18 73 25 88 47 98 49 22 150 100 237 182 l87 83 -7 -40 c-20 -126 -66
-563 -61 -582 15 -62 53 -64 145 -8 l56 34 22 159 c41 299 135 510 263 593
115 74 152 9 129 -227 -6 -66 -23 -180 -37 -254 -14 -74 -28 -161 -30 -192 -5
-53 -4 -58 18 -66 28 -11 92 2 134 27 27 16 31 23 37 87 29 279 105 494 221
620 76 84 128 103 167 64 26 -26 26 -62 0 -255 -23 -178 -26 -351 -6 -398 19
-47 68 -85 120 -92 57 -9 156 17 218 56 58 38 162 147 219 230 l42 63 12 -40
c31 -103 102 -184 179 -205 107 -29 252 18 343 110 73 74 153 251 153 337 0
12 18 29 48 46 72 41 198 146 294 246 90 93 126 148 115 176 -12 30 -43 16
-107 -50 -93 -95 -302 -254 -334 -254 -3 0 -6 19 -6 43 0 112 -62 241 -146
300 -93 66 -186 82 -281 47z m184 -122 c25 -20 63 -114 73 -182 11 -70 5 -152
-11 -162 -5 -3 -38 -6 -72 -6 -102 -2 -166 47 -186 142 -20 94 -16 116 33 165
60 59 122 76 163 43z m-2688 -343 c41 -48 65 -132 66 -233 0 -63 -4 -85 -15
-93 -8 -5 -47 -8 -87 -7 -112 5 -152 46 -174 175 l-13 71 34 42 c34 43 96 79
136 80 13 0 35 -15 53 -35z m2537 -135 c37 -18 58 -21 119 -18 83 4 83 4 60
-63 -25 -70 -74 -138 -120 -164 -119 -70 -202 13 -213 211 -2 51 -2 108 2 128
l7 37 50 -55 c27 -30 70 -64 95 -76z m-4480 -75 c4 -14 4 -44 0 -66 l-6 -39
36 15 c65 27 66 25 59 -67 -3 -46 -13 -135 -21 -198 -17 -132 -36 -171 -122
-262 -97 -102 -181 -111 -210 -23 -18 53 -10 250 13 325 65 212 226 414 251
315z m1780 -251 c49 -24 63 -26 129 -21 l73 5 -8 -27 c-29 -102 -83 -181 -144
-210 -63 -31 -92 -27 -136 17 -30 30 -40 51 -54 109 -17 75 -20 151 -9 216 l6
38 44 -50 c26 -29 66 -61 99 -77z"/>
<path d="M11715 20621 c-42 -26 -71 -60 -90 -103 -27 -66 -14 -115 41 -148 26
-17 37 -18 60 -9 61 22 104 83 104 144 0 61 -40 134 -75 135 -5 0 -23 -8 -40
-19z"/>
<path d="M8748 20516 c-149 -53 -265 -199 -302 -378 -17 -81 -19 -200 -8 -330
l7 -77 -78 -98 c-152 -191 -268 -380 -313 -513 -27 -80 -25 -235 5 -311 45
-117 122 -187 230 -210 92 -19 251 12 384 76 28 14 54 25 58 25 3 0 12 -14 19
-30 20 -47 65 -80 111 -80 50 0 95 19 169 71 59 41 73 59 46 59 -19 0 -101 64
-126 99 l-21 30 43 43 c63 62 195 230 207 261 8 20 7 30 -5 42 -22 22 -49 4
-121 -80 -60 -71 -159 -165 -172 -165 -20 0 -166 457 -206 646 l-26 122 99
133 c111 150 139 192 183 280 62 121 76 238 38 315 -35 73 -130 103 -221 70z
m78 -104 c19 -12 34 -50 34 -85 0 -50 -59 -157 -152 -276 -69 -88 -83 -102
-89 -85 -11 29 -10 234 1 276 29 103 153 206 206 170z m-319 -1040 c33 -158
108 -398 167 -533 6 -13 -2 -20 -36 -33 -76 -27 -121 -36 -188 -36 -128 1
-198 62 -207 182 -9 104 41 228 174 441 30 48 58 87 62 87 3 0 16 -48 28 -108z"/>
<path d="M15020 16869 c0 -6 -4 -7 -10 -4 -6 4 -10 -9 -10 -32 0 -28 -3 -34
-10 -23 -6 10 -10 11 -10 3 0 -9 -20 -13 -62 -14 -35 0 -72 -4 -83 -9 -13 -5
23 -9 98 -9 l117 -1 0 -29 c0 -37 -11 -41 -128 -43 l-97 -2 75 -5 75 -6 3
-157 3 -157 -38 -20 c-57 -29 -78 -53 -753 -836 -352 -409 -602 -695 -607
-695 -2 0 -28 20 -57 44 -71 58 -150 103 -261 151 -119 50 -172 77 -244 124
-49 31 -72 39 -128 45 -104 9 -139 -3 -202 -71 -42 -46 -238 -302 -428 -560
-13 -18 -29 -33 -34 -33 -6 0 -38 20 -72 44 -34 23 -109 69 -167 101 -125 69
-170 101 -170 121 0 22 -13 17 -46 -18 -81 -87 -177 -235 -329 -508 -119 -213
-451 -681 -469 -659 -1 2 -22 40 -45 84 -23 44 -68 114 -99 155 -70 92 -300
324 -442 446 -259 222 -564 460 -604 470 -12 3 -51 0 -86 -5 -59 -10 -69 -15
-123 -68 -60 -60 -158 -186 -312 -403 -271 -381 -538 -641 -1191 -1157 -272
-215 -326 -268 -373 -367 -22 -46 -92 -175 -157 -287 -150 -262 -227 -417
-222 -453 3 -26 14 -18 176 136 240 225 261 243 336 268 35 11 90 40 123 62
32 23 81 50 108 61 63 24 88 47 132 122 54 92 159 242 229 325 80 97 276 288
334 327 70 46 169 98 175 91 3 -3 -5 -50 -19 -104 -14 -55 -30 -139 -36 -189
-17 -131 -20 -128 -44 31 -30 198 -38 199 -202 32 -209 -212 -308 -350 -364
-506 -13 -34 -36 -75 -53 -91 -28 -28 -144 -90 -351 -185 -85 -40 -110 -57
-181 -128 -87 -88 -120 -140 -131 -207 -6 -36 -3 -43 24 -71 l31 -31 113 57
c62 31 192 101 288 156 96 55 180 103 185 106 20 10 -10 -15 -110 -93 -113
-88 -235 -203 -235 -222 0 -19 42 -16 265 18 110 17 221 33 247 36 l47 5 11
-41 c17 -65 65 -77 164 -41 65 25 103 65 150 158 41 82 59 139 130 403 75 276
102 400 121 554 19 148 50 308 65 333 19 34 10 -97 -15 -215 -74 -343 -114
-583 -131 -792 -6 -73 -12 -96 -49 -166 -54 -102 -74 -167 -81 -271 -7 -90 -1
-134 20 -134 16 0 61 48 166 178 67 82 103 113 116 99 2 -2 0 -82 -6 -178 -5
-96 -10 -207 -10 -246 l0 -73 30 0 c20 0 34 7 44 23 15 22 35 142 56 332 21
184 75 377 144 513 13 26 65 112 115 192 99 158 115 208 64 196 -33 -8 -119
-95 -199 -201 -31 -41 -60 -75 -64 -75 -14 0 3 271 41 660 24 242 22 405 -6
480 l-17 45 56 111 c92 182 152 353 129 367 -18 11 -54 -25 -156 -161 -169
-224 -198 -262 -279 -351 -83 -93 -163 -163 -273 -239 -154 -105 -153 -97 5
59 275 272 448 486 710 879 135 202 179 262 192 258 11 -4 35 -46 68 -117 18
-41 20 -66 20 -305 0 -144 3 -286 7 -316 6 -52 7 -53 15 -25 5 17 12 136 15
265 4 159 9 226 15 210 23 -61 110 -393 152 -580 75 -335 119 -480 145 -480
23 0 23 81 2 255 -12 99 -29 213 -37 254 -8 40 -13 75 -10 78 14 14 129 -260
286 -682 108 -292 281 -832 393 -1230 48 -170 117 -492 117 -547 0 -25 -18
-22 -41 5 -32 37 -200 273 -289 407 -198 296 -384 534 -547 697 -109 109 -156
140 -173 113 -4 -7 -11 -39 -14 -72 -13 -111 -85 -308 -156 -423 -23 -37 -93
-146 -156 -242 -63 -96 -117 -187 -120 -203 -11 -52 19 -61 243 -71 315 -14
366 -31 485 -162 120 -131 191 -162 448 -191 80 -9 181 -21 225 -27 44 -6 96
-13 115 -15 19 -3 41 -1 47 4 35 23 38 236 7 422 -27 161 -158 609 -309 1059
-35 107 -64 195 -62 196 1 2 32 -2 69 -8 76 -12 98 -2 98 41 0 14 -22 102 -49
196 -54 187 -97 384 -86 394 11 11 77 -72 157 -195 75 -116 189 -288 289 -435
31 -46 114 -193 184 -328 205 -393 372 -677 425 -725 l23 -20 -8 25 c-4 14
-39 86 -78 160 -126 241 -295 584 -328 668 -15 38 17 27 73 -25 48 -45 162
-181 440 -524 135 -166 198 -232 198 -206 0 40 -90 194 -363 622 -204 319
-310 487 -410 650 -129 209 -149 245 -145 260 2 8 88 100 191 204 138 139 193
188 205 184 19 -7 210 -141 357 -252 307 -230 510 -412 570 -511 32 -53 87
-109 205 -209 44 -38 61 -63 114 -175 35 -72 76 -162 92 -201 33 -79 120 -179
167 -190 39 -10 51 3 189 210 155 232 160 238 171 193 8 -30 34 -65 42 -57 3
4 -1 23 -9 44 -9 20 -21 66 -27 101 -6 35 -16 64 -21 64 -6 0 -83 -72 -172
-160 -164 -161 -182 -174 -225 -151 -34 19 -70 87 -111 210 -65 196 -82 220
-182 264 -106 47 -170 123 -355 427 -120 197 -253 446 -253 474 0 10 9 16 23
16 13 0 32 7 43 15 18 14 16 17 -42 72 -75 71 -96 122 -119 288 -24 172 -24
172 75 59 123 -140 368 -368 428 -398 28 -14 67 -26 87 -26 30 0 39 -6 66 -42
17 -24 51 -80 76 -126 45 -82 45 -84 32 -129 -11 -42 -11 -47 7 -60 13 -9 41
-13 89 -11 98 4 98 8 8 183 -24 47 -58 96 -209 305 -233 322 -223 305 -205
354 10 26 210 294 305 408 51 61 92 91 188 136 3 2 25 -54 48 -125 77 -235
109 -275 357 -446 209 -145 192 -125 204 -242 10 -115 9 -119 -82 -380 -42
-123 -52 -163 -53 -221 -1 -68 0 -72 42 -127 23 -31 55 -63 71 -71 49 -26 53
-1 16 89 -29 71 -32 147 -9 225 l16 53 55 -104 c60 -114 86 -149 185 -256 49
-53 78 -97 109 -165 78 -167 265 -530 339 -658 150 -259 266 -387 387 -428 56
-19 56 -2 2 138 -78 201 -260 549 -381 728 -27 39 -44 72 -38 72 23 0 251
-163 265 -189 20 -37 139 -150 216 -204 88 -62 118 -93 145 -152 28 -59 30
-102 8 -176 -75 -253 -346 -503 -754 -697 -196 -93 -285 -171 -316 -280 -53
-182 93 -365 361 -453 65 -21 88 -23 330 -24 279 -2 322 -7 455 -56 223 -81
459 -236 627 -412 101 -106 142 -161 178 -239 31 -66 32 -118 4 -144 -24 -21
-159 -31 -445 -33 -194 -1 -309 -12 -553 -51 -300 -49 -553 -112 -733 -184
-84 -33 -89 -33 -110 -17 -133 100 -256 123 -493 91 -203 -28 -348 -25 -414 8
-53 26 -67 19 -26 -13 l29 -24 -23 -25 c-13 -13 -20 -29 -16 -35 7 -13 110
-14 140 -2 19 8 18 9 -7 21 -16 7 -28 17 -28 22 0 11 7 10 63 -7 43 -13 68
-12 256 7 201 21 213 21 310 5 55 -9 119 -26 142 -38 39 -20 41 -22 36 -57 -3
-20 -9 -48 -13 -61 -11 -37 13 -17 31 25 l15 35 51 -27 c27 -15 55 -36 60 -46
5 -10 19 -18 29 -18 32 0 23 -25 -14 -38 -19 -7 -40 -20 -47 -28 -11 -14 -10
-16 11 -13 42 6 50 -7 50 -81 l0 -68 -122 -4 c-96 -2 -125 0 -134 11 -9 11
-15 11 -34 1 -30 -16 -145 -8 -218 15 -78 24 -57 38 47 31 60 -5 107 -2 155 8
40 9 89 12 117 9 l49 -6 0 44 c0 36 6 49 37 81 l36 37 -64 -1 c-35 0 -88 3
-117 7 -47 6 -56 4 -87 -19 -33 -26 -85 -35 -85 -16 0 6 4 10 8 10 5 0 17 7
28 16 17 14 8 15 -116 10 -152 -5 -320 -24 -335 -37 -5 -5 15 -9 49 -9 l58 0
-5 -32 c-6 -45 7 -66 48 -74 34 -6 53 -20 42 -30 -3 -3 -45 11 -93 31 -49 20
-132 52 -184 71 -74 26 -96 38 -98 54 -3 18 2 20 49 20 33 0 49 4 44 9 -6 5
-58 30 -117 56 -59 26 -112 53 -118 60 -8 10 -7 23 5 50 22 53 19 96 -11 149
-14 25 -24 52 -21 58 2 8 11 0 21 -17 l17 -30 -5 45 c-32 279 -31 348 6 395
49 63 -25 210 -131 261 -39 19 -145 30 -185 20 -18 -4 -28 -16 -34 -39 -8 -32
-10 -32 -126 -61 -129 -31 -137 -46 -26 -46 92 0 170 -11 170 -23 0 -6 -21
-30 -46 -55 -46 -43 -48 -44 -98 -38 -114 15 -116 15 -139 62 -11 24 -24 44
-27 44 -4 0 -34 -11 -68 -25 -76 -31 -76 -31 -68 0 l7 26 -41 -21 -41 -21 -19
23 c-19 23 -19 23 -35 3 -8 -11 -20 -28 -26 -39 -10 -17 -8 -18 12 -13 55 13
99 19 99 13 0 -4 -21 -16 -46 -26 -42 -18 -45 -23 -40 -46 10 -39 -15 -25 -29
16 -11 34 -12 33 -53 -96 -23 -72 -51 -143 -63 -158 l-21 -27 20 -112 c12 -62
24 -137 28 -167 l6 -54 19 23 c11 13 19 32 19 42 0 24 2 24 42 -1 49 -30 65
-26 77 18 6 20 11 43 11 50 0 16 -59 42 -94 42 -39 0 -49 31 -43 123 4 54 11
84 22 97 31 34 104 52 233 57 132 6 134 5 107 -46 -13 -26 -13 -31 4 -52 10
-13 35 -58 56 -99 33 -65 39 -72 50 -57 7 9 17 17 24 17 11 0 9 -17 -6 -72 -6
-23 9 -23 57 2 l39 20 24 -53 c22 -49 19 -73 -6 -48 -18 18 -24 13 -31 -26 -3
-21 -19 -67 -36 -101 -31 -67 -38 -102 -18 -102 6 0 33 14 60 31 52 33 117 44
125 21 3 -7 -25 -42 -61 -77 -70 -69 -103 -83 -92 -41 5 20 1 26 -24 36 -34
14 -44 29 -54 79 -3 19 -11 40 -17 48 -14 16 -43 18 -33 1 5 -8 -11 -9 -62 -5
-38 4 -81 10 -96 13 -24 5 -28 3 -28 -15 0 -19 -6 -21 -67 -22 -95 0 -164 -13
-179 -33 -10 -14 -6 -34 22 -114 19 -53 34 -104 34 -113 0 -9 8 -20 17 -23 15
-6 15 -8 -1 -24 -16 -16 -18 -16 -30 1 -8 10 -21 47 -30 84 -24 94 -44 127
-143 238 -49 55 -101 117 -117 138 -19 26 -32 35 -38 29 -18 -18 -38 -125 -36
-197 1 -38 3 -54 5 -35 6 53 12 65 25 52 7 -7 8 -30 3 -67 l-7 -57 -35 5 c-20
4 -72 24 -117 47 -115 56 -130 53 -75 -16 24 -30 29 -45 25 -69 -3 -16 -13
-104 -21 -195 -16 -163 -16 -165 -47 -197 -18 -18 -36 -33 -40 -33 -17 0 -20
31 -4 48 14 17 14 28 -8 143 -13 68 -27 148 -30 177 -6 50 -5 53 19 62 31 12
31 14 -32 149 -38 83 -42 97 -29 109 13 13 24 12 93 -6 43 -11 104 -24 137
-28 64 -7 75 0 76 46 0 36 46 130 64 130 7 0 38 -25 67 -56 71 -74 166 -154
185 -154 8 0 -4 16 -26 36 -48 43 -52 61 -9 39 52 -27 43 -10 -23 45 -80 66
-145 145 -159 191 -10 33 -8 43 29 120 37 76 96 244 104 294 3 19 -2 20 -82
18 -92 -3 -226 -18 -303 -35 l-49 -10 31 -32 c17 -18 31 -35 31 -39 0 -4 -21
-6 -47 -4 -43 2 -48 0 -51 -21 -5 -32 19 -37 119 -23 93 13 118 9 99 -14 -7
-8 -42 -17 -81 -21 -76 -7 -79 -16 -15 -45 83 -38 110 -21 123 80 7 57 27 91
53 91 26 0 26 -16 0 -30 -32 -17 -25 -40 11 -40 30 0 31 -2 25 -31 -12 -60
-44 -119 -71 -129 -15 -6 -71 -10 -126 -10 -92 0 -99 1 -99 20 0 14 -7 20 -22
20 -13 0 -30 4 -38 10 -12 8 -12 11 3 28 9 10 17 21 17 24 0 7 -47 25 -87 33
-18 4 -33 11 -33 16 0 5 29 23 65 40 68 33 100 59 72 59 -9 0 -19 -5 -23 -11
-4 -7 -22 -9 -48 -6 -36 5 -43 3 -51 -15 -19 -42 -34 -31 -56 44 -29 97 -39
105 -39 32 l0 -61 -39 -11 c-47 -15 -131 -16 -131 -2 0 6 15 10 33 10 49 0 65
15 36 31 -44 25 -466 8 -516 -20 -7 -3 -25 -32 -41 -64 l-30 -58 23 -15 c13
-8 26 -22 29 -31 6 -14 4 -14 -18 0 l-24 16 -6 -97 c-15 -232 -16 -238 -50
-289 -31 -48 -31 -48 -171 -94 -77 -26 -146 -44 -152 -42 -7 3 -13 13 -14 22
0 11 -3 10 -9 -5 -6 -15 -27 -28 -62 -39 -67 -22 -128 -53 -128 -64 0 -5 7
-12 16 -15 29 -11 228 -6 324 9 141 22 152 21 148 -12 -4 -39 -50 -58 -183
-78 -60 -8 -127 -20 -148 -26 -45 -12 -127 -83 -127 -110 0 -24 4 -24 78 6 58
24 307 95 331 95 21 0 11 -26 -22 -58 -18 -17 -74 -50 -125 -72 -97 -42 -147
-73 -157 -97 -4 -12 2 -13 27 -7 31 6 173 53 211 69 28 12 21 -32 -11 -65 -30
-30 -148 -72 -237 -85 -63 -9 -85 -21 -85 -44 0 -18 2 -18 67 0 78 22 110 23
150 8 l28 -11 -41 -15 c-53 -18 -61 -37 -80 -182 -8 -63 -20 -121 -26 -128 -6
-7 -29 -13 -52 -13 -51 0 -82 -16 -157 -81 -62 -54 -74 -84 -37 -98 20 -7 20
-8 2 -15 -22 -8 -54 24 -54 55 0 29 -29 23 -42 -8 -14 -34 -16 -25 -21 90 -2
64 0 87 9 87 6 0 15 -7 18 -16 12 -32 28 -2 22 42 -6 45 0 54 22 32 16 -16 15
-3 -2 31 -8 15 -26 33 -41 39 -26 12 -27 15 -21 70 6 57 7 85 5 131 -1 13 8
36 20 52 20 27 20 30 5 62 -15 32 -15 37 31 188 55 178 60 189 84 189 10 0 25
8 34 18 26 29 97 193 97 225 0 29 1 29 19 13 18 -16 22 -15 84 31 36 26 83 61
106 76 41 28 98 93 89 102 -5 5 -87 -50 -176 -117 -44 -35 -54 -39 -68 -27
-19 16 -77 129 -70 136 3 3 19 0 37 -6 36 -12 109 -15 109 -3 0 4 -15 17 -33
29 -17 13 -45 33 -60 45 l-29 23 -20 -25 c-18 -22 -19 -33 -12 -90 14 -117 12
-145 -12 -148 -19 -3 -20 0 -13 55 4 32 8 85 8 118 2 98 14 126 94 207 40 40
87 85 105 99 18 15 32 32 32 39 0 18 -68 6 -148 -26 -35 -14 -66 -23 -70 -20
-8 9 14 136 27 149 6 6 19 2 37 -12 31 -24 52 -26 140 -9 71 13 86 8 60 -21
-20 -22 -14 -41 14 -41 19 0 161 112 169 132 2 7 -60 8 -193 3 -129 -5 -196
-4 -196 3 0 5 19 14 43 20 23 6 91 40 150 76 151 90 194 100 403 94 136 -4
163 -2 149 8 -56 42 -321 58 -460 29 -206 -43 -331 -167 -388 -385 -17 -65
-21 -117 -24 -395 l-4 -320 -33 -35 c-88 -94 -120 -178 -155 -411 -26 -177
-30 -226 -41 -539 -7 -190 -15 -296 -30 -374 -24 -130 -25 -155 -3 -101 62
157 84 217 98 268 10 34 21 55 27 51 16 -10 46 -85 63 -159 15 -62 15 -69 -1
-86 -9 -10 -27 -19 -41 -21 -20 -2 -36 -22 -81 -100 -56 -98 -77 -117 -84 -75
-2 12 -8 -26 -12 -85 -10 -131 7 -361 34 -477 48 -199 123 -266 463 -407 l117
-49 0 -87 c0 -107 9 -151 71 -351 84 -271 92 -310 93 -437 0 -78 -7 -153 -23
-235 -12 -66 -67 -352 -121 -635 -54 -283 -104 -549 -110 -590 -11 -83 -40
-466 -40 -546 l0 -51 -92 -89 c-250 -238 -407 -411 -492 -540 -15 -23 -45 -92
-66 -153 -27 -77 -53 -129 -82 -169 -24 -31 -59 -83 -78 -116 -124 -209 -461
-440 -950 -650 l-105 -45 322 -1 323 0 119 79 c66 44 148 95 183 115 35 20
115 72 178 116 63 44 138 95 167 115 60 41 176 175 222 257 18 31 66 156 106
277 72 214 128 344 158 369 12 10 14 8 10 -15 -3 -16 16 21 41 81 25 59 48
111 51 114 11 11 26 -15 40 -69 23 -85 21 -96 -22 -106 -27 -6 -42 -17 -51
-36 -13 -27 -9 -51 25 -143 4 -12 -47 -34 -78 -34 -16 0 -19 8 -20 48 l-2 47
-7 -50 c-5 -27 -9 -80 -9 -117 l-1 -67 78 -37 c42 -21 79 -39 81 -41 2 -1 -10
-62 -27 -135 -57 -245 -67 -405 -26 -435 47 -34 257 -81 504 -113 165 -21 578
-47 602 -37 8 3 27 26 42 51 26 44 26 47 15 115 -18 106 -19 105 166 97 354
-15 571 -18 728 -11 l167 7 -1 47 c0 53 -22 198 -31 207 -4 3 -39 10 -80 15
-137 16 -214 38 -275 78 -66 43 -164 144 -238 244 -31 43 -51 63 -53 53 -2 -9
4 -26 12 -38 26 -37 18 -98 -13 -98 -29 0 -41 22 -41 73 l0 49 -34 -21 c-43
-27 -46 -27 -46 8 0 20 6 30 20 34 11 3 22 12 25 21 17 53 15 51 31 28 34 -48
45 5 18 85 -23 68 -39 83 -91 83 -34 0 -43 3 -43 18 0 26 16 46 33 39 37 -14
27 23 -36 128 l-42 70 1 145 c0 109 7 181 26 290 14 80 32 186 38 237 12 88
15 95 58 145 25 29 78 94 117 143 103 128 237 256 334 320 112 72 361 199 370
189 4 -5 18 -54 30 -109 13 -55 46 -174 74 -265 40 -131 52 -187 58 -270 6
-93 14 -123 64 -260 85 -231 94 -277 106 -499 9 -186 11 -200 49 -319 49 -153
51 -201 11 -280 -40 -80 -45 -110 -27 -180 9 -33 16 -74 16 -91 0 -24 3 -29
16 -24 14 5 15 -2 9 -63 -8 -78 -11 -84 -31 -84 -9 0 -14 11 -14 34 0 19 -4
38 -10 41 -16 10 -23 -45 -11 -84 9 -31 8 -40 -9 -64 -51 -68 -70 -101 -70
-120 0 -17 -5 -19 -31 -13 -17 3 -45 6 -61 6 -41 0 -45 24 -12 71 23 33 32 39
52 34 25 -6 92 28 92 47 0 16 -135 4 -163 -15 -36 -24 -45 -109 -21 -199 3 -9
19 -21 36 -27 64 -22 570 -5 717 25 151 30 282 114 341 218 45 77 42 142 -15
331 -25 82 -45 165 -45 185 0 19 16 80 36 135 l35 100 -1 305 c0 168 -5 334
-11 370 -15 90 -52 293 -105 570 -58 298 -57 319 37 802 l43 217 30 11 c16 6
33 7 37 3 3 -5 28 -102 54 -218 26 -115 60 -259 75 -320 16 -60 40 -180 55
-265 15 -85 47 -218 71 -295 51 -161 97 -339 114 -440 12 -77 30 -120 30 -74
0 71 -151 759 -216 987 -35 119 -48 182 -53 262 -5 76 -13 116 -28 145 -30 58
-65 179 -61 212 3 26 9 29 115 61 l111 32 99 -69 c54 -38 168 -107 254 -154
152 -83 307 -178 554 -337 216 -139 470 -290 490 -290 3 0 5 8 5 18 0 13 -39
40 -137 93 -76 42 -244 143 -374 226 -130 82 -266 167 -303 188 -36 20 -102
69 -145 108 -65 60 -94 78 -172 110 -117 47 -221 99 -223 111 -1 11 118 41
288 70 445 78 657 113 735 122 35 3 78 11 95 16 17 5 89 13 160 19 71 5 183
18 250 29 176 28 320 46 596 75 514 54 612 66 673 80 34 7 112 21 172 30 191
28 397 87 444 128 23 21 87 51 148 71 28 9 57 24 64 32 6 8 27 21 45 30 44 21
82 78 94 144 13 67 13 289 1 426 -10 115 -42 204 -107 294 -45 63 -259 277
-319 317 -22 15 -60 43 -84 63 -85 68 -277 172 -446 242 -284 118 -370 149
-551 197 -208 56 -360 103 -764 240 -303 103 -342 116 -379 136 -15 7 -56 21
-91 30 -36 9 -117 37 -180 63 -63 25 -141 53 -173 61 l-59 16 -42 100 c-77
181 -166 332 -253 425 l-55 60 20 27 c41 57 75 80 137 91 117 21 232 32 435
42 117 6 248 19 305 30 164 32 340 58 515 75 328 32 383 65 384 226 0 98 -25
150 -107 223 -34 31 -122 111 -195 178 -265 246 -408 350 -582 422 -40 16
-316 59 -495 76 -140 13 -391 62 -433 84 -65 34 -112 127 -112 222 0 38 4 46
43 77 23 18 67 48 97 67 103 62 388 275 505 379 60 53 233 248 277 314 48 71
88 174 88 227 0 78 -79 246 -174 372 l-39 52 23 44 c29 53 64 82 101 82 34 0
179 -45 234 -72 52 -26 122 -93 147 -142 11 -22 29 -81 39 -130 43 -209 11
-314 -120 -397 -23 -15 -59 -46 -78 -69 -22 -25 -65 -56 -112 -80 -85 -43
-145 -100 -185 -175 -15 -28 -52 -82 -82 -120 -31 -39 -64 -86 -75 -107 -23
-45 -129 -366 -129 -391 0 -31 19 -55 64 -82 51 -30 89 -31 154 -6 27 11 86
22 133 26 105 8 197 30 272 63 57 25 59 25 110 9 70 -22 200 -124 559 -441
177 -156 284 -312 374 -550 39 -102 60 -225 47 -276 -7 -27 -20 -40 -70 -67
-33 -19 -83 -40 -109 -48 -27 -7 -101 -30 -164 -49 -63 -20 -155 -43 -205 -52
-49 -8 -103 -19 -120 -24 -16 -6 -53 -12 -81 -15 -58 -5 -249 -44 -393 -80
-53 -14 -132 -43 -176 -65 -68 -34 -95 -57 -182 -149 l-103 -109 0 -60 0 -59
63 -60 c100 -95 173 -131 330 -158 73 -13 166 -30 207 -39 231 -50 474 -96
502 -96 18 0 132 -21 253 -45 121 -25 297 -59 390 -75 278 -48 389 -74 615
-143 118 -36 235 -70 260 -77 56 -15 153 -51 250 -95 41 -18 116 -50 165 -70
99 -40 487 -236 556 -281 193 -126 296 -224 539 -513 271 -322 395 -497 444
-628 8 -21 27 -69 42 -108 28 -69 28 -73 27 -275 0 -229 -18 -340 -74 -453
-33 -66 -220 -358 -258 -401 -90 -102 -196 -206 -261 -255 -143 -107 -401
-202 -627 -232 -48 -6 -144 -22 -213 -35 -69 -13 -197 -33 -285 -44 -451 -58
-753 -141 -1110 -305 -216 -99 -190 -90 -343 -120 -170 -34 -220 -50 -342
-107 -58 -27 -197 -88 -310 -134 -214 -89 -676 -315 -745 -366 -68 -49 -403
-386 -556 -558 -152 -172 -261 -314 -299 -390 -12 -24 -30 -56 -40 -70 -72
-105 -265 -499 -284 -582 -3 -14 -9 -33 -12 -42 -5 -13 3 -16 48 -16 l54 0 34
83 c120 297 326 608 586 887 49 52 100 108 114 123 33 38 302 266 405 344 473
357 1113 649 1715 782 215 47 429 84 620 105 257 29 590 106 868 201 372 126
651 257 870 408 102 70 309 246 358 304 108 129 196 275 248 415 48 129 57
367 21 555 -67 351 -380 861 -759 1238 -276 274 -519 445 -891 626 -224 110
-420 183 -797 298 -162 50 -339 106 -394 126 -156 57 -271 76 -569 95 -705 44
-895 61 -1070 91 -181 32 -275 74 -275 121 0 35 78 98 185 149 160 77 265 99
745 159 282 35 411 77 523 170 64 52 112 112 150 184 31 58 32 66 32 176 0
128 -12 176 -74 295 -107 207 -292 401 -756 794 -222 188 -251 203 -385 204
-101 0 -162 -15 -357 -88 -154 -59 -183 -65 -183 -39 0 44 188 448 252 542 82
120 192 211 315 261 100 41 159 84 206 152 40 58 77 181 77 253 -1 132 -76
313 -164 393 -58 53 -197 127 -298 159 -32 10 -58 22 -58 28 1 45 143 301 244
441 28 39 59 88 69 109 10 22 93 162 185 310 91 149 207 339 257 421 51 83
136 222 190 310 54 88 125 205 158 260 33 55 75 122 94 148 20 26 60 96 90
154 55 108 127 219 183 283 30 34 30 34 -9 -40 -21 -41 -102 -194 -179 -340
-153 -290 -215 -424 -551 -1188 -45 -101 -81 -197 -81 -213 0 -36 22 -47 55
-29 30 16 172 159 217 217 17 23 34 41 36 39 2 -2 -6 -23 -18 -46 -36 -70
-138 -334 -160 -412 -31 -112 -25 -164 21 -189 12 -6 73 -14 137 -19 130 -9
152 -21 152 -84 0 -40 7 -48 30 -36 28 15 38 55 60 230 26 215 34 249 75 345
19 44 50 140 70 214 19 73 39 140 44 148 5 9 11 -49 17 -144 13 -245 13 -247
-30 -348 -51 -121 -52 -126 -22 -154 l26 -24 25 23 c13 12 29 39 35 59 7 20
14 42 16 50 3 8 23 -22 45 -67 87 -173 210 -263 304 -220 14 6 25 18 25 27 0
9 3 26 6 39 5 18 -3 31 -36 63 l-43 41 7 134 c9 175 25 267 71 389 49 132 70
171 100 191 28 18 19 22 105 -43 54 -42 96 -43 141 -6 44 38 58 77 65 190 6
89 4 105 -20 178 -34 101 -95 221 -204 405 -47 79 -94 167 -105 195 -21 55
-97 348 -97 373 0 50 38 -61 97 -278 22 -82 70 -181 106 -219 18 -18 70 -51
117 -73 88 -41 130 -72 130 -95 0 -7 -18 -33 -40 -57 -36 -39 -39 -47 -30 -70
5 -14 21 -31 35 -38 20 -9 32 -7 71 13 53 27 84 75 84 127 0 63 -189 302 -275
348 l-37 19 7 125 c4 69 11 150 16 180 5 30 9 92 9 137 l0 83 -35 14 c-19 8
-44 30 -55 48 -31 51 -79 170 -86 216 -6 37 -4 42 12 42 21 0 144 -56 144 -65
0 -3 -16 -3 -35 1 -31 6 -35 4 -35 -16 0 -12 27 -77 60 -144 33 -66 64 -141
69 -166 6 -25 11 -124 11 -220 l0 -175 35 -68 c63 -126 114 -180 413 -441 110
-96 236 -236 269 -299 24 -47 43 -125 44 -182 1 -62 30 -187 45 -192 7 -2 13
41 17 133 16 327 8 393 -63 514 -59 101 -103 195 -155 325 -51 129 -118 270
-140 295 -30 33 -142 306 -131 317 11 11 133 -125 193 -215 59 -88 156 -290
175 -360 8 -32 18 -46 36 -53 49 -19 530 -393 570 -444 11 -14 26 -25 34 -25
8 0 19 -5 24 -10 11 -11 3 -34 -39 -120 -7 -14 -43 -43 -80 -66 -38 -22 -79
-52 -93 -66 l-26 -25 50 -59 c85 -103 195 -199 278 -244 108 -59 182 -111 226
-157 36 -37 99 -146 110 -190 3 -13 11 -23 17 -23 6 0 11 10 11 23 0 12 7 44
15 72 14 44 14 64 -1 195 -9 80 -25 171 -35 203 -11 31 -19 66 -19 78 0 11 -5
30 -11 41 -15 28 -10 25 166 -112 312 -242 475 -353 492 -336 3 3 -2 18 -12
33 -32 51 -555 563 -1254 1227 -69 66 -254 244 -411 397 -157 152 -298 288
-315 301 -46 38 -319 219 -420 279 -110 65 -193 106 -264 130 -86 30 -93 28
-136 -46 -51 -87 -180 -256 -272 -357 -42 -46 -101 -117 -131 -158 -31 -41
-64 -81 -73 -87 -25 -19 -76 -106 -103 -176 -62 -162 -170 -367 -223 -422 -16
-16 -54 -62 -85 -101 -66 -83 -112 -124 -139 -124 -12 0 -19 -7 -19 -20 0 -58
-163 -415 -274 -599 -81 -135 -275 -408 -302 -426 -34 -22 -138 -47 -181 -43
-41 3 -50 15 -185 257 -129 230 -142 245 -486 586 -178 176 -328 328 -333 337
-16 30 20 80 260 356 l125 144 13 -37 c7 -20 22 -53 34 -72 l22 -35 -56 -111
c-31 -61 -54 -114 -50 -117 6 -6 3 -10 87 132 34 60 65 111 68 114 16 15 46
-67 98 -267 54 -209 75 -259 105 -259 23 0 43 73 75 271 58 360 92 554 102
572 9 18 10 18 30 0 11 -10 31 -42 44 -70 16 -37 36 -62 68 -85 25 -17 46 -35
46 -40 0 -4 7 -8 15 -8 20 0 19 -26 -5 -216 -20 -155 -51 -296 -90 -408 -21
-62 -26 -106 -12 -106 9 0 59 123 123 300 20 58 55 152 77 210 41 108 55 163
98 385 14 71 30 136 37 143 19 23 309 267 351 296 21 14 42 23 47 21 4 -3 31
-49 60 -103 44 -82 70 -114 163 -207 61 -60 124 -126 141 -145 26 -31 30 -33
33 -14 1 11 -11 57 -28 103 -25 69 -42 95 -101 160 -46 50 -89 112 -121 172
-117 222 -296 440 -435 532 l-63 41 0 173 0 173 74 0 c41 0 77 4 80 9 7 11
-42 21 -101 21 -25 0 -42 4 -38 9 3 6 35 7 73 4 54 -4 70 -2 80 10 16 19 5 23
-95 32 -71 7 -72 7 -75 37 -2 21 -10 33 -25 39 -15 5 -23 5 -23 -2z m27 -56
c-3 -10 -5 -4 -5 12 0 17 2 24 5 18 2 -7 2 -21 0 -30z m76 -40 c-7 -2 -21 -2
-30 0 -10 3 -4 5 12 5 17 0 24 -2 18 -5z m-64 -336 c1 -43 -3 -66 -9 -62 -6 4
-9 66 -8 158 1 146 1 148 9 62 4 -49 7 -121 8 -158z m-50 70 c1 -43 6 -86 13
-97 10 -15 10 -22 1 -31 -22 -22 -33 36 -32 164 1 92 3 112 10 82 4 -22 8 -75
8 -118z m18 36 c-2 -16 -4 -5 -4 22 0 28 2 40 4 28 2 -13 2 -35 0 -50z m239
-439 c82 -91 151 -170 152 -175 5 -11 -25 -11 -112 1 -51 8 -77 17 -102 38
-18 15 -53 42 -78 60 -55 39 -63 64 -47 156 12 72 17 86 30 86 5 0 75 -75 157
-166z m-575 -136 c-18 -40 -39 -88 -48 -106 -19 -39 -105 -132 -122 -132 -18
0 -13 26 12 57 13 15 58 81 101 147 42 65 80 116 83 112 3 -3 -8 -38 -26 -78z
m142 -353 c9 -54 -11 -393 -24 -400 -4 -3 -12 19 -19 48 -7 28 -23 71 -36 94
-21 36 -24 54 -24 145 0 86 3 109 20 136 16 27 26 33 48 30 24 -3 28 -8 35
-53z m-589 -272 c-27 -41 -39 -53 -42 -41 -3 17 67 112 76 103 3 -3 -12 -31
-34 -62z m2266 -12 c0 -39 -6 -56 -30 -86 -16 -21 -30 -34 -30 -29 0 14 51
164 56 164 2 0 4 -22 4 -49z m0 -358 c-35 -134 -75 -262 -91 -295 -24 -47 -24
-102 1 -156 26 -57 43 -61 92 -21 48 38 47 29 -12 -72 -26 -44 -47 -69 -59
-69 -20 0 -49 -29 -80 -80 -25 -42 -25 -43 -11 136 6 71 17 154 26 184 28 103
138 429 142 425 3 -2 -1 -26 -8 -52z m-3356 -25 c26 -7 96 -36 155 -65 105
-53 106 -53 56 -47 -53 6 -299 58 -327 69 -10 4 -15 13 -11 23 4 15 3 15 -6 2
-10 -13 -16 -10 -41 18 -51 56 -41 64 48 36 42 -13 99 -30 126 -36z m347 -138
c17 -10 29 -46 12 -38 -49 24 -63 32 -63 40 0 11 27 10 51 -2z m-415 -38 c6
-4 19 -22 28 -39 9 -18 37 -57 61 -88 25 -30 42 -55 39 -55 -4 0 -37 22 -74
50 -64 47 -126 121 -113 134 9 8 46 7 59 -2z m-1158 -142 c79 -36 277 -180
247 -180 -5 0 -54 25 -109 56 -56 31 -119 63 -140 71 -45 15 -76 40 -76 60 0
18 27 16 78 -7z m1437 -104 c19 -8 35 -22 35 -30 0 -22 -9 -20 -53 9 -55 38
-46 47 18 21z m-1640 -88 c-13 -44 -55 -131 -61 -125 -8 7 48 147 59 147 4 0
5 -10 2 -22z m-1639 -232 c35 -69 100 -263 91 -273 -3 -2 -14 20 -25 49 -11
30 -41 103 -67 164 -26 60 -54 125 -62 144 l-14 35 21 -25 c11 -14 37 -56 56
-94z m3816 -12 c-15 -29 -28 -51 -30 -49 -4 4 25 101 36 119 2 4 8 3 12 -4 4
-7 -4 -36 -18 -66z m4517 -161 l116 -115 -137 123 c-76 67 -138 124 -138 126
0 14 59 -36 159 -134z m-2061 -49 c-36 -147 -52 -179 -46 -89 4 53 64 232 74
222 2 -2 -10 -62 -28 -133z m-2519 10 c-15 -142 -3 -196 85 -379 42 -87 76
-160 76 -163 0 -11 -31 22 -43 47 -8 14 -34 63 -59 108 -59 105 -109 235 -111
287 -1 34 51 202 60 192 1 -1 -2 -42 -8 -92z m4747 -131 c-7 -7 -26 7 -26 19
0 6 6 6 15 -2 9 -7 13 -15 11 -17z m-3766 -389 c0 -12 -42 -74 -49 -74 -10 0
-46 39 -40 43 11 7 75 36 82 36 4 1 7 -2 7 -5z m-6645 -527 c-33 -28 -89 -79
-125 -112 -99 -93 -113 -98 -30 -11 65 68 195 176 210 175 3 0 -22 -23 -55
-52z m1759 -2132 c-20 -31 -101 -95 -120 -95 -8 0 -11 6 -8 15 4 8 12 15 19
15 7 0 35 23 64 52 53 53 76 60 45 13z m-107 -352 c4 -12 -115 -109 -123 -100
-10 10 25 74 52 96 29 23 65 25 71 4z m715 -33 c30 -23 51 -69 46 -101 -2 -19
-12 -25 -47 -32 -51 -10 -59 -4 -88 71 -17 44 -17 45 6 63 30 24 52 24 83 -1z
m487 -162 c40 -97 106 -232 132 -270 21 -29 25 -68 8 -68 -6 0 -13 9 -16 20
-6 23 -16 25 -44 10 -22 -12 -25 -30 -5 -30 8 0 16 -6 18 -12 8 -21 -2 -38
-22 -38 -25 0 -80 48 -80 69 0 9 -6 26 -14 36 -12 17 -14 16 -36 -13 -13 -18
-27 -32 -32 -32 -4 0 -8 21 -8 46 0 54 -14 51 -32 -8 -11 -39 -11 -42 16 -64
28 -25 70 -32 81 -14 12 20 26 9 23 -17 -4 -38 -62 -69 -143 -75 -80 -7 -90
-13 -70 -41 15 -22 21 -87 8 -87 -5 0 -18 16 -31 35 -22 34 -95 95 -115 95 -5
0 11 -22 36 -48 35 -38 44 -54 40 -74 -4 -21 2 -29 31 -47 19 -12 55 -50 78
-84 24 -33 63 -76 88 -95 59 -45 64 -63 13 -51 -21 5 -43 9 -50 9 -17 0 -33
-65 -33 -137 0 -35 -2 -63 -3 -63 -2 0 -22 18 -45 40 -38 36 -42 44 -42 88 l0
49 -108 105 c-59 58 -118 108 -130 112 -22 7 -102 -29 -102 -46 0 -10 98 -88
111 -88 15 0 10 23 -11 55 -27 41 -25 50 8 27 15 -11 38 -23 50 -27 18 -5 22
-12 18 -28 -2 -12 -8 -34 -11 -48 -9 -38 72 -136 117 -141 20 -2 34 -9 35 -18
9 -76 17 -92 68 -149 30 -34 55 -69 55 -77 0 -19 -58 -44 -102 -44 l-32 0 27
28 26 27 -31 48 c-43 67 -55 51 -41 -55 7 -46 19 -121 28 -168 17 -92 15 -128
-17 -249 -24 -91 -20 -121 23 -191 l33 -53 -17 -47 c-9 -26 -17 -52 -17 -56 0
-5 48 -9 106 -8 130 1 142 9 154 108 9 72 13 82 29 71 16 -9 13 -101 -5 -191
-9 -44 -17 -80 -18 -82 -7 -6 -304 -52 -343 -52 -35 0 -43 -3 -35 -12 5 -7 13
-28 17 -45 6 -31 5 -33 -22 -33 -15 0 -76 -11 -135 -24 -59 -13 -110 -21 -113
-18 -3 3 -5 18 -5 32 0 52 128 137 250 166 82 20 64 33 -21 15 -64 -14 -242
-80 -250 -94 -4 -5 -10 -47 -14 -93 -8 -101 -21 -118 -65 -85 l-30 21 3 -22
c1 -17 -4 -24 -22 -26 -24 -4 -24 -3 -18 55 10 94 34 163 61 173 22 8 23 12
15 52 -4 24 -9 75 -9 113 -1 39 -5 79 -9 90 -8 20 -9 15 -27 -137 -6 -56 -7
-58 -35 -58 -35 0 -36 9 -7 60 22 38 22 40 6 68 -12 20 -16 41 -12 68 5 37 4
38 -10 20 -12 -15 -16 -16 -16 -5 0 8 -5 92 -10 188 l-10 173 -41 45 -41 45 4
141 c4 126 8 153 37 242 80 244 234 476 372 561 l59 37 -25 28 c-26 32 -40 67
-30 77 3 3 31 6 60 6 44 -1 63 -7 95 -30 23 -16 51 -36 63 -44 l21 -15 -19 33
c-11 19 -39 45 -61 58 l-41 24 -8 83 c-4 45 -11 89 -16 98 -4 9 -28 25 -51 35
l-43 19 45 3 c36 3 48 -1 62 -18 19 -23 58 -139 58 -170 0 -53 48 -27 121 65
62 79 95 89 84 25 -8 -47 4 -52 39 -17 14 14 31 55 45 107 28 109 29 110 39
110 4 0 23 -37 41 -82z m-649 23 c0 -6 -4 -13 -10 -16 -5 -3 -10 1 -10 9 0 9
5 16 10 16 6 0 10 -4 10 -9z m1103 -264 c-7 -11 -23 12 -23 33 1 12 4 11 15
-4 8 -10 12 -23 8 -29z m1145 1 c-7 -19 -63 -22 -78 -4 -11 14 -7 16 35 16 33
0 45 -4 43 -12z m-2178 -28 c0 -5 -9 -10 -20 -10 -11 0 -20 5 -20 10 0 6 9 10
20 10 11 0 20 -4 20 -10z m2147 -28 c10 -6 9 -22 -3 -72 -21 -91 -34 -98 -34
-18 0 37 -4 70 -10 73 -5 3 -10 10 -10 16 0 11 40 12 57 1z m-59 -150 c5 -35
-15 -62 -48 -62 -37 0 -37 4 -3 52 28 41 46 45 51 10z m-2428 -11 c0 -5 -9
-19 -20 -32 l-21 -24 16 33 c15 31 25 41 25 23z m886 -85 c-1 -64 1 -74 18
-82 43 -19 29 -34 -31 -34 -99 0 -103 3 -103 71 0 58 1 60 42 89 66 48 75 43
74 -44z m-666 48 c0 -29 -43 -94 -62 -94 -21 0 -22 8 -7 47 20 53 69 86 69 47z
m2394 -12 c5 -9 -26 -142 -34 -142 -3 0 -20 9 -37 20 -35 21 -43 53 -22 91 15
30 80 51 93 31z m-645 -68 c10 -9 -70 -64 -94 -64 -8 0 14 41 33 63 13 15 44
16 61 1z m755 10 c29 -11 17 -24 -23 -24 -42 0 -64 15 -34 23 28 7 40 7 57 1z
m-902 -21 c9 -10 23 -35 31 -55 19 -47 46 -54 135 -40 36 6 68 10 70 7 2 -2
-12 -30 -30 -62 -35 -60 -53 -71 -139 -87 -30 -5 -43 -1 -78 25 l-43 31 4 87
c5 110 17 132 50 94z m-82 -36 c0 -23 -17 -47 -32 -47 -10 0 -11 54 -1 63 14
15 33 6 33 -16z m-162 -20 c33 -35 60 -105 77 -201 24 -140 16 -268 -18 -274
-27 -5 -37 39 -37 173 0 133 -1 137 -60 172 -55 32 -67 116 -20 140 33 17 33
17 58 -10z m886 9 c31 -13 94 -99 250 -344 26 -42 28 -43 50 -29 21 14 26 13
72 -24 27 -21 52 -39 55 -39 4 0 9 9 12 20 3 13 11 18 20 14 10 -3 18 2 22 15
9 30 29 26 130 -25 114 -59 165 -94 238 -163 51 -49 60 -53 68 -38 14 25 49
21 121 -13 34 -17 78 -33 96 -36 30 -6 32 -9 32 -48 0 -83 -14 -83 -125 9 -37
30 -77 55 -89 55 -32 -1 105 -128 187 -174 63 -36 86 -59 67 -71 -5 -3 -26 1
-46 10 -47 19 -54 12 -23 -23 110 -121 129 -146 129 -169 0 -24 -3 -22 -61 29
-153 135 -158 135 -39 -4 49 -57 84 -108 90 -130 6 -21 20 -42 30 -48 17 -9
20 -21 20 -78 0 -45 -5 -75 -15 -88 -15 -18 -16 -18 -40 11 -14 17 -43 64 -63
105 -47 92 -57 95 -180 46 -49 -20 -94 -36 -100 -36 -6 0 -22 14 -36 31 -26
31 -27 31 -47 13 -11 -10 -27 -33 -34 -51 -8 -18 -18 -33 -23 -33 -4 0 -29 14
-55 30 -41 26 -46 33 -37 49 5 11 22 29 36 40 31 24 24 41 -17 41 -38 0 -88
45 -190 172 -96 120 -109 145 -143 273 -18 68 -36 112 -56 137 -26 32 -30 45
-30 97 l0 60 -82 79 c-46 44 -113 105 -150 137 l-67 56 -55 -35 c-31 -20 -56
-40 -56 -46 0 -5 26 -10 58 -10 l57 -1 80 -95 c135 -161 159 -200 178 -289 20
-91 56 -336 57 -377 0 -34 -22 -37 -43 -5 l-15 22 -23 -21 c-28 -26 -92 -58
-132 -68 -19 -5 -27 -12 -23 -21 7 -20 -18 -42 -62 -55 -53 -14 -77 -12 -103
9 l-24 19 35 10 35 10 -44 1 c-40 1 -43 -1 -37 -21 5 -21 18 -103 31 -197 l4
-34 -29 28 c-17 16 -32 27 -34 24 -3 -2 2 -31 10 -64 20 -88 18 -151 -7 -192
-21 -33 -21 -35 -3 -32 10 2 27 21 37 41 l18 37 83 -86 82 -86 78 -3 c90 -3
89 5 -4 38 -57 20 -65 26 -68 51 l-3 28 70 -36 71 -35 10 22 c5 13 13 59 18
104 9 72 14 88 58 154 46 68 49 77 47 130 -1 32 -7 77 -12 101 -11 47 -5 85
31 198 l21 64 19 -36 c42 -83 33 -201 -43 -578 -21 -108 -39 -206 -39 -217 0
-11 12 -35 26 -52 40 -47 22 -56 -66 -36 -40 9 -81 16 -92 16 -35 0 -10 -16
45 -29 68 -15 95 -43 141 -142 40 -87 99 -280 94 -306 -7 -29 -108 76 -108
111 0 22 -4 27 -21 24 -17 -2 -25 6 -38 37 -26 65 -77 146 -124 200 l-44 49
-44 -17 c-49 -18 -109 -23 -109 -8 0 6 9 26 21 45 22 38 19 56 -12 56 -10 0
-19 5 -19 11 0 8 12 10 35 6 25 -4 35 -2 35 8 0 13 -70 76 -122 109 l-27 17
-38 -51 -38 -51 -7 32 c-11 57 -138 129 -138 79 0 -4 14 -13 30 -19 29 -10 45
-33 64 -98 6 -20 4 -23 -18 -23 -25 0 -26 -3 -26 -56 0 -63 -15 -69 -40 -16
-8 17 -18 32 -22 32 -10 0 -143 -160 -221 -265 -78 -105 -95 -140 -79 -165 11
-19 9 -19 -36 -14 -44 6 -46 5 -27 -9 16 -13 18 -19 9 -34 -19 -31 -74 -50
-212 -74 -187 -32 -208 -53 -78 -80 l61 -12 -48 -14 c-41 -12 -51 -20 -67 -56
-36 -78 -72 -172 -77 -199 -7 -35 -21 -36 -29 -2 -6 22 2 63 23 113 4 9 -8 6
-34 -9 -38 -21 -42 -21 -72 -6 -17 9 -31 19 -31 22 0 3 32 59 71 125 48 80 69
124 65 136 -6 14 -11 9 -25 -23 -10 -22 -46 -73 -81 -114 -34 -41 -68 -87 -76
-101 -15 -30 -46 -243 -38 -263 3 -8 16 -18 30 -24 14 -7 24 -20 24 -32 0 -29
-11 -25 -54 19 -32 32 -38 45 -34 70 3 22 0 31 -9 31 -44 0 -14 -79 60 -158
l55 -57 -11 -63 c-12 -74 -27 -88 -103 -98 -65 -9 -91 -23 -42 -24 60 0 135
20 154 41 13 15 21 52 31 146 7 69 16 129 19 132 8 9 44 -38 44 -58 0 -9 -12
-34 -27 -56 l-27 -39 24 -61 c12 -33 25 -77 28 -98 4 -33 0 -43 -29 -73 -26
-27 -33 -43 -37 -87 l-4 -55 -46 -6 c-24 -3 -75 -6 -112 -6 -66 0 -100 11
-230 73 -26 13 -100 144 -100 178 0 27 61 26 85 -1 18 -20 19 -20 32 17 7 21
13 39 13 39 0 1 -12 5 -27 9 -58 14 -66 38 -28 83 21 25 22 30 7 28 -25 -2
-27 36 -3 81 21 42 87 107 127 125 42 19 28 88 -33 163 -14 17 -71 77 -127
135 -199 206 -251 280 -263 378 l-5 47 87 64 c99 73 149 101 183 101 22 0 23
3 16 45 -8 56 4 58 44 8 63 -80 100 -164 116 -261 9 -58 26 -117 45 -155 51
-106 136 -242 153 -245 30 -6 84 56 128 145 30 62 58 103 95 139 51 48 53 53
60 117 7 62 9 66 34 69 23 3 35 22 103 158 43 85 83 177 90 203 12 46 11 55
-18 135 l-31 87 19 179 19 179 -37 71 c-21 39 -71 129 -111 200 -41 71 -72
135 -69 142 4 10 26 14 80 14 l75 0 42 -70 c23 -39 46 -73 51 -76 14 -9 22 4
11 18 -6 7 -14 28 -18 46 -5 24 -15 36 -38 46 l-32 14 28 11 c34 13 96 14 117
1 12 -8 12 -10 -2 -15 -14 -6 -11 -15 20 -65 29 -46 43 -59 67 -63 16 -2 36
-2 43 0 20 8 14 23 -10 23 -45 0 -68 36 -68 101 0 57 20 38 27 -25 3 -25 10
-46 15 -46 5 0 34 23 64 51 43 41 54 58 54 83 0 36 -14 64 -24 48 -3 -6 -15
-40 -26 -76 -24 -77 -42 -87 -34 -18 14 117 27 137 178 288 77 77 171 160 208
184 55 35 65 47 58 60 -13 25 -3 30 59 30 31 0 66 3 79 6 33 9 27 26 -8 20
-16 -3 -43 -9 -60 -12 -25 -5 -30 -2 -30 14 0 36 68 51 124 28z m-1044 -42
c16 -41 12 -95 -7 -110 -15 -11 -18 -30 -18 -131 0 -65 4 -128 8 -140 l8 -23
-122 0 -122 0 7 42 c10 64 39 121 105 208 33 44 70 102 83 130 25 55 44 63 58
24z m2132 -24 c-32 -27 -68 -31 -211 -28 -88 2 -126 7 -129 16 -3 9 31 12 145
13 81 0 157 4 168 9 37 16 52 11 27 -10z m346 -16 c-10 -10 -28 6 -28 24 0 15
1 15 17 -1 9 -9 14 -19 11 -23z m-3290 -147 c32 -31 40 -47 23 -47 -12 0 -101
80 -101 91 0 14 40 -9 78 -44z m1431 12 c19 -7 31 -18 31 -29 0 -27 -131 -145
-184 -165 -42 -16 -61 -35 -36 -35 16 0 12 -17 -12 -55 -24 -36 -45 -43 -79
-25 -29 16 -24 31 31 85 l49 48 3 76 3 75 55 17 c67 21 97 22 139 8z m756 -35
c13 -29 15 -42 6 -60 -6 -13 -16 -24 -24 -24 -18 0 -57 29 -57 43 0 17 38 77
49 77 5 0 16 -16 26 -36z m1211 -19 c19 -50 11 -72 -23 -61 -31 10 -56 80 -36
99 19 20 42 4 59 -38z m-2818 -1 c-7 -15 -15 -21 -21 -15 -5 5 -4 17 3 30 15
30 32 16 18 -15z m577 -34 c-16 -16 -31 -28 -33 -25 -9 9 29 55 45 55 13 0 10
-7 -12 -30z m2305 -78 c0 -23 -4 -32 -12 -30 -8 3 -14 27 -15 64 -2 58 -2 58
12 29 8 -16 14 -45 15 -63z m-329 58 l24 -19 -65 -1 -65 0 30 20 c37 25 47 25
76 0z m-2731 -30 c0 -10 -4 -22 -10 -25 -6 -4 -10 7 -10 25 0 18 4 29 10 25 6
-3 10 -15 10 -25z m2929 -22 c1 -10 -6 -18 -14 -18 -24 0 -18 -16 31 -76 25
-31 51 -74 58 -97 6 -22 17 -42 23 -44 12 -4 35 62 50 147 l9 45 16 -31 c10
-18 22 -78 28 -137 9 -88 24 -148 90 -350 l80 -245 0 -318 c0 -188 4 -313 9
-304 32 54 49 335 32 518 -12 130 -49 339 -82 460 -11 40 -19 79 -17 86 2 10
38 3 153 -30 233 -69 571 -161 787 -215 247 -62 363 -102 553 -191 536 -252
1019 -560 1270 -812 144 -144 238 -320 220 -414 -34 -187 -229 -317 -598 -401
-207 -47 -436 -78 -772 -105 -498 -41 -548 -46 -764 -76 -500 -70 -911 -160
-1466 -321 -93 -27 -175 -49 -182 -49 -25 0 -37 219 -20 363 6 46 5 67 -2 67
-6 0 -11 -17 -11 -37 0 -45 -9 -83 -20 -83 -10 0 -30 48 -30 74 0 13 16 43 35
67 19 24 35 50 35 56 0 7 10 15 23 17 358 73 573 150 742 266 133 92 186 171
204 304 21 152 10 252 -36 319 -14 20 -27 36 -29 34 -2 -1 4 -31 13 -65 16
-65 13 -83 -11 -63 -13 11 -24 34 -40 84 -5 16 -8 17 -35 2 -17 -8 -46 -15
-65 -15 -19 0 -38 -5 -41 -11 -14 -22 86 -99 128 -99 7 0 22 -6 32 -14 18 -13
18 -15 -2 -62 -12 -27 -27 -75 -33 -106 -11 -47 -17 -58 -38 -63 -14 -3 -29
-2 -35 4 -6 6 -16 61 -24 122 -13 112 -23 139 -49 139 -20 0 -17 -18 11 -74
26 -51 33 -96 15 -96 -5 0 -10 5 -10 11 0 12 -69 191 -77 199 -11 11 -75 -77
-85 -117 -8 -35 -16 -44 -37 -49 -60 -13 -91 -28 -225 -108 -78 -47 -151 -87
-163 -91 -20 -5 -23 -3 -23 19 0 28 -17 33 -51 16 -12 -7 -19 -21 -19 -40 0
-20 -8 -35 -23 -45 -27 -17 -136 -40 -145 -30 -4 4 12 24 36 45 23 21 39 41
35 43 -5 3 -42 1 -83 -4 -174 -21 -214 -22 -254 -5 -49 20 -53 20 -59 -4 -4
-17 -14 -20 -70 -20 -46 0 -70 5 -81 16 -25 24 -19 51 12 62 17 7 21 11 10 11
-27 1 -58 -35 -58 -66 0 -40 26 -155 56 -255 l27 -87 -17 -180 c-22 -224 -24
-235 -59 -239 -26 -3 -27 -1 -27 41 0 24 5 102 10 172 l11 128 -35 101 c-56
164 -69 223 -61 292 l6 62 -33 11 c-18 5 -112 17 -208 25 -203 18 -272 35
-312 78 -33 36 -39 32 -62 -38 -13 -40 -14 -57 -5 -83 l11 -32 82 8 c44 4 148
7 231 5 154 -3 165 -6 165 -46 0 -11 6 -27 14 -35 8 -9 16 -23 18 -31 2 -8 17
-21 33 -28 l30 -13 -22 -18 c-28 -23 -103 -37 -273 -51 -116 -10 -183 -20
-297 -47 -17 -4 -25 0 -31 18 -12 32 -22 -93 -23 -295 0 -89 -4 -215 -8 -280
-9 -132 -17 -146 -77 -146 -26 0 -34 5 -45 32 -11 26 -10 49 4 143 12 86 14
127 6 180 -10 72 -13 80 -32 80 -18 0 -19 34 -5 84 15 51 38 67 38 27 0 -14 4
-26 10 -26 6 0 9 48 8 123 l-2 122 66 200 c36 110 74 228 83 263 18 62 37 77
43 33 7 -46 94 -76 409 -141 189 -39 202 -40 387 -40 180 0 197 -2 264 -25 39
-14 83 -25 97 -25 22 0 24 3 15 20 -10 19 -9 19 31 5 63 -23 154 -19 221 9 99
41 248 144 248 172 0 8 8 14 17 14 20 0 131 70 138 88 3 8 -5 12 -21 12 -40 0
-23 24 22 31 80 11 100 39 111 157 5 57 8 62 29 62 23 0 24 -3 24 -69 0 -82
-1 -81 111 -81 92 0 96 6 54 85 -20 37 -25 57 -21 89 42 319 41 333 -8 506
-52 181 -59 201 -67 188 -11 -18 -19 7 -17 57 1 22 -8 92 -19 155 -12 63 -24
141 -28 174 l-7 58 -19 -31 c-10 -17 -26 -31 -34 -31 -8 0 -15 -8 -15 -17 0
-19 41 -175 106 -405 l44 -157 0 -203 c1 -132 6 -231 15 -283 8 -44 15 -84 15
-88 0 -5 -15 -7 -32 -5 -51 5 -58 31 -68 263 -8 178 -12 213 -34 272 -32 87
-125 376 -216 667 -79 250 -79 252 -8 240 31 -5 38 -2 49 18 12 22 12 22 20 3
4 -11 8 -28 8 -37z m-653 -9 c15 -62 7 -73 -48 -67 -47 5 -168 55 -168 69 0 5
17 13 38 19 20 5 44 15 52 20 8 6 37 9 64 8 l50 -3 12 -46z m-3376 12 c0 -5
-7 -14 -15 -21 -13 -10 -15 -9 -15 9 0 12 6 21 15 21 8 0 15 -4 15 -9z m1655
-21 c0 -21 -5 -26 -32 -28 -38 -4 -39 -1 -17 34 21 31 49 28 49 -6z m1926 -43
c-8 -8 -11 -7 -11 4 0 20 13 34 18 19 3 -7 -1 -17 -7 -23z m-2538 -2 c-2 -5
-25 -11 -53 -13 -40 -2 -50 0 -50 13 0 13 10 15 53 13 28 -2 51 -7 50 -13z
m2735 -2 c-10 -2 -28 -2 -40 0 -13 2 -5 4 17 4 22 1 32 -1 23 -4z m-138 -23
c18 -4 37 -28 66 -81 23 -41 39 -77 35 -82 -11 -12 -90 20 -156 63 -67 43
-115 66 -160 75 l-30 7 24 19 c22 18 34 19 110 13 47 -4 97 -10 111 -14z
m-1994 -25 c45 -108 -32 -107 -96 2 l-19 33 50 0 c48 0 51 -2 65 -35z m-456
-70 c18 -9 33 -29 41 -52 18 -53 16 -353 -5 -526 -9 -77 -16 -143 -16 -148 0
-5 -10 -9 -22 -9 -20 0 -20 -1 -3 -20 15 -17 16 -25 6 -67 -28 -111 -91 -208
-152 -233 -26 -11 -33 -11 -47 3 -14 15 -13 18 19 31 38 16 66 42 56 52 -3 4
-24 -1 -47 -10 -22 -9 -53 -16 -68 -16 -25 1 -62 20 -62 33 0 3 36 31 80 61
48 34 82 65 85 79 3 12 19 105 35 207 28 174 79 426 99 497 8 27 6 34 -18 57
-15 14 -30 26 -33 26 -3 0 -8 -42 -10 -92 -3 -74 -10 -105 -32 -155 -26 -58
-27 -63 -12 -85 21 -29 20 -49 -3 -123 -18 -57 -19 -58 -26 -31 -8 29 1 253
12 315 l6 34 -24 -16 c-31 -23 -39 -21 -39 6 0 32 29 72 43 58 19 -19 26 -12
43 47 28 99 38 106 94 77z m174 -18 c14 -18 37 -64 51 -101 24 -65 25 -69 8
-82 -26 -19 -44 -17 -50 6 -6 24 -12 24 -37 5 -11 -8 -26 -15 -34 -15 -12 0
-11 4 2 25 16 25 15 28 -29 110 l-47 85 56 0 c51 0 57 -3 80 -33z m2126 13 c0
-5 -4 -10 -10 -10 -5 0 -10 5 -10 10 0 6 5 10 10 10 6 0 10 -4 10 -10z m461
-60 c19 -35 27 -140 11 -140 -5 0 -14 11 -20 25 -13 27 -46 34 -55 11 -3 -8
-15 -19 -26 -25 -17 -10 -24 -4 -55 48 -48 78 -47 84 12 79 l47 -3 3 38 3 38
31 -18 c17 -10 39 -34 49 -53z m-3101 -76 c0 -24 -4 -45 -9 -48 -8 -5 -21 64
-21 108 1 21 1 21 15 2 8 -11 15 -39 15 -62z m-1398 51 c0 -5 -5 -11 -11 -13
-6 -2 -11 4 -11 13 0 9 5 15 11 13 6 -2 11 -8 11 -13z m4723 -65 c3 -5 1 -10
-4 -10 -6 0 -11 5 -11 10 0 6 2 10 4 10 3 0 8 -4 11 -10z m-3301 -80 c6 0 17
-4 25 -9 11 -7 9 -14 -9 -39 -23 -31 -23 -32 -13 -213 6 -100 8 -189 6 -199
-5 -19 -65 -36 -83 -25 -14 9 -12 55 2 55 6 0 20 -8 31 -17 20 -18 20 -17 13
31 -3 27 -6 120 -6 207 0 128 -3 159 -14 159 -20 0 -39 27 -32 46 5 12 14 15
37 10 18 -3 37 -6 43 -6z m136 -29 c0 -14 -18 -23 -30 -16 -6 4 -8 11 -5 16 8
12 35 12 35 0z m2960 -41 c0 -5 -15 -10 -34 -10 -19 0 -38 5 -41 10 -4 6 10
10 34 10 23 0 41 -4 41 -10z m-3003 -52 c25 -24 29 -38 11 -38 -14 0 -58 40
-58 52 0 15 23 8 47 -14z m383 -3 c0 -8 -4 -15 -10 -15 -5 0 -7 7 -4 15 4 8 8
15 10 15 2 0 4 -7 4 -15z m2632 -52 c14 -16 30 -41 35 -58 6 -19 17 -31 31
-33 26 -4 27 -10 7 -32 -14 -16 -14 -28 0 -121 9 -57 18 -114 20 -126 5 -23
-23 -60 -35 -46 -4 4 -15 58 -24 120 -12 87 -25 132 -56 201 -22 49 -40 97
-40 106 0 25 34 19 62 -11z m-3183 -60 c-1 -16 -4 -41 -8 -58 l-7 -30 -12 34
c-18 52 -16 81 8 81 15 0 20 -6 19 -27z m2201 -171 c0 -35 -5 -105 -11 -156
l-12 -92 67 -135 c104 -212 190 -292 328 -305 78 -8 70 3 -28 40 -102 38 -160
78 -193 133 -16 27 -39 60 -50 75 -27 34 -26 36 7 40 33 4 40 38 21 105 -10
38 -9 49 6 83 11 24 25 40 35 40 10 0 39 -25 65 -55 26 -31 60 -62 75 -70 45
-23 191 -18 415 14 110 16 203 26 207 23 5 -6 12 -107 9 -139 0 -6 -18 -14
-39 -18 -48 -8 -102 -40 -102 -60 0 -18 29 -34 67 -37 23 -2 47 13 116 70 47
40 89 77 92 82 3 6 22 10 40 10 29 0 36 -4 41 -25 13 -53 -19 -145 -51 -145
-11 0 -15 13 -16 53 0 38 -3 47 -9 32 -5 -11 -9 -35 -9 -54 -1 -32 -2 -33 -35
-29 -31 3 -33 2 -32 -25 1 -25 -8 -33 -104 -89 -58 -33 -143 -81 -190 -106
l-85 -45 -197 7 c-108 3 -204 3 -213 0 -20 -8 -19 -26 5 -57 24 -30 26 -47 6
-47 -8 0 -42 33 -75 74 l-61 74 0 69 c0 68 0 68 -56 138 -108 134 -115 180
-74 458 24 160 40 187 40 69z m-2020 59 c0 -25 -28 -53 -49 -49 -10 2 -17 15
-19 36 -3 31 -2 32 32 32 29 0 36 -4 36 -19z m540 10 c0 -18 -72 -72 -93 -69
-39 6 -29 28 25 53 58 27 68 29 68 16z m-1737 -113 c-13 -12 -25 -19 -29 -15
-10 10 16 37 34 37 13 0 12 -4 -5 -22z m-133 -65 c0 -28 -25 -63 -45 -63 -26
0 -33 67 -14 117 l11 28 24 -28 c13 -15 24 -40 24 -54z m3050 -113 c-20 -13
-33 -13 -25 0 3 6 14 10 23 10 15 0 15 -2 2 -10z m-3170 -27 c0 -16 -9 -46
-19 -68 l-19 -40 -1 48 c-1 49 12 87 29 87 6 0 10 -12 10 -27z m1350 -91 c31
-31 46 -86 36 -128 -10 -39 -25 -18 -33 44 -3 29 -9 52 -12 52 -3 0 -24 -14
-45 -30 -39 -29 -76 -39 -76 -21 0 14 30 41 46 41 7 0 17 12 20 28 13 52 23
55 64 14z m-1412 -82 c3 -72 -12 -118 -22 -69 -13 64 -16 100 -10 124 12 49
29 20 32 -55z m-60 -74 c-3 -100 -9 -128 -25 -112 -10 10 -16 139 -9 181 4 22
13 35 22 35 14 0 15 -15 12 -104z m1293 79 c45 -29 96 -102 105 -152 9 -46
-12 -66 -85 -81 -36 -8 -81 -27 -112 -48 l-53 -35 -18 23 c-9 13 -29 46 -44
73 -15 28 -47 80 -70 116 -58 87 -57 91 4 104 27 6 32 4 32 -13 0 -11 -7 -25
-15 -32 -22 -18 -19 -23 21 -45 19 -10 60 -45 89 -77 30 -32 58 -58 64 -58 5
0 12 13 16 29 4 20 14 31 32 35 21 6 24 11 19 32 -4 14 -18 43 -32 63 -22 33
-23 42 -13 65 7 14 14 26 16 26 2 0 22 -11 44 -25z m3219 -23 c0 -11 -22 -32
-32 -32 -5 0 -4 9 2 20 11 20 30 28 30 12z m-2920 -63 c10 -17 8 -21 -8 -26
-11 -2 -24 -15 -30 -29 -9 -18 -16 -22 -31 -16 -28 10 -28 13 -4 55 25 42 56
49 73 16z m-712 -39 c7 -11 8 -20 4 -20 -5 0 -17 9 -27 20 -14 15 -15 20 -4
20 8 0 20 -9 27 -20z m107 -39 c3 -6 -6 -16 -21 -24 l-26 -13 28 -33 28 -33
-20 -37 c-25 -47 -91 -81 -159 -81 l-50 0 -22 68 -22 67 36 33 c32 32 38 34
81 27 26 -3 54 -8 63 -11 13 -3 15 1 12 21 -3 13 -3 32 1 40 5 14 9 14 35 0
16 -8 32 -19 36 -24z m-375 -136 c0 -25 -4 -45 -10 -45 -5 0 -10 20 -10 45 0
25 5 45 10 45 6 0 10 -20 10 -45z m4060 5 c0 -5 -2 -10 -4 -10 -3 0 -8 5 -11
10 -3 6 -1 10 4 10 6 0 11 -4 11 -10z m-3570 -72 c8 -15 11 -30 6 -35 -8 -9
-86 70 -86 88 0 18 63 -24 80 -53z m3205 12 c3 -5 2 -10 -4 -10 -5 0 -13 5
-16 10 -3 6 -2 10 4 10 5 0 13 -4 16 -10z m-425 -58 c0 -14 -11 -21 -26 -15
-21 8 -17 23 6 23 11 0 20 -4 20 -8z m675 -3 c10 -15 -1 -23 -20 -15 -9 3 -13
10 -10 16 8 13 22 13 30 -1z m425 7 c0 -3 -4 -8 -10 -11 -5 -3 -10 -1 -10 4 0
6 5 11 10 11 6 0 10 -2 10 -4z m-1202 -73 c-2 -10 -12 -18 -23 -18 -11 0 -21
8 -23 18 -3 13 3 17 23 17 20 0 26 -4 23 -17z m1291 -51 c0 -31 -4 -66 -8 -77
-6 -15 -9 -11 -14 20 -9 51 -9 110 -1 118 15 15 24 -8 23 -61z m-4016 51 c2
-5 -6 -80 -18 -168 -13 -88 -21 -162 -19 -164 1 -2 17 2 35 8 35 12 49 8 49
-17 0 -10 -22 -28 -55 -46 -66 -34 -71 -42 -80 -121 -5 -53 -5 -58 8 -42 14
16 16 16 31 2 38 -38 8 -67 -72 -69 -52 -1 -57 1 -60 22 -3 19 -9 22 -47 22
-49 0 -55 -10 -55 -93 0 -44 5 -54 47 -102 26 -29 51 -51 56 -48 5 3 20 31 34
61 18 42 27 52 34 41 14 -23 10 -62 -11 -96 -22 -36 -41 -40 -84 -18 -15 8
-29 15 -31 15 -7 0 85 -174 96 -181 8 -5 30 -9 50 -9 33 0 37 4 52 40 20 51
68 81 122 78 39 -3 40 -4 52 -53 6 -27 12 -62 12 -77 1 -25 -2 -28 -33 -28
-18 0 -39 -7 -46 -15 -12 -14 -16 -13 -40 10 -35 34 -46 32 -20 -4 24 -34 59
-49 70 -31 11 18 27 5 52 -43 19 -35 22 -59 23 -149 0 -122 1 -121 -111 -206
-69 -51 -83 -76 -108 -186 -21 -91 -52 -142 -149 -243 -84 -88 -210 -188 -225
-179 -10 6 -9 14 24 231 30 195 93 525 104 544 5 10 10 1 15 -26 3 -23 13 -49
22 -60 14 -17 14 -17 8 2 -4 11 -14 47 -23 81 l-16 61 33 104 c50 160 47 147
22 125 -20 -18 -31 -48 -46 -118 -3 -16 -9 -28 -14 -28 -12 0 -18 29 -27 116
l-6 71 51 28 c52 29 53 45 3 45 -41 0 -57 17 -96 100 -31 65 -36 83 -26 95 10
12 8 18 -9 32 -18 15 -19 23 -12 56 8 35 0 50 -15 26 -24 -40 -32 119 -14 290
7 62 19 113 35 149 26 56 45 61 45 12 0 -46 17 -44 52 5 21 30 43 48 63 53 41
11 47 47 9 56 -38 10 -19 23 45 31 52 7 53 7 45 -16 -4 -13 -8 -35 -8 -49 -1
-22 3 -25 41 -28 35 -3 44 1 54 20 18 36 59 88 69 88 5 0 11 -3 13 -7z m-109
-39 c8 -20 -1 -34 -21 -34 -10 0 -13 6 -9 16 3 9 6 20 6 25 0 15 17 10 24 -7z
m171 -70 c14 -9 25 -25 25 -35 0 -15 -7 -19 -35 -19 -32 0 -35 3 -35 28 0 26
7 42 17 42 2 0 15 -7 28 -16z m113 -63 c2 -33 -9 -117 -28 -211 -17 -86 -34
-204 -38 -261 -8 -116 -14 -124 -70 -89 l-34 21 7 67 c13 127 53 319 97 465
17 59 23 68 42 65 18 -3 21 -11 24 -57z m-128 -56 c0 -14 -4 -25 -10 -25 -11
0 -14 33 -3 43 11 11 13 8 13 -18z m1540 -48 c0 -18 -2 -19 -10 -7 -13 20 -13
43 0 35 6 -3 10 -16 10 -28z m930 -122 c0 -25 -2 -45 -5 -45 -2 0 -12 11 -20
24 -14 20 -14 28 -3 45 20 32 28 25 28 -24z m-2076 -101 c13 -49 27 -99 31
-111 6 -20 4 -23 -18 -23 -32 0 -42 32 -53 160 -8 109 8 99 40 -26z m-110 80
c7 -18 -12 -152 -47 -328 -23 -117 -24 -119 -40 -95 -12 16 -17 44 -17 91 l0
68 -29 0 c-32 0 -46 13 -56 53 -6 21 -4 27 8 27 9 0 19 -9 22 -20 14 -44 20
-35 110 168 25 54 38 64 49 36z m1196 -80 c12 -21 12 -31 -1 -66 -22 -65 -34
-57 -31 22 2 38 7 70 11 70 4 0 14 -12 21 -26z m-229 -25 c17 -32 69 -201 69
-224 0 -13 -11 0 -29 32 -16 29 -43 70 -60 92 -31 39 -36 57 -25 99 8 28 30
28 45 1z m899 -91 c25 -41 26 -114 2 -183 l-17 -50 -74 -12 c-86 -14 -137 -44
-182 -106 -26 -35 -30 -49 -26 -84 2 -24 3 -43 1 -43 -3 0 -16 25 -30 55 -15
31 -32 54 -38 52 -6 -2 -19 -40 -29 -85 l-19 -82 -41 0 c-62 0 -88 10 -83 29
3 9 12 56 21 105 12 72 13 100 4 145 -12 55 -11 57 20 105 18 29 31 63 31 82
0 17 8 42 18 54 17 21 28 22 187 27 94 3 177 9 185 14 29 16 50 9 70 -23z
m-1400 -3 c0 -16 -6 -25 -15 -25 -15 0 -21 31 -8 43 13 14 23 6 23 -18z
m-1030 -21 c0 -13 -4 -24 -10 -24 -5 0 -10 14 -10 31 0 17 4 28 10 24 6 -3 10
-17 10 -31z m1471 -120 c26 -48 21 -63 -15 -46 -31 14 -51 53 -60 112 l-7 45
29 -34 c16 -19 40 -54 53 -77z m-804 79 c5 -14 -29 -26 -51 -17 -13 5 -14 9
-5 21 14 16 51 14 56 -4z m1003 -260 c0 -138 2 -155 44 -327 24 -99 47 -212
51 -251 3 -38 17 -104 30 -145 34 -110 40 -163 21 -179 -19 -16 -668 -353
-672 -349 -1 2 15 46 37 98 151 358 165 399 288 835 32 116 73 246 90 290 38
99 89 188 101 180 6 -4 10 -70 10 -152z m1508 -173 c4 -35 -47 -149 -89 -200
l-21 -25 6 25 c12 59 82 240 91 237 6 -2 11 -19 13 -37z m-205 -363 c18 -18
27 -36 27 -57 0 -18 -4 -29 -10 -25 -9 5 -70 92 -95 134 -10 17 37 -15 78 -52z
m-283 31 c22 -23 28 -96 10 -114 -7 -7 -7 -35 0 -84 12 -98 12 -150 0 -150 -5
0 -10 6 -10 14 0 24 -29 41 -49 29 -15 -9 -17 -7 -13 17 3 21 -1 28 -18 33
-19 5 -21 11 -18 73 3 59 6 70 25 79 l22 11 -21 13 c-30 19 -7 39 27 23 27
-12 27 -10 8 61 -6 24 12 21 37 -5z m-585 -1 c11 -9 14 -16 7 -21 -15 -9 -42
4 -42 20 0 18 11 18 35 1z m-133 -38 c58 -14 74 -30 58 -58 -11 -21 -29 -34
-75 -51 -24 -9 -27 -7 -45 33 -26 55 -27 100 -2 93 9 -3 38 -10 64 -17z m207
-215 c125 -42 166 -82 130 -128 -24 -31 -45 -33 -52 -7 -2 11 -23 29 -45 40
-22 11 -42 27 -45 36 -9 22 -24 18 -31 -8 -3 -13 -15 -36 -27 -51 -21 -27 -22
-27 -108 -20 -47 4 -96 11 -109 15 -38 14 -23 47 47 107 63 54 64 54 115 47
28 -3 84 -17 125 -31z m345 -36 c12 -46 6 -53 -19 -23 -30 36 -31 45 -6 45 11
0 21 -9 25 -22z m680 -3 c-4 -8 -8 -15 -10 -15 -2 0 -4 7 -4 15 0 8 4 15 10
15 5 0 7 -7 4 -15z m-459 -197 c20 -92 26 -133 32 -237 6 -115 5 -119 -15
-125 -22 -7 -22 -7 -3 -44 30 -60 34 -97 32 -284 -1 -156 1 -190 24 -295 14
-65 33 -163 41 -218 16 -112 31 -453 20 -481 -12 -32 -36 7 -46 76 -7 47 -20
81 -54 136 -46 74 -66 128 -66 177 0 29 -25 38 -47 16 -8 -8 -51 -129 -70
-199 -4 -13 -6 -12 -14 3 -6 9 -19 17 -29 17 -23 0 -24 -4 -10 -31 12 -22 7
-24 -21 -9 -16 9 -19 7 -19 -10 0 -11 -5 -20 -11 -20 -20 0 -3 -88 25 -130 35
-53 33 -63 -10 -42 -36 17 -37 17 -53 -7 -9 -13 -23 -45 -31 -70 -19 -59 -44
-62 -48 -7 -5 56 14 192 45 320 23 100 24 110 9 118 -11 6 -15 16 -10 30 5 17
3 20 -11 14 -21 -7 -104 30 -106 47 -1 7 -1 17 0 24 1 7 -7 17 -18 22 -13 7
-24 34 -36 83 -10 40 -26 95 -37 122 -18 46 -18 50 -2 67 16 18 16 23 1 88
-22 90 -21 138 3 186 11 21 19 39 17 40 -1 0 -15 5 -31 10 -33 11 -39 22 -54
85 -8 33 -7 47 1 52 7 4 2 14 -16 28 -32 25 -68 92 -90 167 -15 51 -15 52 9
68 13 8 24 24 24 35 0 13 14 27 39 39 l39 20 71 -114 c90 -144 92 -149 58
-143 -27 5 -36 -5 -17 -17 17 -10 11 -25 -10 -25 -24 0 -24 -1 -7 -43 17 -40
37 -57 81 -67 97 -22 315 79 299 139 -12 45 -40 61 -108 61 l-65 0 -81 73
c-44 39 -97 83 -118 97 -52 35 -52 43 -3 52 41 7 47 4 110 -41 93 -67 109 -74
152 -67 46 7 135 44 127 52 -3 4 -21 9 -39 13 -31 7 -33 10 -31 46 3 45 9 53
25 37 19 -19 61 -14 93 13 22 18 26 24 13 25 -21 0 -50 28 -43 41 4 5 24 9 45
9 33 0 40 -4 45 -22z m-555 -7 c0 -19 -22 -23 -38 -7 -15 15 -14 16 11 16 15
0 27 -4 27 -9z m-196 -123 c11 -42 7 -55 -9 -34 -16 22 -20 56 -6 56 5 0 11
-10 15 -22z m-1809 -89 c45 -21 88 -39 96 -39 21 0 39 -20 39 -44 0 -18 1 -18
18 -3 27 24 35 21 27 -10 -7 -30 -23 -53 -35 -53 -4 0 -31 16 -59 35 -28 19
-54 35 -58 35 -4 0 -17 -10 -30 -22 -18 -17 -41 -23 -115 -29 -51 -4 -101 -10
-110 -14 -12 -5 -20 -2 -24 8 -5 13 -16 11 -69 -15 -35 -16 -74 -28 -87 -26
-25 3 -26 8 -13 116 9 72 5 71 127 43 93 -22 290 -53 296 -47 2 3 -6 18 -18
34 -17 23 -32 31 -71 35 -62 8 -74 14 -58 34 16 19 43 12 144 -38z m296 -2
c-8 -8 -11 -7 -11 4 0 20 13 34 18 19 3 -7 -1 -17 -7 -23z m2400 -18 c16 -8
18 -13 8 -25 -13 -16 -65 -19 -74 -4 -20 32 25 52 66 29z m-481 -129 c0 -5 -4
-10 -10 -10 -5 0 -10 5 -10 10 0 6 5 10 10 10 6 0 10 -4 10 -10z m-2570 -102
l85 -43 113 1 c157 2 144 -17 -23 -33 -150 -14 -202 -30 -261 -78 -39 -32 -44
-34 -44 -16 0 41 18 69 47 73 l28 4 -29 12 c-25 11 -28 16 -22 43 3 18 6 42 6
55 0 13 3 24 7 24 4 0 46 -19 93 -42z m3090 33 c0 -11 -39 -25 -47 -18 -3 3
-2 10 2 16 8 13 45 15 45 2z m-2440 -59 c0 -17 -38 -62 -52 -62 -14 0 -9 44 7
67 17 24 45 21 45 -5z m1599 -58 c12 -16 21 -41 21 -62 0 -45 -12 -34 -39 36
-22 56 -15 68 18 26z m-2031 -80 c36 -10 22 -23 -67 -58 -45 -19 -96 -47 -113
-62 -30 -30 -63 -82 -55 -90 2 -3 33 16 68 41 84 59 143 89 162 82 17 -6 33
-69 22 -87 -9 -15 -25 -2 -25 21 0 38 -17 18 -30 -36 -15 -61 -28 -78 -37 -46
-7 27 -12 26 -54 -5 -19 -14 -61 -39 -94 -56 -108 -54 -113 -64 -124 -227 l-6
-94 -37 -13 c-29 -10 -38 -10 -39 -1 -5 75 16 287 43 434 l11 62 66 20 c36 11
104 43 151 70 83 49 112 57 158 45z m281 -75 c6 -27 11 -65 11 -83 0 -31 -5
-35 -64 -65 -35 -17 -66 -31 -69 -31 -3 0 12 35 34 78 22 42 45 96 50 119 6
24 15 41 19 38 5 -3 13 -28 19 -56z m101 -169 c0 -5 -4 -10 -10 -10 -5 0 -10
5 -10 10 0 6 5 10 10 10 6 0 10 -4 10 -10z m2585 -96 c9 -48 2 -52 -26 -12
-12 18 -35 48 -51 66 -41 48 -24 58 27 17 31 -26 45 -46 50 -71z m-3058 65 c6
-6 9 -26 6 -45 -3 -19 0 -62 6 -95 12 -58 11 -64 -8 -90 -20 -27 -21 -31 -6
-59 15 -28 14 -32 -1 -47 -14 -15 -16 -31 -10 -115 6 -93 5 -98 -16 -113 -16
-12 -19 -19 -10 -22 25 -10 73 -56 89 -86 15 -31 15 -31 -21 -60 -46 -37 -45
-54 1 -74 l38 -15 -25 -21 c-36 -30 -177 -94 -245 -112 -74 -19 -179 -21 -173
-3 12 35 161 78 268 78 49 0 66 12 34 24 -9 4 -61 11 -116 18 l-99 11 3 91 c3
85 4 91 25 94 26 4 27 5 53 158 11 66 25 135 31 152 10 28 7 38 -21 88 l-32
57 26 -7 c24 -6 25 -5 16 20 -6 14 -10 29 -10 34 0 9 170 150 180 150 3 0 11
-5 17 -11z m453 -258 c0 -45 -6 -37 -14 19 -4 31 -3 40 4 30 5 -8 10 -30 10
-49z m2601 -34 c-13 -13 -15 11 -4 40 7 16 8 15 11 -6 2 -13 -1 -28 -7 -34z
m-796 -27 c3 -5 2 -10 -4 -10 -5 0 -13 5 -16 10 -3 6 -2 10 4 10 5 0 13 -4 16
-10z m845 -41 c0 -10 -4 -19 -10 -19 -5 0 -10 12 -10 26 0 14 4 23 10 19 6 -3
10 -15 10 -26z m-2740 -177 l0 -157 38 -20 c43 -23 84 -98 86 -155 1 -31 -2
-35 -26 -38 -23 -3 -29 -11 -43 -55 -25 -77 -86 -205 -100 -211 -18 -7 -67
108 -100 234 -21 82 -28 137 -32 251 -7 173 -1 216 30 229 12 5 47 26 77 48
30 22 58 37 63 35 4 -2 7 -75 7 -161z m1976 88 c-7 -62 -12 -77 -22 -69 -13
10 -17 27 -29 107 l-7 42 34 0 33 0 -9 -80z m-1846 60 c0 -5 -7 -10 -15 -10
-8 0 -15 5 -15 10 0 6 7 10 15 10 8 0 15 -4 15 -10z m-750 -19 c0 -24 -15 -35
-36 -27 -12 4 -13 10 -4 26 14 26 40 26 40 1z m4 -107 c21 -8 20 -33 -1 -56
-25 -27 -33 -22 -33 22 0 40 5 45 34 34z m710 -46 c4 -17 2 -28 -4 -28 -5 0
-10 14 -10 32 0 36 4 35 14 -4z m16 -89 c0 -5 -4 -9 -10 -9 -5 0 -10 7 -10 16
0 8 5 12 10 9 6 -3 10 -10 10 -16z m480 -60 c0 -12 -27 -11 -35 1 -11 17 5 32
21 19 8 -6 14 -15 14 -20z m1689 -64 c30 -79 35 -105 22 -105 -35 0 -90 105
-75 144 12 31 33 16 53 -39z m51 45 c0 -5 -4 -10 -10 -10 -5 0 -10 5 -10 10 0
6 5 10 10 10 6 0 10 -4 10 -10z m-1689 -63 c-13 -13 -31 1 -31 25 0 21 1 21
20 3 13 -12 17 -22 11 -28z m-388 -36 c29 -26 34 -27 43 -14 7 11 32 17 88 21
92 6 93 0 8 -55 -61 -39 -221 -123 -234 -123 -4 0 -8 6 -8 14 0 7 24 22 52 32
66 24 72 45 18 69 -53 24 -64 38 -50 64 15 29 43 26 83 -8z m2291 -20 c3 -5
-1 -11 -9 -15 -9 -3 -15 0 -15 9 0 16 16 20 24 6z m-306 -49 c17 -26 40 -56
51 -66 19 -17 19 -20 4 -60 -17 -45 -62 -108 -141 -201 -60 -70 -106 -151
-122 -217 -20 -77 -32 -57 -28 45 l3 92 49 69 c51 70 74 130 116 294 13 50 27
92 30 92 4 0 21 -22 38 -48z m107 -12 c-3 -5 -13 -10 -21 -10 -8 0 -14 5 -14
10 0 6 9 10 21 10 11 0 17 -4 14 -10z m-1661 -35 c33 -31 33 -57 -3 -114 -46
-74 -47 -87 -10 -138 18 -25 33 -60 34 -77 2 -37 18 -46 25 -15 5 22 6 22 30
-7 14 -16 33 -48 44 -71 23 -52 65 -71 191 -85 50 -5 97 -14 105 -19 43 -27
93 -43 165 -53 l80 -11 -35 -22 c-52 -32 -128 -63 -156 -63 -13 0 -34 -11 -46
-25 -30 -35 -72 -38 -334 -25 -169 8 -250 8 -300 0 -68 -11 -69 -11 -92 16
-13 14 -21 33 -18 40 3 8 1 14 -4 14 -16 0 -12 -34 10 -82 18 -42 18 -47 4
-103 -9 -33 -20 -67 -25 -76 -10 -20 -81 -39 -144 -39 -42 0 -47 3 -67 36 -18
30 -25 35 -48 31 -140 -29 -279 -39 -470 -34 -223 4 -276 15 -321 63 -21 23
-24 35 -23 102 1 43 13 145 28 227 36 208 35 205 51 199 7 -3 24 5 37 18 l23
23 -40 3 c-48 4 -65 17 -65 48 0 27 -7 32 -68 47 -36 9 -47 17 -47 32 0 24 31
32 121 34 78 1 210 39 338 96 63 29 103 42 110 36 6 -5 25 -35 41 -67 17 -31
41 -68 55 -83 22 -22 23 -26 8 -29 -30 -6 52 -122 86 -122 3 0 6 11 6 24 0 23
2 24 62 19 64 -6 77 9 17 21 l-31 6 19 31 c39 68 94 88 239 89 79 0 93 -3 109
-20 14 -16 16 -23 7 -32 -9 -9 -29 -9 -85 1 -39 7 -93 15 -119 18 -47 5 -48 5
-48 -23 0 -16 10 -45 21 -64 19 -30 23 -32 33 -18 10 14 15 13 46 -12 30 -25
33 -30 17 -35 -9 -4 -32 -4 -50 -1 -72 15 -72 15 -77 -35 -3 -26 -17 -64 -33
-87 -32 -49 -33 -56 -7 -40 32 20 39 0 28 -75 -9 -57 -8 -71 6 -92 9 -14 25
-25 36 -25 24 0 25 15 9 126 -15 112 -13 116 78 149 139 50 180 72 243 130 34
31 82 66 107 77 42 19 45 22 39 51 -3 17 -9 55 -13 84 -6 51 -5 53 19 53 14 0
37 -11 52 -25z m-565 -29 c8 -10 8 -16 -2 -24 -15 -13 -37 2 -37 25 0 17 25
17 39 -1z m2405 -163 c-4 -16 -16 -48 -28 -73 -24 -51 -86 -90 -143 -90 l-33
0 16 -26 c15 -22 15 -27 3 -35 -29 -18 -99 -3 -99 22 0 6 42 30 93 53 99 46
110 56 152 129 30 52 49 62 39 20z m-1589 -168 c32 -42 66 -80 76 -86 19 -10
26 -39 10 -39 -14 0 -102 72 -143 118 -37 41 -45 61 -31 75 16 16 34 2 88 -68z
m1695 -9 c0 -8 -25 -42 -56 -75 -46 -50 -66 -64 -112 -77 -51 -15 -54 -18 -37
-30 10 -8 35 -14 54 -14 20 0 42 -4 50 -9 20 -13 -31 -25 -212 -51 -157 -22
-177 -27 -177 -40 0 -20 77 -32 165 -28 71 4 105 11 150 32 31 14 71 26 87 26
32 0 78 -21 97 -44 17 -20 28 -13 46 31 15 36 37 40 43 9 5 -23 -27 -57 -107
-114 -67 -48 -61 -47 -133 -17 -13 5 -18 3 -18 -8 0 -26 27 -40 66 -32 54 10
33 -9 -33 -31 -47 -15 -89 -18 -218 -18 -187 0 -209 6 -224 61 -13 46 -14 133
-2 152 15 23 28 5 46 -64 l18 -65 61 1 c77 1 110 10 114 32 3 15 -7 17 -77 17
-92 0 -86 -5 -116 103 -16 58 -23 65 -42 46 -9 -9 -14 -5 -19 15 -5 21 1 35
31 72 51 62 78 74 108 47 41 -38 66 -45 126 -38 71 8 180 40 206 59 18 14 13
15 -65 16 -102 0 -92 19 10 21 36 0 83 6 105 14 54 17 65 18 65 1z m-1467
-163 c-7 -2 -19 -2 -25 0 -7 3 -2 5 12 5 14 0 19 -2 13 -5z m872 -163 c11 -18
-15 -50 -40 -50 -23 0 -22 -3 20 -45 25 -24 45 -52 44 -62 0 -11 -3 -13 -6 -5
-3 7 -26 12 -63 12 -49 0 -58 3 -63 20 -3 12 -14 20 -26 20 -20 0 -20 0 -3 47
11 30 27 52 42 60 30 15 86 17 95 3z"/>
<path d="M10533 9780 c-13 -5 -23 -11 -23 -12 0 -2 26 -4 57 -4 51 -2 55 0 38
12 -21 16 -40 17 -72 4z"/>
<path d="M10591 9674 c19 -14 57 -37 84 -50 l50 -25 -52 50 c-41 40 -58 51
-84 51 l-33 0 35 -26z"/>
<path d="M10400 9671 c0 -10 24 -21 43 -21 7 0 3 7 -7 15 -22 17 -36 19 -36 6z"/>
<path d="M10750 9532 c0 -10 80 -72 93 -72 18 0 -1 26 -39 52 -41 28 -54 33
-54 20z"/>
<path d="M10280 9450 c-75 -99 -86 -118 -76 -127 16 -16 140 152 134 183 -2
12 -20 -5 -58 -56z"/>
<path d="M10390 9435 c0 -19 5 -25 23 -25 45 0 51 -12 58 -137 5 -79 18 -167
42 -268 58 -246 69 -343 58 -507 -7 -97 -7 -155 0 -190 11 -48 11 -49 42 -43
80 16 95 25 101 60 7 35 -10 204 -24 239 -10 26 -38 52 -67 60 -17 6 -23 15
-23 37 0 28 2 29 46 29 l46 0 -7 33 c-20 97 -24 105 -59 111 -37 7 -72 39 -61
55 9 16 37 13 64 -6 l24 -16 -6 74 c-3 41 -10 87 -16 102 -9 24 -14 26 -31 17
-35 -19 -60 -3 -60 36 0 32 2 34 25 28 57 -14 76 57 27 104 -15 15 -42 35 -60
44 -20 11 -32 25 -32 38 0 31 23 24 81 -24 93 -77 68 -38 -44 70 -111 107
-147 126 -147 79z m264 -976 c32 -15 39 -34 18 -52 -46 -39 -87 -23 -76 31 7
34 19 39 58 21z"/>
<path d="M10320 9394 c0 -29 16 -64 30 -64 14 0 12 34 -2 65 -15 32 -28 32
-28 -1z"/>
<path d="M10326 9264 c-3 -26 -6 -128 -6 -228 0 -189 15 -345 51 -519 l20 -97
-21 -30 c-18 -25 -20 -38 -14 -93 4 -36 10 -70 13 -76 5 -7 26 -1 64 20 l57
31 0 111 c0 62 -5 179 -10 260 -9 161 -21 197 -64 197 -28 0 -51 24 -42 45 4
10 14 13 36 9 l30 -6 0 52 c0 29 -8 94 -17 143 -16 83 -20 91 -46 101 -43 17
-31 41 21 39 23 -1 42 0 42 2 0 3 -16 11 -35 19 -22 10 -37 24 -41 40 -10 42
-31 31 -38 -20z m59 -158 c8 -49 -10 -100 -26 -75 -10 16 -12 103 -2 112 14
15 22 5 28 -37z m45 -436 c11 -11 20 -26 20 -33 0 -19 -29 -57 -44 -57 -12 0
-26 48 -26 93 0 23 25 22 50 -3z m13 -161 c7 -25 -2 -197 -11 -219 -7 -19 -19
81 -21 173 -1 51 2 67 13 67 7 0 16 -9 19 -21z"/>
<path d="M10140 9108 c0 -114 4 -189 10 -193 13 -8 13 345 0 365 -6 10 -10
-48 -10 -172z"/>
<path d="M10223 9250 c-19 -57 -26 -107 -14 -114 14 -9 33 61 29 109 l-3 40
-12 -35z"/>
<path d="M10205 9049 c-3 -14 -5 -50 -3 -80 2 -40 7 -54 18 -54 11 0 15 12 15
45 0 25 3 50 7 56 5 7 -1 23 -11 35 l-19 24 -7 -26z"/>
<path d="M10232 8835 c-30 -38 -37 -96 -17 -139 10 -20 21 -36 25 -36 7 0 24
190 16 197 -2 2 -13 -8 -24 -22z"/>
<path d="M10238 8594 c-5 -4 -8 -28 -8 -53 1 -36 3 -42 11 -28 11 19 8 93 -3
81z"/>
<path d="M13180 9150 c0 -22 47 -73 115 -124 152 -113 215 -155 220 -145 4 5
-22 38 -57 72 -101 99 -278 225 -278 197z"/>
<path d="M11637 8898 c13 -51 33 -106 45 -123 13 -16 37 -52 55 -79 41 -60 44
-37 8 70 -40 119 -99 224 -125 224 -4 0 3 -42 17 -92z"/>
<path d="M13351 8858 c18 -34 140 -158 170 -174 23 -11 29 -11 39 1 9 11 7 16
-11 26 -12 6 -60 47 -106 90 -85 80 -114 98 -92 57z"/>
<path d="M11786 8841 c-9 -14 20 -111 38 -129 16 -16 18 -16 32 3 26 35 2 100
-48 126 -9 5 -19 5 -22 0z"/>
<path d="M12422 8828 c5 -15 48 -24 48 -10 0 10 -23 22 -42 22 -5 0 -8 -6 -6
-12z"/>
<path d="M12600 8746 c0 -8 5 -18 10 -21 6 -3 10 3 10 14 0 12 -4 21 -10 21
-5 0 -10 -6 -10 -14z"/>
<path d="M12509 8721 c-27 -22 -21 -36 10 -26 12 3 21 15 21 26 0 24 -2 24
-31 0z"/>
<path d="M11775 8579 c-4 -6 -5 -13 -2 -16 7 -7 27 6 27 18 0 12 -17 12 -25
-2z"/>
<path d="M12126 8475 c16 -25 34 -33 34 -17 0 10 -33 42 -44 42 -3 0 1 -11 10
-25z"/>
<path d="M11818 8414 c-34 -18 -36 -34 -5 -34 25 0 47 17 47 37 0 16 -8 16
-42 -3z"/>
<path d="M12020 8041 c0 -27 70 -41 89 -17 9 10 6 13 -16 12 -16 0 -38 3 -50
7 -14 5 -23 4 -23 -2z"/>
<path d="M11926 7967 c-4 -17 -17 -27 -46 -36 -34 -10 -48 -23 -84 -80 -24
-38 -58 -78 -74 -90 -29 -20 -50 -57 -39 -68 3 -2 19 5 35 17 31 23 52 20 52
-7 0 -9 -21 -55 -46 -101 -89 -165 -106 -181 -157 -148 -21 14 -24 12 -55 -24
-31 -37 -31 -40 -13 -50 11 -5 44 -10 74 -10 l55 0 100 100 c108 108 112 116
202 371 16 46 35 85 42 85 7 1 16 2 21 3 4 0 1 15 -8 31 -19 36 -50 40 -59 7z
m-90 -173 c-4 -9 -9 -15 -11 -12 -3 3 -3 13 1 22 4 9 9 15 11 12 3 -3 3 -13
-1 -22z"/>
<path d="M12851 7684 c0 -11 3 -14 6 -6 3 7 2 16 -1 19 -3 4 -6 -2 -5 -13z"/>
<path d="M11550 7540 c0 -5 5 -10 10 -10 6 0 10 5 10 10 0 6 -4 10 -10 10 -5
0 -10 -4 -10 -10z"/>
<path d="M10983 6808 c-27 -30 -46 -68 -38 -76 7 -7 31 22 59 70 20 34 8 37
-21 6z"/>
<path d="M13649 7918 c-60 -27 -69 -36 -90 -79 -12 -27 -24 -49 -26 -49 -3 0
-23 13 -46 28 -51 34 -101 56 -119 50 -7 -3 22 -28 64 -56 l77 -52 118 41
c148 51 214 79 208 89 -2 4 -23 10 -45 14 -24 4 -45 14 -52 26 -15 24 -8 25
-89 -12z"/>
<path d="M13120 7750 c0 -15 48 -58 72 -66 36 -11 33 8 -7 42 -40 34 -65 43
-65 24z"/>
<path d="M10311 7364 c-27 -35 -26 -67 4 -132 29 -63 31 -85 9 -103 -18 -14
-54 -82 -54 -100 0 -19 50 32 70 71 10 20 23 62 29 95 28 153 -2 240 -58 169z"/>
<path d="M10190 7274 c-6 -58 -10 -107 -8 -109 2 -3 14 2 26 11 19 13 22 24
22 94 0 147 -22 150 -40 4z"/>
<path d="M10082 7236 c-28 -48 -30 -57 -21 -97 7 -31 7 -56 -2 -87 -14 -50 1
-80 21 -43 34 65 64 261 41 275 -5 3 -23 -18 -39 -48z"/>
<path d="M10157 7092 c-24 -27 -22 -132 3 -132 4 0 4 16 0 35 -6 26 -4 37 9
50 10 8 22 15 28 15 20 0 34 25 21 38 -17 17 -42 15 -61 -6z"/>
<path d="M10225 6320 c-20 -39 -19 -41 9 -28 19 8 34 7 66 -6 40 -16 41 -16
30 3 -13 25 -58 61 -76 61 -7 0 -20 -13 -29 -30z"/>
<path d="M10242 5998 c-11 -40 -37 -125 -57 -188 -41 -127 -61 -281 -30 -227
9 16 22 58 30 94 16 75 19 80 40 63 13 -11 15 -8 15 23 0 22 10 51 25 73 28
42 30 56 13 118 -11 40 -10 47 6 65 15 17 16 23 6 36 -7 8 -16 15 -20 15 -4 0
-16 -33 -28 -72z"/>
<path d="M10173 6005 c0 -27 2 -38 4 -22 2 15 2 37 0 50 -2 12 -4 0 -4 -28z"/>
<path d="M12880 5330 c11 -20 50 -28 50 -10 0 10 -32 30 -50 30 -8 0 -8 -6 0
-20z"/>
<path d="M12740 4931 c-23 -43 0 -111 33 -98 9 3 25 24 37 46 l20 40 -29 16
c-39 20 -48 19 -61 -4z"/>
<path d="M12551 4753 c0 -10 10 -47 22 -83 16 -46 28 -66 41 -68 18 -4 18 -2
-2 33 -24 39 -29 75 -11 75 6 0 20 -5 32 -10 12 -6 2 7 -23 29 -50 45 -60 49
-59 24z"/>
<path d="M12680 4619 c0 -10 59 -59 71 -59 11 0 12 30 1 46 -8 13 -72 24 -72
13z"/>
<path d="M12918 4610 c-3 -8 -9 -42 -12 -74 -4 -33 -9 -62 -12 -65 -2 -3 -18
3 -33 12 -16 9 -33 17 -39 17 -13 0 -86 -140 -77 -148 3 -4 19 1 35 10 31 18
47 13 29 -9 -9 -10 -6 -13 14 -13 17 0 27 -7 31 -22 7 -22 7 -22 16 -3 4 11
11 29 14 39 6 18 7 18 19 2 12 -16 14 -16 31 3 10 11 16 24 13 28 -3 5 -1 29
5 53 9 36 9 45 -5 55 -11 8 -17 31 -19 71 -2 32 -6 52 -10 44z"/>
<path d="M9952 4715 c-24 -30 -28 -45 -12 -45 6 0 10 4 10 9 0 5 11 13 25 18
23 7 24 10 12 27 -13 18 -15 17 -35 -9z"/>
<path d="M10073 3893 c9 -2 23 -2 30 0 6 3 -1 5 -18 5 -16 0 -22 -2 -12 -5z"/>
<path d="M10192 3674 c-26 -18 -20 -39 7 -24 19 10 36 40 23 40 -4 0 -18 -7
-30 -16z"/>
<path d="M10346 3523 c8 -60 10 -62 25 -29 9 20 9 32 1 51 -20 43 -34 30 -26
-22z"/>
<path d="M11137 3533 c-4 -3 -7 -15 -7 -25 0 -13 7 -18 25 -18 20 0 25 5 25
25 0 18 -5 25 -18 25 -10 0 -22 -3 -25 -7z"/>
<path d="M10228 3487 c-44 -26 -48 -37 -14 -37 14 0 28 -6 33 -12 10 -16 44
-111 40 -114 -9 -8 -67 11 -67 22 0 17 -8 17 -38 1 -22 -13 -22 -14 -5 -29 24
-22 131 -78 149 -78 21 0 17 41 -11 122 -27 76 -31 113 -15 123 14 9 2 25 -18
25 -9 -1 -34 -11 -54 -23z"/>
<path d="M10390 3435 c0 -27 9 -32 28 -13 8 8 9 15 1 25 -17 20 -29 15 -29
-12z"/>
<path d="M9978 3398 c-33 -44 -48 -73 -48 -94 0 -15 5 -13 29 10 40 39 68 93
55 106 -8 8 -18 1 -36 -22z"/>
<path d="M10460 3396 c0 -3 9 -42 19 -88 23 -100 33 -168 25 -168 -3 0 -20 11
-37 24 -41 30 -62 37 -75 24 -7 -7 -18 -4 -35 7 -28 18 -82 17 -82 -2 0 -18
96 -86 178 -127 113 -55 287 -96 287 -67 0 5 -30 33 -66 62 -37 29 -75 67 -85
83 -14 24 -19 26 -19 12 0 -10 16 -41 36 -68 19 -28 33 -52 31 -54 -6 -7 -97
16 -129 33 -34 17 -35 23 -3 53 22 21 25 31 25 99 0 59 -6 87 -25 129 -13 28
-29 52 -35 52 -5 0 -10 -2 -10 -4z"/>
<path d="M11122 3388 c-7 -7 -56 -35 -109 -63 -54 -27 -99 -55 -100 -61 -7
-22 81 -139 117 -156 45 -21 231 -48 384 -55 99 -5 118 -4 114 8 -3 8 -27 18
-58 22 -72 12 -48 24 62 33 49 4 87 9 84 11 -2 3 -57 20 -120 38 l-117 34
-105 100 c-104 99 -128 113 -152 89z"/>
<path d="M10360 3316 c0 -20 28 -84 40 -91 5 -3 20 -1 34 5 29 11 35 40 9 40
-9 0 -32 14 -50 32 -27 26 -33 28 -33 14z"/>
<path d="M9990 3162 c-38 -32 -42 -39 -37 -71 2 -20 16 -61 30 -92 23 -53 28
-57 66 -64 56 -9 81 1 81 32 0 20 -3 23 -14 14 -11 -9 -15 -7 -19 9 -3 13 -13
20 -30 20 -13 0 -32 9 -42 20 -25 28 -8 26 100 -10 105 -35 121 -37 128 -10 7
27 -13 37 -29 15 -16 -21 -19 -14 -29 57 -5 40 -11 50 -41 67 -18 11 -34 26
-34 33 0 8 -16 14 -44 15 -38 1 -51 -4 -86 -35z"/>
<path d="M10807 3054 c-12 -12 4 -24 34 -24 34 0 39 15 7 24 -29 7 -33 7 -41
0z"/>
<path d="M10321 2971 c-22 -14 -3 -31 35 -31 22 0 34 5 34 14 0 23 -43 34 -69
17z"/>
<path d="M10625 2950 c3 -5 14 -10 23 -10 15 0 15 2 2 10 -20 13 -33 13 -25 0z"/>
<path d="M10155 2890 c-4 -6 5 -10 20 -10 15 0 24 4 20 10 -3 6 -12 10 -20 10
-8 0 -17 -4 -20 -10z"/>
<path d="M10230 2860 c0 -5 5 -10 11 -10 5 0 7 5 4 10 -3 6 -8 10 -11 10 -2 0
-4 -4 -4 -10z"/>
<path d="M12860 2944 c0 -16 23 -44 35 -44 19 0 19 15 -1 34 -15 16 -34 21
-34 10z"/>
<path d="M14817 16754 c-3 -3 -4 -11 -1 -17 6 -17 156 -6 162 11 3 9 -17 12
-75 12 -44 0 -82 -3 -86 -6z"/>
<path d="M17140 14693 c0 -4 7 -32 14 -60 8 -29 11 -55 7 -57 -4 -3 -22 4 -39
14 -40 24 -39 26 -11 -125 46 -247 48 -239 -88 -369 -59 -56 -113 -118 -123
-139 -15 -33 -17 -61 -12 -223 4 -171 4 -184 -13 -184 -9 0 -58 38 -107 85
-90 86 -125 106 -113 63 7 -25 30 -46 85 -81 l35 -23 3 -100 c2 -84 -3 -131
-34 -280 -24 -120 -37 -209 -38 -270 -1 -86 1 -93 29 -132 85 -118 115 -168
115 -188 0 -25 -34 -54 -62 -54 -9 0 -29 -10 -44 -23 -26 -23 -26 -24 -10 -54
34 -67 153 -59 202 14 43 66 15 170 -90 323 -31 46 -56 91 -56 101 0 28 16 60
147 290 127 225 160 303 133 319 -43 24 -52 38 -52 72 0 20 3 41 7 47 38 63
274 -182 369 -383 71 -150 104 -294 107 -461 1 -49 5 -103 9 -120 l7 -30 12
30 c33 83 42 116 49 190 10 96 -2 262 -23 312 -9 21 -42 78 -74 128 -90 138
-187 317 -215 395 -28 77 -36 211 -15 253 6 12 41 51 79 87 40 38 71 77 76 94
10 41 -30 201 -70 279 -19 39 -44 70 -66 85 -24 16 -47 47 -72 97 -34 67 -58
99 -58 78z"/>
<path d="M17444 14233 c18 -197 18 -240 2 -334 -13 -77 -14 -107 -6 -145 27
-117 76 -178 126 -155 30 13 54 66 54 118 0 21 3 55 6 76 l7 38 76 -3 c42 -1
90 2 108 6 31 8 32 8 48 -45 22 -76 55 -268 62 -370 l6 -87 -41 11 c-23 6 -44
8 -48 4 -13 -13 8 -97 35 -137 50 -75 115 -101 145 -58 36 51 11 395 -45 616
-27 108 -86 272 -99 272 -3 0 -33 -23 -65 -51 -57 -48 -62 -50 -107 -46 -58 5
-113 40 -138 87 -10 19 -30 71 -45 115 -57 165 -92 204 -81 88z"/>
<path d="M11021 11255 c-62 -21 -87 -47 -136 -150 -47 -95 -64 -155 -65 -219
0 -43 6 -43 -95 -6 -66 24 -115 22 -146 -6 -31 -28 -23 -37 29 -30 74 9 82 -5
25 -46 -26 -19 -53 -37 -60 -41 -7 -4 -35 4 -62 18 -54 27 -71 31 -71 15 0
-17 39 -44 87 -61 76 -25 69 -43 -13 -36 -38 4 -109 9 -159 13 -81 5 -88 4
-71 -10 26 -21 113 -30 233 -23 85 5 103 3 103 -8 0 -22 28 -32 110 -39 58 -5
80 -3 95 8 24 18 21 19 -83 41 -82 17 -155 50 -149 68 5 16 127 87 148 87 10
0 40 -25 67 -55 54 -58 72 -110 72 -200 0 -67 16 -54 30 23 6 37 23 91 37 120
l25 53 -18 95 c-12 65 -14 98 -7 105 26 26 416 83 524 77 71 -4 82 -24 75
-129 -5 -68 -3 -77 13 -82 14 -3 21 -21 29 -77 12 -80 30 -111 50 -87 17 20
27 77 14 77 -6 0 -18 -10 -26 -22 -20 -29 -20 -19 4 71 33 124 27 164 -43 286
-23 39 -42 72 -44 75 -2 2 -13 -1 -23 -8 -28 -17 -29 -17 -32 31 -3 41 -4 42
-58 61 -75 25 -343 32 -409 11z"/>
<path d="M10215 10832 c8 -9 154 -66 190 -75 11 -2 7 54 -5 67 -5 5 -50 11
-102 13 -65 4 -90 2 -83 -5z"/>
<path d="M10077 10804 c-4 -4 -7 -14 -7 -23 0 -11 3 -12 11 -4 6 6 10 16 7 23
-2 6 -7 8 -11 4z"/>
<path d="M10125 10770 c-4 -6 12 -10 40 -10 28 0 44 4 40 10 -3 6 -21 10 -40
10 -19 0 -37 -4 -40 -10z"/>
<path d="M10731 10758 c-11 -30 -6 -38 29 -38 39 0 48 19 19 41 -31 24 -38 24
-48 -3z"/>
<path d="M11378 10762 c-34 -15 -38 -21 -38 -54 0 -28 7 -42 31 -62 39 -33 79
-33 119 0 32 27 60 73 60 97 0 36 -106 48 -172 19z m9 -84 c-3 -7 -5 -2 -5 12
0 14 2 19 5 13 2 -7 2 -19 0 -25z"/>
<path d="M11095 10736 c-51 -18 -60 -25 -63 -48 -5 -40 27 -65 90 -73 87 -11
99 -6 114 45 15 52 10 60 -46 83 -32 14 -40 13 -95 -7z"/>
<path d="M10135 10588 c-27 -15 -65 -50 -65 -60 0 -14 54 -9 78 8 12 8 22 26
22 40 0 27 -6 29 -35 12z"/>
<path d="M10198 10551 c-9 -12 -14 -31 -11 -41 3 -13 -26 -50 -104 -130 -121
-125 -130 -137 -114 -153 16 -16 84 36 138 104 50 65 61 71 103 63 29 -6 29
-6 23 30 -4 29 -2 36 11 36 9 0 16 -7 16 -15 0 -8 5 -15 10 -15 6 0 10 13 10
30 0 25 5 30 38 39 20 6 49 11 64 11 80 0 -11 44 -117 56 -46 6 -54 4 -67 -15z"/>
<path d="M10725 10531 c8 -14 61 -24 85 -16 34 11 11 25 -41 25 -28 0 -48 -4
-44 -9z"/>
<path d="M12246 10513 c-8 -21 18 -43 49 -43 20 0 65 37 65 53 0 4 -24 7 -54
7 -42 0 -55 -4 -60 -17z"/>
<path d="M10150 10235 c-17 -20 9 -21 36 0 19 14 19 14 -2 15 -12 0 -27 -7
-34 -15z"/>
<path d="M10172 10127 c-31 -32 -41 -57 -23 -57 10 0 64 80 59 86 -3 2 -19
-11 -36 -29z"/>
<path d="M11515 10100 c-3 -5 -1 -10 4 -10 6 0 11 5 11 10 0 6 -2 10 -4 10 -3
0 -8 -4 -11 -10z"/>
<path d="M10074 10055 c6 -22 3 -25 -20 -25 -23 0 -25 -2 -14 -15 19 -22 6
-29 -31 -16 -51 18 -68 14 -40 -8 l25 -19 -24 -4 c-16 -2 -34 -19 -54 -51 -16
-26 -27 -49 -25 -51 5 -5 219 113 260 143 l33 25 -29 9 c-17 6 -39 16 -50 23
-29 20 -38 17 -31 -11z"/>
<path d="M12070 10010 c0 -18 -2 -18 -41 -5 -49 18 -79 19 -79 5 0 -21 28 -75
46 -92 12 -11 46 -19 95 -24 74 -6 76 -6 82 17 5 18 1 28 -13 38 -11 7 -20 18
-20 23 0 13 43 -2 53 -18 9 -16 47 -19 47 -5 0 15 -60 57 -99 70 -50 16 -71
14 -71 -9z m-5 -70 c-3 -5 -15 -10 -26 -10 -10 0 -19 5 -19 10 0 6 12 10 26
10 14 0 23 -4 19 -10z"/>
<path d="M9823 9916 c-38 -35 -66 -67 -63 -70 7 -6 117 90 131 115 16 31 3 22
-68 -45z"/>
<path d="M13435 9810 c3 -5 10 -10 16 -10 5 0 9 5 9 10 0 6 -7 10 -16 10 -8 0
-12 -4 -9 -10z"/>
<path d="M13486 9792 c-3 -6 -3 -13 2 -16 13 -8 174 -28 180 -22 3 3 -12 13
-33 22 -49 20 -140 30 -149 16z"/>
<path d="M12981 9755 c-14 -13 -23 -26 -20 -28 2 -3 134 -7 294 -10 281 -5
364 4 159 17 -104 7 -339 32 -384 41 -18 3 -32 -3 -49 -20z"/>
<path d="M11191 9354 c0 -11 3 -14 6 -6 3 7 2 16 -1 19 -3 4 -6 -2 -5 -13z"/>
<path d="M9580 9106 c0 -2 7 -9 15 -16 12 -10 15 -10 15 4 0 9 -7 16 -15 16
-8 0 -15 -2 -15 -4z"/>
<path d="M9566 8875 c8 -34 -11 -55 -52 -55 -19 0 -34 -4 -34 -10 0 -18 64
-10 119 15 30 14 52 27 50 29 -2 2 -23 13 -47 25 l-43 22 7 -26z"/>
<path d="M15060 5306 c-14 -18 -6 -50 13 -44 15 6 22 37 10 49 -6 6 -15 4 -23
-5z"/>
<path d="M15138 5233 c6 -2 18 -2 25 0 6 3 1 5 -13 5 -14 0 -19 -2 -12 -5z"/>
<path d="M13760 4388 c0 -7 5 -20 10 -28 8 -13 11 -13 26 2 9 9 13 21 10 27
-10 15 -46 14 -46 -1z"/>
<path d="M13796 4264 c-8 -21 1 -34 23 -34 20 0 41 19 41 37 0 19 -57 17 -64
-3z"/>
</g>
</svg>
