<svg id="Layer_1_1_" enable-background="new 0 0 64 64" height="512" viewBox="0 0 64 64" width="512" xmlns="http://www.w3.org/2000/svg"><path d="m61 56h-2v-15c0-.552-.448-1-1-1h-5v-12c0-.552-.448-1-1-1h-6v-11c0-.552-.448-1-1-1h-6.557l2.493-6.649c.115-.307.072-.651-.115-.921-.186-.269-.493-.43-.821-.43h-.78c.479-.532.78-1.229.78-2 0-1.654-1.346-3-3-3s-3 1.346-3 3c0 .771.301 1.468.78 2h-.78c-.328 0-.635.161-.822.43-.187.27-.229.614-.115.921l2.494 6.649h-4.864l-2.694-7.184c1.162-.414 2.001-1.514 2.001-2.816 0-1.654-1.346-3-3-3s-3 1.346-3 3c0 1.302.839 2.402 2.001 2.816l-2.694 7.184h-4.307c-.552 0-1 .448-1 1v11h-6c-.552 0-1 .448-1 1v12h-5c-.552 0-1 .448-1 1v15h-2c-.552 0-1 .448-1 1v4c0 .552.448 1 1 1h58c.552 0 1-.448 1-1v-4c0-.552-.448-1-1-1zm-24-52c.551 0 1 .449 1 1s-.449 1-1 1-1-.449-1-1 .449-1 1-1zm1.557 5-1.557 4.152-1.557-4.152zm18.443 47h-29c-6.065 0-11-4.935-11-11v-3h40zm-46-14h4v3c0 4.6 2.408 8.639 6.022 10.95-5.608-.497-10.022-5.215-10.022-10.95zm40-2h-8.103c3.659-2.302 6.103-6.366 6.103-11h2zm-14.022-.05c3.614-2.311 6.022-6.35 6.022-10.95h4c0 5.735-4.414 10.453-10.022 10.95zm7.022-12.95h-7c-5.728 0-10.442-4.402-10.949-10h17.949zm-19.949-10c.321 4.181 2.622 7.809 5.971 9.95-5.278-.468-9.493-4.675-9.971-9.95zm2.949-13c.551 0 1 .449 1 1s-.449 1-1 1-1-.449-1-1 .449-1 1-1zm0 6.848 1.557 4.152h-3.114zm-7 12.049c1.043 1.658 2.446 3.061 4.103 4.103h-4.103zm-7 6.103h28c0 6.065-4.935 11-11 11h-17zm-6 13h2v3c0 4.634 2.444 8.698 6.103 11h-8.103zm53 18h-56v-2h56z"/><path d="m7.375 17.781c.183.146.404.219.625.219s.442-.073.625-.219l4.24-3.392c.721-.578 1.135-1.439 1.135-2.363 0-1.669-1.357-3.026-3.026-3.026h-.134c-.809 0-1.569.315-2.14.886l-.7.7-.7-.7c-.571-.571-1.331-.886-2.139-.886h-.135c-1.669 0-3.026 1.357-3.026 3.026 0 .924.414 1.785 1.136 2.363zm-2.349-6.781h.134c.274 0 .532.106.726.3l1.407 1.407c.391.391 1.023.391 1.414 0l1.407-1.407c.194-.194.452-.3.726-.3h.134c.566 0 1.026.46 1.026 1.026 0 .313-.141.605-.385.801l-3.615 2.892-3.615-2.892c-.244-.195-.385-.487-.385-.801 0-.566.46-1.026 1.026-1.026z"/><path d="m58.974 2h-.134c-.809 0-1.568.315-2.14.886l-.7.7-.7-.7c-.571-.571-1.331-.886-2.139-.886h-.134c-1.67 0-3.027 1.357-3.027 3.026 0 .924.414 1.785 1.136 2.363l4.24 3.392c.182.146.403.219.624.219s.442-.073.625-.219l4.24-3.392c.721-.578 1.135-1.439 1.135-2.363 0-1.669-1.357-3.026-3.026-3.026zm.641 3.828-3.615 2.891-3.615-2.892c-.244-.195-.385-.487-.385-.801 0-.566.46-1.026 1.026-1.026h.134c.274 0 .532.106.726.3l1.407 1.407c.391.391 1.023.391 1.414 0l1.407-1.407c.194-.194.451-.3.725-.3h.134c.567 0 1.027.46 1.027 1.026 0 .314-.141.606-.385.802z"/><path d="m40 18h2v2h-2z"/><path d="m35 23h2v2h-2z"/><path d="m18 31h2v2h-2z"/><path d="m23 35h2v2h-2z"/><path d="m38 44h2v2h-2z"/><path d="m28 50h2v2h-2z"/><path d="m43 52h2v2h-2z"/><path d="m53 47h2v2h-2z"/><path d="m20 45h2v2h-2z"/></svg>